<svg width="973" height="574" viewBox="0 0 973 574" fill="none" xmlns="http://www.w3.org/2000/svg">
<g clip-path="url(#clip0)">
<g opacity="0.4">
<path opacity="0.4" d="M647.151 332.588C680.394 247.377 747.292 175.388 830.724 137.601C854.667 126.759 881.705 118.899 908.112 123.762C930 127.802 950.877 140.422 960.178 161.328C979.059 203.802 965.826 255.163 932.142 285.81C898.459 316.457 849.87 329.268 805.256 324.008C802.322 323.655 802.322 328.269 805.256 328.621C847.243 333.572 892.194 322.583 926.039 296.843C963.288 268.533 980.511 222.666 969.978 176.652C965.166 155.628 953.664 138.453 934.416 128.052C912.983 116.548 888.057 115.637 864.701 120.926C839.057 126.803 814.733 139.144 792.39 152.748C724.353 194.3 671.791 257.037 642.75 331.354C641.664 334.116 646.124 335.321 647.151 332.588Z" fill="#659FEB"/>
<path opacity="0.4" d="M663.259 333.337C706.083 262.392 765.557 197.102 843.796 170.026C858.775 164.839 874.604 161.108 890.39 162.68C906.175 164.252 921.932 171.906 930.338 185.364C938.568 198.586 938.744 215.437 934.901 230.496C928.123 257.073 909.96 279.698 888.057 296.182C866.154 312.666 840.627 323.626 814.953 333.117" fill="#659FEB"/>
<path opacity="0.4" d="M665.24 334.498C699.848 277.421 744.564 223.87 803.408 190.785C832.749 174.257 874.59 154.82 908.083 169.673C946.578 186.759 937.057 233.934 917.795 262.23C893.647 297.754 853.244 316.398 814.352 330.869C811.594 331.898 812.782 336.349 815.57 335.277C852.07 321.716 889.246 304.894 914.552 274.13C934.475 249.919 951.786 208.4 929.487 180.104C904.723 148.738 859.288 160.373 828.26 173.405C794.796 187.553 764.795 208.621 738.622 233.596C708.269 262.495 682.962 296.373 661.264 332.147C659.724 334.704 663.699 337.01 665.24 334.483V334.498Z" fill="#659FEB"/>
<path opacity="0.4" d="M591.842 459.847C597.535 490.155 611.002 518.774 634.842 538.931C654.691 555.724 679.441 565.45 704.821 570.004C733.473 575.146 767.098 577.129 793.857 564.127C827.027 547.967 834.436 510.929 847.346 479.768C863.058 441.879 888.101 401.55 929.692 389.533C930.209 389.315 930.629 388.915 930.873 388.409C931.117 387.903 931.168 387.326 931.017 386.785C930.866 386.244 930.522 385.777 930.052 385.471C929.581 385.165 929.015 385.043 928.46 385.125C896.463 394.322 874.369 419.327 858.232 447.447C850.021 461.981 843.048 477.182 837.385 492.888C831.164 509.93 825.428 527.971 813.912 542.281C791.627 569.901 753.762 571.062 721.237 567.742C695.52 565.112 669.773 557.839 648.148 543.309C619.012 523.726 602.669 492.638 596.288 458.671C595.745 455.733 591.3 456.996 591.887 459.905L591.842 459.847Z" fill="#659FEB"/>
<path opacity="0.4" d="M615.007 334.733C615.011 335.172 614.91 335.605 614.713 335.997C614.516 336.389 614.228 336.729 613.874 336.987C613.52 337.246 613.109 337.416 612.676 337.484C612.243 337.552 611.8 337.515 611.384 337.377C595.466 289.468 597.857 237.754 595.451 187.332C593.045 136.911 584.331 83.6245 551.264 45.544C537.224 29.3832 518.02 16.1608 496.63 15.1618C475.24 14.1627 452.457 28.1638 448.921 49.305C447.542 57.4001 448.921 65.6714 449.537 73.8693C450.612 88.7161 449.062 103.636 444.96 117.944C443.61 122.601 441.879 127.405 438.3 130.696C428.778 139.511 413.14 132.929 400.772 136.749C392.322 139.35 386.102 146.695 382.185 154.629C374.673 169.747 374.028 187.685 378.179 204.051C382.331 220.418 390.972 235.344 401.271 248.714C431.676 287.856 475.594 314.203 524.402 322.583" fill="#659FEB"/>
<path opacity="0.4" d="M612.792 334.116L611.325 335.071L613.54 336.76C593.882 276.246 602.581 212.044 594.469 149.839C588.102 100.784 568.927 40.2402 519.648 18.4673C498.919 9.31447 473.92 11.2391 457.504 27.9875C453.723 31.8861 450.758 36.5007 448.78 41.5611C446.803 46.6216 445.853 52.0263 445.987 57.4588C445.987 65.7155 447.454 73.9134 447.454 82.1994C447.533 91.2666 446.598 100.314 444.667 109.173C443.112 116.357 441.542 125.451 435.204 129.962C428.867 134.472 420.343 133.106 413.066 133.062C401.565 132.974 392.205 136.264 384.957 145.594C368.233 167.146 371.402 198.336 382.023 221.843C406.963 276.745 465.719 314.708 523.727 324.772C526.661 325.272 527.864 320.835 524.944 320.365C473.964 311.55 426.549 282.358 397.31 239.355C381.055 215.511 370.404 183.38 384.106 155.804C387.187 149.648 391.618 143.654 397.838 140.437C404.059 137.219 411.511 137.734 418.377 137.866C427.267 138.027 436.539 137.308 442.217 129.55C449.259 119.898 450.682 104.913 451.635 93.3797C452.193 86.4565 452.193 79.4996 451.635 72.5764C450.99 64.452 449.596 56.0925 451.445 48.0268C457.43 21.9198 488.737 12.9286 511.594 20.3332C537.048 28.5898 555.885 51.3324 567.944 74.31C580.238 97.699 586.532 123.85 589.95 149.913C598.136 212.528 589.349 277.127 609.139 338.068C609.285 338.549 609.579 338.972 609.98 339.276C610.38 339.579 610.867 339.748 611.369 339.758C614.685 339.758 616.254 338.509 617.237 335.35C618.132 332.5 613.687 331.295 612.836 334.116H612.792Z" fill="#659FEB"/>
<path opacity="0.4" d="M430.114 109.849C384.635 106.911 352.873 150.603 356.907 193.15C361.499 241.471 400.171 275.144 442.95 291.863C445.723 292.935 446.911 288.484 444.183 287.455C404.396 271.912 367.895 241.015 361.91 196.441C359.064 175.3 364.066 153.321 378.312 137.102C391.398 122.205 410.176 113.184 430.114 114.506C433.048 114.697 433.048 110.099 430.114 109.893V109.849Z" fill="#659FEB"/>
<path opacity="0.4" d="M514.792 301.178C487.373 294.111 441.718 309.331 413.433 310.213C385.148 311.094 356.027 320.409 336.632 341.065C327.947 350.306 321.331 364.366 327.639 375.385C330.138 379.348 333.628 382.589 337.762 384.787C359.46 397.451 386.865 392.28 411.394 397.657C421.663 399.905 432.652 405.326 435.41 415.449C438.887 428.216 427.473 441.805 431.669 454.352C434.06 461.507 441.219 466.281 448.613 467.648C456.007 469.014 463.651 467.486 470.883 465.371C487.681 460.449 503.76 452.045 515.849 439.367C527.937 426.688 535.771 409.454 535.185 391.927C534.759 378.617 580.517 308.964 574.795 296.932" fill="#659FEB"/>
<path opacity="0.4" d="M515.409 298.988C493.608 293.788 470.032 299.356 448.466 303.205C436.847 305.262 425.228 307.363 413.433 307.936C401.29 308.358 389.251 310.333 377.607 313.812C356.57 320.365 331.468 334.586 324.309 356.991C316.137 382.569 345.097 393.015 365.02 395.483C385.456 398.01 439.84 392.868 432.989 427.158C431.008 437.045 425.654 447.212 430.334 457.173C434.647 466.414 445.18 470.542 454.834 470.498C478.6 470.38 505.638 455.424 520.675 437.471C528.744 428.032 534.216 416.648 536.549 404.445C537.811 397.349 537.018 390.796 539.659 384.038C546.452 366.658 556.457 350.438 564.775 333.778C568.605 326.438 572 318.878 574.942 311.138C576.482 306.878 578.859 300.854 577.04 296.359C575.94 293.641 571.494 294.889 572.639 297.593C574.106 301.133 571.935 306.026 570.746 309.346C568.28 315.94 565.434 322.386 562.223 328.651C555.357 342.608 547.787 356.212 540.935 370.198C538.468 374.997 536.297 379.942 534.436 385.008C532.265 391.325 533.16 397.819 531.928 404.356C526.896 431.036 504.772 450.194 480.507 459.7C468.697 464.313 452.926 469.719 441.19 462.329C427.986 454.043 434.955 440.204 437.478 428.362C441.879 407.794 425.404 397.51 407.271 394.572C384.253 390.737 352.359 396.394 333.727 379.16C321.316 367.672 330.148 350.923 339.889 341.094C348.364 332.738 358.406 326.142 369.436 321.687C392.366 312.152 417.071 313.298 441.146 309.184C464.619 305.188 490.527 297.813 514.22 303.469C517.154 304.145 518.328 299.708 515.453 299.062L515.409 298.988Z" fill="#659FEB"/>
<path opacity="0.4" d="M427.708 398.142C428.47 406.501 425.023 414.919 422.162 422.603C418.891 431.418 415.061 440.13 412.876 449.298C411.408 455.321 410.587 461.844 413.11 467.692C416.881 476.433 424.847 482.839 433.341 486.673C474.067 505.008 520.983 476.624 542.652 442.26C557.323 419.062 563.88 391.839 566.008 364.733C566.242 361.795 561.606 361.795 561.401 364.733C558.012 407.926 541.346 453.088 501.736 475.596C483.999 485.718 461.831 490.772 441.85 484.881C431.991 481.942 421.531 475.801 417.365 465.914C414.519 459.126 416.793 451.369 418.832 444.67C423.409 429.978 433.634 413.906 432.197 398.068C431.933 395.13 427.326 395.13 427.59 398.068L427.708 398.142Z" fill="#659FEB"/>
<path opacity="0.4" d="M566.58 313.092C574.619 333.308 614.758 466.546 625.79 485.307C632.847 497.354 640.637 509.196 651.024 518.525C662.452 528.809 676.551 535.596 690.634 541.62C710.66 550.156 734.397 557.237 753.395 546.6C769.782 537.418 777.352 517.114 776.634 498.324C775.915 479.533 750.461 325.286 743.082 307.994" fill="#659FEB"/>
<path opacity="0.4" d="M564.364 313.709C576.996 345.796 586.003 379.572 596.757 412.334C608.185 447.182 617.443 485.189 642.471 513.177C653.166 525.15 666.839 533.348 681.304 539.989C694.757 546.159 708.841 552.007 723.658 553.755C752.383 557.163 774.198 538.74 778.306 510.503C780.155 497.795 777.66 484.925 775.871 472.305C773.186 453.646 770.193 435.032 767.068 416.477C763.239 393.514 759.234 370.58 754.774 347.735C752.192 334.512 750.505 319.894 745.341 307.377C744.226 304.674 739.766 305.908 740.94 308.611C744.886 318.161 746.383 329.179 748.437 339.199C752.104 357.255 755.376 375.384 758.545 393.558C764.296 426.511 770.472 459.67 773.963 492.976C776.325 515.674 767.274 542.119 742.979 548.275C727.208 552.3 710.44 547.114 695.813 541.267C680.189 535.008 664.213 527.604 651.801 516.056C624.323 490.61 614.919 452.486 603.594 418.21C592.004 383.112 582.395 346.883 568.854 312.431C567.783 309.698 563.323 310.888 564.452 313.665L564.364 313.709Z" fill="#659FEB"/>
<path opacity="0.4" d="M720.064 261.657C729.952 243.351 739.928 224.796 744.813 204.58C749.699 184.365 749.009 161.975 738.387 144.051C736.445 140.354 733.566 137.233 730.04 135.001C726.416 132.988 721.56 132.709 718.303 135.265C715.633 137.352 714.489 140.804 713.491 144.08L705.965 168.351C705.58 170.04 704.795 171.612 703.677 172.935C700.86 175.755 695.887 174.536 692.864 171.936C689.842 169.335 687.876 165.677 684.854 163.121C676.947 156.362 663.861 159.301 656.98 167.146C650.1 174.991 668.13 307.48 668.511 317.882" fill="#659FEB"/>
<path opacity="0.4" d="M722.059 262.818C740.221 229.145 760.525 188.86 744.065 150.354C741.131 143.375 736.73 135.089 729.248 132.151C726.658 131.019 723.757 130.817 721.035 131.58C718.314 132.343 715.94 134.024 714.313 136.338C708.899 144.213 707.462 155.995 704.572 165.001C704.32 166.404 703.86 167.76 703.207 169.027C702.202 169.941 700.994 170.603 699.683 170.958C698.372 171.313 696.995 171.351 695.667 171.069C693.378 170.378 691.265 166.661 689.725 164.898C687.54 162.056 684.674 159.812 681.392 158.375C672.883 155.011 657.45 158.375 654.09 167.998C652.08 173.875 653.122 181.573 653.356 187.567C654.295 211.515 657.053 235.403 659.694 259.204C661.851 278.626 665.372 298.283 666.252 317.808C666.384 320.747 670.991 320.747 670.859 317.808C670.242 304.13 667.924 290.379 666.296 276.789C663.729 254.532 661.22 232.245 659.401 209.913C658.653 200.731 657.934 191.534 657.802 182.323C657.802 178.312 656.863 172.141 658.858 168.439C663.655 159.624 678.927 160.182 684.913 166.338C689.314 170.834 692.982 177.504 700.273 176.769C715.868 175.212 709.78 127.214 728.881 136.999C737.771 141.553 741.894 155.54 743.801 164.59C745.979 175.644 745.979 187.018 743.801 198.072C739.708 220.432 728.72 240.677 718.054 260.496C716.587 263.111 720.621 265.433 722.03 262.818H722.059Z" fill="#659FEB"/>
</g>
<path d="M309.345 160.535C361.675 202.186 451.459 136.529 451.459 136.529L469.9 120.603C492.244 110.657 499.623 102.841 499.623 102.841L485.099 109.54L502.425 95.8185C502.88 95.4512 500.855 95.7303 500.327 95.9948L484.131 104.472L500.797 89.6186C500.871 89.5485 500.918 89.4536 500.929 89.3515C500.939 89.2494 500.913 89.1469 500.854 89.0629C500.795 88.9788 500.708 88.9189 500.608 88.8942C500.509 88.8694 500.404 88.8815 500.312 88.9281L480.419 99.9027C480.419 99.9027 496.102 85.3728 493.623 85.7695C491.143 86.1661 470.487 100.608 470.487 100.608C470.487 100.608 479.011 86.7391 476.429 87.4884C474.756 87.9732 468.228 96.3033 463.841 102.18C461.024 105.926 461.817 107.19 457.724 109.526L428.03 127.156C403.09 142.464 358.902 154.115 325.659 126.612C325.659 126.612 312.983 119.927 302.068 133.37C291.153 146.813 309.345 160.535 309.345 160.535Z" fill="#FFA47A" stroke="#FFA47A" stroke-width="1.48" stroke-linecap="round" stroke-linejoin="round"/>
<path d="M386.013 141.362C366.091 144.066 350.29 138.013 325.658 126.671C325.658 126.671 312.983 119.986 302.068 133.429C291.153 146.872 309.403 160.55 309.403 160.55C327.008 174.565 338.671 181.294 359.9 177.592L386.013 141.362Z" fill="#FA7269" stroke="#FA7269" stroke-width="0.6" stroke-miterlimit="10"/>
<path d="M387.172 141.26L376.624 172.67C372.28 173.643 367.864 174.267 363.421 174.536L387.172 141.26Z" fill="#CF5540"/>
<path d="M459.337 107.116C460.218 108.586 460.892 110.833 459.939 111.436C458.985 112.038 456.77 110.687 455.89 109.276" fill="#CF5540"/>
<path d="M473.861 96.9645C473.861 96.9645 471.514 103.649 471.543 103.458L480.874 92.3367L473.861 96.9645Z" fill="#CF5540"/>
<path d="M295.158 2.15967C310.709 7.02258 349.557 59.5744 349.557 59.5744C356.297 65.7765 360.998 73.8811 363.039 82.8164C363.685 86.1367 361.44 95.9066 358.8 97.9635L307.056 140.055C307.056 140.055 265.406 125.275 275.456 93.0418C285.505 60.8085 293.999 67.7723 289.011 49.3343C284.023 30.8964 295.158 2.15967 295.158 2.15967Z" fill="#00043B"/>
<path d="M360.765 79.2024C357.303 70.0348 353.9 60.7938 348.794 52.3902C343.71 44.4622 338.134 36.8615 332.099 29.633C322.945 18.2029 311.487 9.50551 300.249 0.249811C299.325 -0.514151 297.99 0.808091 298.914 1.57205C309.316 10.1519 320.23 18.2323 328.886 28.6633C335.026 35.9016 340.728 43.5009 345.963 51.4206C351.611 60.2355 355.279 69.9614 358.946 79.7166C359.372 80.8331 361.191 80.3483 360.765 79.2171V79.2024Z" fill="#00043B"/>
<path d="M326.73 85.0935C326.662 85.1689 326.58 85.2292 326.487 85.2705C326.395 85.3118 326.295 85.3331 326.194 85.3331C326.093 85.3331 325.993 85.3118 325.901 85.2705C325.809 85.2292 325.726 85.1689 325.659 85.0935C324.5 83.7272 321.36 80.833 317.516 83.8154C313.673 86.7978 317.825 92.1455 318.984 94.6284C320.641 98.2572 321.918 109.32 318.045 118.355C315.272 124.893 304.049 136.499 304.049 136.499C304.049 136.499 319.394 153.689 330.647 146.166C330.647 146.166 331.762 121.955 335.459 117.165C335.547 117.062 345.097 122.807 355.91 106.558C366.179 91.2346 356.012 81.6704 353.577 79.7017C351.479 78.0563 342.031 69.0503 326.73 85.0935Z" fill="#FFA47A"/>
<path d="M331.424 136.367C331.057 136.367 315.668 143.919 315.668 143.919C315.668 143.919 322.769 151.147 330.617 146.166L331.424 136.367Z" fill="#CF5540"/>
<path d="M352.388 110.363L343.777 105.559C343.777 105.559 343.615 110.907 346.359 111.862C349.102 112.817 352.388 110.363 352.388 110.363Z" fill="white"/>
<path d="M324.221 87.2974C323.076 86.1221 320.891 85.5785 319.717 86.7244C319.203 87.4155 318.949 88.2659 319 89.126C319.051 89.986 319.404 90.8004 319.996 91.4257" fill="#CF5540"/>
<path d="M351.992 102.929L349.058 107.013L351.435 108.071C351.535 108.115 351.644 108.132 351.753 108.12C351.861 108.109 351.965 108.069 352.054 108.005C352.143 107.942 352.213 107.856 352.259 107.757C352.305 107.658 352.324 107.548 352.315 107.44L351.992 102.929Z" fill="#CF5540"/>
<path d="M360.457 87.1505C360.457 87.1505 335.517 92.4247 325.659 85.0936C315.8 77.7625 341.297 58.5313 350.819 69.9319C360.34 81.3326 360.457 87.1505 360.457 87.1505Z" fill="#00043B"/>
<path d="M335.502 117.195C331.767 115.226 328.733 112.146 326.817 108.38C325.072 104.868 325.072 121.925 332.686 126.01C332.744 125.877 334.109 121.25 335.502 117.195Z" fill="#CF5540"/>
<path d="M348.691 93.2916C347.606 93.4239 350.158 91.6021 351.391 91.8225C351.951 91.916 352.451 92.2286 352.781 92.6915C353.111 93.1544 353.245 93.7296 353.151 94.2907C351.824 93.4518 350.249 93.0988 348.691 93.2916Z" fill="#00043B"/>
<path d="M360.105 96.8617C359.686 96.4628 359.129 96.2405 358.55 96.2405C357.972 96.2405 357.415 96.4628 356.995 96.8617C358.02 97.2561 358.932 97.8969 359.651 98.7275" fill="#00043B"/>
<path d="M348.574 100.27C348.193 101.063 348.193 101.857 348.574 102.048C348.956 102.239 349.572 101.739 349.953 100.946C350.335 100.153 350.335 99.3592 349.953 99.1682C349.572 98.9772 348.97 99.4767 348.574 100.27Z" fill="#00043B"/>
<path d="M354.046 102.929C353.679 103.678 353.679 104.398 354.046 104.619C354.413 104.839 355.014 104.325 355.381 103.561C355.748 102.797 355.748 102.092 355.381 101.871C355.014 101.651 354.413 102.165 354.046 102.929Z" fill="#00043B"/>
<path opacity="0.37" d="M333.229 100.725C332.95 101.63 332.945 102.596 333.215 103.503C333.484 104.411 334.016 105.217 334.743 105.822C335.47 106.426 336.36 106.802 337.3 106.9C338.24 106.999 339.188 106.817 340.024 106.377C340.861 105.936 341.548 105.258 342 104.426C342.451 103.595 342.647 102.648 342.562 101.706C342.477 100.763 342.115 99.8673 341.522 99.1306C340.928 98.3939 340.131 97.8498 339.229 97.5668C338.628 97.3782 337.995 97.3103 337.368 97.3671C336.741 97.4239 336.131 97.6042 335.573 97.8977C335.016 98.1912 334.522 98.5921 334.119 99.0774C333.717 99.5626 333.414 100.123 333.229 100.725Z" fill="#ED6966" stroke="#ED6966" stroke-width="0.32" stroke-miterlimit="10"/>
<path d="M321.903 79.7019C327.199 85.7402 331.747 92.4689 340.579 92.3808C348.609 92.2944 356.371 89.4703 362.584 84.3739C363.333 83.7421 362.232 82.6549 361.499 83.2867C355.548 88.0871 348.161 90.7511 340.52 90.8528C332.26 90.8528 327.83 84.1976 322.915 78.6148C322.27 77.8655 321.184 78.9527 321.829 79.7019H321.903Z" fill="#00043B"/>
<path d="M104.572 156.025C102.812 144.418 101.785 115.74 101.785 115.74L52.1541 118.429C58.4771 121.485 80.6884 135.295 80.6884 135.295L84.6055 157.332C84.6055 157.332 104.587 155.819 104.572 156.025Z" fill="#FFA47A"/>
<path d="M80.5123 135.265L51.4938 119.002C51.1956 118.854 50.9528 118.613 50.801 118.317C50.6493 118.02 50.5967 117.682 50.6509 117.353C50.7051 117.024 50.8632 116.722 51.1021 116.489C51.341 116.257 51.648 116.108 51.9779 116.064C64.0078 114.198 96.4593 109.408 104.998 108.174C105.24 108.141 105.487 108.165 105.718 108.245C105.949 108.324 106.158 108.458 106.329 108.634C106.499 108.81 106.625 109.024 106.697 109.258C106.769 109.492 106.785 109.74 106.743 109.981C105.819 115.77 104.587 131.828 103.809 136.529C103.692 137.278 94.1706 125.407 90.8551 127.332C88.0237 129.007 80.7617 135.163 80.5123 135.265Z" fill="#659FEB" stroke="#659FEB" stroke-width="0.32" stroke-miterlimit="10"/>
<path d="M78.7959 134.428L83.3732 128.287C83.8923 127.585 84.1127 126.705 83.9862 125.841C83.8598 124.976 83.3967 124.197 82.6983 123.674V123.674C81.9948 123.153 81.1143 122.932 80.2487 123.059C79.3831 123.185 78.6025 123.649 78.0771 124.35L72.957 131.255" stroke="#F8F1EE" stroke-width="0.72" stroke-miterlimit="10"/>
<path d="M95.4911 142.508C95.7992 149.457 96.2393 156.392 96.2393 156.392L104.895 155.98L103.78 136.499C103.78 136.499 96.6941 128.478 95.5645 128.551C95.007 128.551 95.1684 135.559 95.5645 142.508" fill="#CF5540"/>
<path d="M68.9519 249.287C61.2498 241.618 53.6357 218.244 53.6357 218.244C53.6357 218.244 1.02686 233.89 1.46698 234.052C1.9071 234.213 33.4049 246.011 33.4049 246.011L52.6821 260.467C52.6821 260.467 67.3088 250.139 68.9519 249.287Z" fill="#FFA47A" stroke="#FFA47A" stroke-width="1.3" stroke-miterlimit="10"/>
<path d="M32.5247 246.819L1.26162 235.168C0.970113 235.049 0.720643 234.846 0.545033 234.584C0.369423 234.322 0.275635 234.014 0.275635 233.699C0.275635 233.384 0.369423 233.076 0.545033 232.814C0.720643 232.552 0.970113 232.349 1.26162 232.23C12.9101 228.675 44.3493 219.316 52.6088 216.877C53.6064 216.583 55.4402 218.199 55.7483 219.213C57.7601 225.915 60.2105 232.477 63.0836 238.856C63.4357 239.532 44.3493 235.491 41.3271 237.857C38.7744 239.869 33.4196 247.333 32.5247 246.819Z" fill="#659FEB" stroke="#659FEB" stroke-width="0.32" stroke-miterlimit="10"/>
<path d="M30.0307 245.438L33.1556 237.607C33.318 237.206 33.3999 236.776 33.3963 236.344C33.3928 235.911 33.304 235.483 33.135 235.084C32.966 234.686 32.7201 234.324 32.4115 234.021C32.1029 233.718 31.7375 233.479 31.3364 233.317V233.317C30.9358 233.154 30.507 233.073 30.0746 233.076C29.6423 233.08 29.2149 233.169 28.817 233.338C28.419 233.507 28.0583 233.753 27.7556 234.062C27.4528 234.371 27.2139 234.737 27.0526 235.139L23.8397 243.116" stroke="#F8F1EE" stroke-width="0.72" stroke-miterlimit="10"/>
<path d="M57.2301 258.484L37.1167 242.22L32.5394 246.833L53.0196 261.701L57.2301 258.484Z" fill="#CF5540"/>
<path d="M263.426 210.898C269.793 213.336 274.37 218.67 276.629 229.615C278.889 240.56 289.833 222.798 289.51 233.787C285.241 236.153 262.003 266.109 253.978 269.502C218.358 284.311 191.261 290.688 156.609 283.68C122.734 276.819 103.399 238.136 93.5252 212.499C85.7498 192.328 85.8818 175.858 82.3315 155.275C83.3585 152.895 103.413 152.337 104.499 153.263C118.157 195.707 137.082 219.375 162.815 224.223C186.86 228.792 203.892 225.031 221.497 219.389C221.526 219.389 241.156 202.347 263.426 210.898Z" fill="#365185" stroke="#365185" stroke-width="0.3" stroke-miterlimit="10"/>
<g style="mix-blend-mode:multiply" opacity="0.43">
<g style="mix-blend-mode:multiply" opacity="0.43">
<path d="M162.844 224.223C186.889 228.792 203.922 225.031 221.526 219.389C221.526 219.389 241.185 202.347 263.455 210.898C269.822 213.336 274.399 218.669 276.659 229.615C278.918 240.56 289.173 223.944 288.909 234.933C284.64 237.313 262.032 266.167 254.007 269.502" fill="#365185"/>
</g>
</g>
<path d="M287.544 229.688C276.394 219.404 255.269 202.979 253.406 204.125C234.26 206.417 215.643 221.402 207.046 237.827C205.417 241.009 203.391 243.971 201.017 246.642C190.205 258.719 178.043 269.194 157.768 276.995C133.327 286.412 103.486 277.891 69.612 249.081C65.8563 253.048 52.7114 259.248 53.0928 261.819C66.9272 277.45 75.4802 290.585 92.7035 303.646C114.563 320.203 151.386 342.916 183.764 330.884C212.616 320.314 237.813 301.64 256.34 277.098L287.544 229.688Z" fill="#4465A6" stroke="#4465A6" stroke-width="0.3" stroke-miterlimit="10"/>
<g style="mix-blend-mode:multiply" opacity="0.5">
<path d="M252.335 281.77C252.335 281.77 154.79 377.118 54.4719 260.702C54.4719 260.702 77.7249 301.016 125.492 323.259C127.796 321.613 177.412 364.66 252.335 281.77Z" fill="#4465A6"/>
</g>
<path d="M331.321 138.439C332.011 139.776 336.793 174.404 330.074 186.054C325.57 193.87 300.19 217.171 288.835 231.466C288.835 231.466 265.802 217.142 252.907 204.742C256.501 191.255 268.648 138.938 293.427 125.187C298.65 126.33 303.803 127.772 308.861 129.506C308.861 129.506 322.343 152.366 331.321 138.439Z" fill="#FFA47A" stroke="#FFA47A" stroke-width="1.48" stroke-linecap="round" stroke-linejoin="round"/>
<path d="M253.963 196.985L252.922 201.099L280.943 225.722L253.963 196.985Z" fill="#CF5540"/>
<path d="M331.322 138.439C332.011 139.776 336.794 174.404 330.075 186.054C325.571 193.87 300.19 217.171 288.835 231.466C288.835 231.466 281.764 226.75 250.354 191.534C253.949 178.033 268.649 138.938 293.427 125.187C298.65 126.33 303.803 127.772 308.861 129.506C308.861 129.506 322.343 152.366 331.322 138.439Z" fill="#F8F1EE" stroke="#F8F1EE" stroke-width="1.48" stroke-miterlimit="10"/>
<g style="mix-blend-mode:multiply">
<path d="M288.835 231.466C288.835 231.466 281.764 226.75 250.354 191.534C253.949 178.033 268.649 138.938 293.427 125.187C298.65 126.33 303.803 127.772 308.861 129.506" fill="#F8F1EE"/>
<path d="M288.835 231.466C288.835 231.466 281.764 226.75 250.354 191.534C253.949 178.033 268.649 138.938 293.427 125.187C298.65 126.33 303.803 127.772 308.861 129.506" stroke="#F8F1EE" stroke-width="1.48" stroke-linecap="round" stroke-linejoin="round"/>
</g>
<path d="M551.792 455.718L756.315 543.97C760.34 545.673 764.853 545.816 768.977 544.371C773.101 542.926 776.541 539.998 778.629 536.155L909.579 291.128C914.772 281.564 914.537 270.648 904.253 267.093C904.253 267.093 859.772 226.691 781.445 203.919C758.75 197.337 685.148 190.888 685.148 190.888L551.792 455.718Z" stroke="#F8F1EE" stroke-width="1.06" stroke-linecap="round" stroke-linejoin="round"/>
<path d="M560.961 459.479L367.778 346.457C364.021 344.209 361.234 340.64 359.962 336.446C358.69 332.252 359.023 327.734 360.897 323.773L476.297 76.8371C480.962 66.9938 492.053 66.1857 502.264 69.9321C534.451 81.6853 563.059 75.6912 627.565 125.76C646.256 140.275 694.83 196.089 694.83 196.089L560.961 459.479Z" stroke="#F8F1EE" stroke-width="1.06" stroke-linecap="round" stroke-linejoin="round"/>
<path d="M897.842 270.692C897.842 270.692 855.063 231.833 779.714 209.972C758.823 203.905 693.084 197.969 687.48 197.47C681.48 190.594 640.241 143.654 623.604 130.755C561.592 82.6402 534.113 88.4581 503.144 77.1015C493.358 73.458 482.664 74.266 478.262 83.7421L367.338 321.099C365.539 324.9 365.216 329.235 366.431 333.262C367.645 337.288 370.311 340.719 373.91 342.887L559.215 451.311H559.464L755.537 537.007C759.405 538.645 763.743 538.784 767.707 537.396C771.672 536.008 774.979 533.194 776.986 529.499L902.992 293.832C907.994 284.605 907.76 274.116 897.842 270.692Z" fill="#2E4470" stroke="#2E4470" stroke-width="0.3" stroke-miterlimit="10"/>
<path d="M548.036 445.831L569.132 456.849L699.921 198.968C691.881 198.402 684.309 194.973 678.575 189.301L548.036 445.831Z" fill="#1D2B47" stroke="#1D2B47" stroke-width="0.3" stroke-miterlimit="10"/>
<path d="M883.656 279.831C883.656 279.831 795.383 215.996 684.443 203.434C609.051 121.485 506.137 87.7676 506.137 87.7676L382.903 327.417C407.521 334.072 542.065 425.424 562.149 441.629L561.944 442.07C562.239 442.094 562.533 442.133 562.824 442.187C563.407 442.636 563.956 443.127 564.467 443.656L565.025 442.569C584.478 446.712 673.763 474.009 762.682 520.567L883.656 279.831Z" fill="#CFB2A3"/>
<path d="M622.827 154.835C622.827 154.835 634.563 119.972 659.181 109.761C659.508 109.625 659.862 109.569 660.214 109.597C660.567 109.625 660.908 109.735 661.21 109.92C661.512 110.105 661.765 110.358 661.951 110.66C662.136 110.962 662.248 111.303 662.276 111.656L662.995 119.487L672.252 120.75C672.669 120.804 673.062 120.975 673.386 121.244C673.709 121.513 673.949 121.868 674.078 122.269C674.208 122.669 674.22 123.098 674.115 123.506C674.01 123.913 673.791 124.282 673.485 124.57C664.359 133.121 640.094 158.199 640.784 167.484L622.827 154.835Z" fill="#FA7269" stroke="#FA7269" stroke-width="0.6" stroke-miterlimit="10"/>
<g opacity="0.76">
<path opacity="0.76" d="M628.607 154.923C630.199 149.985 632.303 145.229 634.886 140.731C637.954 136.128 641.362 131.762 645.082 127.67C646.549 126.039 644.129 123.63 642.691 125.275C638.771 129.578 635.186 134.176 631.967 139.027C628.944 143.801 627.301 148.782 625.35 154.027C624.587 156.069 627.859 156.965 628.607 154.923Z" fill="#F2FCF9"/>
<path opacity="0.76" d="M650.055 121.749L653.987 118.414C654.145 118.257 654.27 118.071 654.355 117.865C654.44 117.66 654.484 117.439 654.484 117.217C654.484 116.994 654.44 116.774 654.355 116.569C654.27 116.363 654.145 116.177 653.987 116.02C653.667 115.708 653.238 115.534 652.792 115.534C652.345 115.534 651.916 115.708 651.596 116.02L647.664 119.355C647.507 119.512 647.382 119.698 647.296 119.904C647.211 120.109 647.167 120.329 647.167 120.552C647.167 120.774 647.211 120.995 647.296 121.2C647.382 121.406 647.507 121.592 647.664 121.749C647.986 122.057 648.414 122.229 648.86 122.229C649.305 122.229 649.733 122.057 650.055 121.749Z" fill="#F2FCF9"/>
</g>
<path d="M510.362 96.6706C527.248 92.3806 527.717 95.745 544.603 100.094C560.043 103.722 574.846 109.666 588.512 117.724C602.376 125.789 619.189 137.278 630.676 148.488C649.234 166.602 665.885 183.307 683.241 202.612L561.606 437.089C561.606 437.089 446.427 298.665 393.745 324.405L510.362 96.6706Z" fill="#F8F1EE"/>
<path d="M510.714 97.9341C517.022 96.465 522.949 95.3484 529.331 96.9351C535.199 98.4043 540.921 100.432 546.745 102.018C560.717 105.698 574.159 111.164 586.737 118.282C613.57 133.649 635.003 154.129 656.496 176.093C661.464 181.177 666.379 186.314 671.24 191.505C673.69 194.135 676.008 197.029 678.575 199.497C677.739 198.718 682.037 202.744 681.993 202.156C681.993 203.096 680.38 205.256 679.969 206.035L668.805 227.72L584.786 389.621L560.418 436.487L562.487 436.222C548.529 419.641 533.732 403.787 518.152 388.725C493.623 364.777 466.233 339.567 434.265 326.065C421.326 320.6 406.391 317.088 393.026 323.318L394.831 325.125L434.089 248.435L497.056 125.437L511.433 97.3318C512.21 95.8626 509.966 94.4816 509.159 95.9948L469.9 172.7L406.934 295.697L392.557 323.802C392.417 324.054 392.363 324.345 392.404 324.63C392.445 324.916 392.577 325.18 392.781 325.383C392.986 325.586 393.251 325.716 393.536 325.754C393.821 325.793 394.111 325.737 394.361 325.595C406.538 319.895 420.548 323.244 432.417 328.122C448.32 334.674 462.785 344.723 476.297 355.257C501.735 375.076 524.856 398.142 546.51 421.928C551.322 427.231 556.09 432.579 560.682 438.088C560.825 438.23 560.998 438.338 561.188 438.403C561.379 438.468 561.581 438.488 561.781 438.463C561.98 438.437 562.172 438.367 562.34 438.256C562.508 438.145 562.648 437.997 562.751 437.824L603.946 358.401L669.259 232.494L684.385 203.332C684.523 203.077 684.577 202.785 684.54 202.498C684.503 202.21 684.377 201.942 684.179 201.73C658.256 172.949 631.365 143.155 598.415 122.263C584.119 112.945 568.567 105.717 552.232 100.799C544.647 98.5953 536.974 96.0095 529.287 94.1878C522.744 92.7186 516.45 93.8352 510.01 95.3925C508.367 95.7892 509.071 98.3308 510.714 97.9341Z" fill="#F8F1EE"/>
<path d="M745.869 498.045C694.228 464.78 635.431 444.285 574.326 438.25C572.653 438.088 572.653 440.733 574.326 440.894C634.951 446.929 693.278 467.297 744.505 500.322C745.972 501.247 747.248 498.955 745.825 498.045H745.869Z" fill="#F8F1EE"/>
<path d="M563.763 441.879C629.781 455.292 695.608 478.387 754.158 512.046C754.454 512.201 754.799 512.238 755.121 512.149C755.443 512.06 755.72 511.851 755.895 511.566C756.07 511.281 756.13 510.94 756.064 510.611C755.998 510.283 755.809 509.992 755.537 509.798C696.781 476.007 630.837 452.824 564.511 439.366C562.853 439.028 562.149 441.57 563.807 441.908L563.763 441.879Z" fill="#F8F1EE"/>
<path d="M400.772 325.815C416.338 328.46 430.392 336.099 444.036 343.709C456.65 350.745 468.891 358.429 480.712 366.731C504.911 383.81 527.25 403.388 547.361 425.145C548.52 426.379 550.383 424.513 549.224 423.279C528.942 401.39 506.422 381.693 482.033 364.513C469.868 355.959 457.258 348.058 444.256 340.845C430.744 333.337 416.851 325.918 401.476 323.303C399.819 323.009 399.1 325.551 400.772 325.845V325.815Z" fill="#F8F1EE"/>
<path d="M394.038 327.064C456.77 354.728 514.734 395.894 564.526 442.848C565.758 444.009 567.621 442.143 566.374 440.982C516.406 393.881 458.296 352.598 395.373 324.787C393.833 324.111 392.439 326.373 394.038 327.064Z" fill="#F8F1EE"/>
<path d="M875.616 282.989C845.013 340.776 814.406 398.602 783.793 456.467C783.001 457.937 785.26 459.288 786.067 457.79L877.89 284.326C878.683 282.857 876.423 281.491 875.616 282.989Z" fill="#F8F1EE"/>
<path d="M871.934 279.698C865.435 263.538 862.457 265.095 849.004 254.003C835.551 242.911 824.797 235.888 808.88 228.865C794.209 222.386 775.035 215.555 759.22 212.852C733.678 208.444 710.557 205.609 684.766 202.964L561.885 438.602C561.885 438.602 748.202 455.439 758.471 513.221L871.934 279.698Z" fill="#F8F1EE"/>
<path d="M873.196 279.346C871.068 274.174 868.794 268.915 864.877 264.845C860.476 260.349 854.799 256.956 849.943 253.092C836.343 241.939 821.24 232.765 805.08 225.839C766.936 209.781 725.609 205.902 684.781 201.671C684.552 201.668 684.326 201.726 684.128 201.84C683.929 201.953 683.764 202.118 683.651 202.318L642.207 281.784L576.042 408.632L560.741 438.015C560.63 438.215 560.572 438.441 560.574 438.671C560.576 438.9 560.636 439.125 560.749 439.324C560.863 439.523 561.026 439.69 561.222 439.808C561.418 439.926 561.641 439.991 561.87 439.998C582.585 441.879 603.242 445.037 623.692 448.813C658.726 455.277 695.769 463.24 727.15 480.782C740.03 487.981 754.158 498.221 757.151 513.662C757.222 513.91 757.364 514.132 757.56 514.301C757.756 514.469 757.997 514.576 758.253 514.609C758.509 514.642 758.769 514.599 759 514.485C759.232 514.372 759.426 514.193 759.557 513.97L797.701 435.429L858.98 309.375L873.034 280.448C873.782 278.978 871.567 277.597 870.775 279.125L832.631 357.681L771.352 483.735L757.298 512.648L759.704 512.956C754.085 483.882 714.87 470.513 690.752 462.579C656.863 451.443 621.389 444.949 586.092 440.204C578.052 439.131 569.954 438.103 561.914 437.368L563.059 439.352L626.436 317.544L668.981 236.152L682.052 211.089C682.918 209.428 683.886 206.093 685.309 204.859C685.588 204.61 685.602 203.904 685.91 203.713C685.412 204.007 691.881 205.094 690.502 204.874C695.08 205.623 699.804 205.873 704.425 206.343C739.781 210.427 774.316 215.158 807.119 229.482C821.851 236.044 835.621 244.585 848.05 254.869C852.349 258.337 857.073 261.363 861.254 265.007C865.875 269.062 868.369 274.38 870.672 279.992C871.303 281.593 873.856 280.918 873.196 279.346Z" fill="#F8F1EE"/>
<path opacity="0.42" d="M682.081 203.185C682.081 203.185 609.139 323.42 567.753 340.066C510.772 363.029 437.522 327.035 437.522 327.035C437.522 327.035 549.239 399.141 561.547 437.221L682.081 203.185Z" fill="#E0CFC8"/>
<path opacity="0.42" d="M693.07 201.128C693.07 201.128 641.341 331.883 653.019 374.988C669.157 434.342 741.982 471.115 741.982 471.115C741.982 471.115 617.149 425.409 579.49 438.514L693.07 201.128Z" fill="#E0CFC8"/>
<g opacity="0.46">
<path opacity="0.46" d="M517.11 123.204C519.567 123.027 522.036 123.195 524.446 123.703C525.634 123.865 526.764 124.232 527.923 124.496C529.081 124.761 530.167 125.216 531.297 125.584C532.426 125.951 533.497 126.45 534.568 126.935C535.639 127.42 536.725 127.934 537.752 128.566C539.927 129.752 541.926 131.236 543.693 132.973L543.591 133.267C539.102 131.798 534.686 130.123 530.226 128.551C525.766 126.979 521.423 125.29 517.022 123.541L517.11 123.204Z" fill="#659FEB"/>
<path opacity="0.46" d="M557.983 141.627L561.621 143.096L565.215 144.565L572.316 147.782L579.284 151.323C581.558 152.572 583.818 153.879 586.092 155.143C588.365 156.406 590.566 157.832 592.767 159.213L599.31 163.517L605.662 168.072L611.897 172.802L617.927 177.797C619.878 179.516 621.873 181.206 623.795 182.954L629.473 188.346C631.336 190.168 633.14 192.048 634.959 193.914C636.778 195.78 638.495 197.734 640.226 199.688L645.273 205.653L650.026 211.853C651.566 213.939 653.063 216.069 654.53 218.214L654.281 218.42C627.669 186.616 594.856 160.585 557.851 141.921L557.983 141.627Z" fill="#659FEB"/>
<path opacity="0.46" d="M500.474 152.44H503.643L506.811 152.557L513.164 153.116L519.458 154.1C521.541 154.526 523.609 155.025 525.693 155.481C527.776 155.936 529.815 156.597 531.854 157.214L537.913 159.271C539.908 160.05 541.874 160.887 543.781 161.695L549.65 164.384L555.283 167.44C557.102 168.542 558.951 169.614 560.77 170.76L566.037 174.389C567.753 175.652 569.426 176.975 571.098 178.297C572.771 179.619 574.355 181.059 575.939 182.469L580.502 186.877L584.742 191.637C586.092 193.268 587.397 194.942 588.659 196.632L588.424 196.852C565.07 172.37 533.962 156.752 500.4 152.66L500.474 152.44Z" fill="#659FEB"/>
<path opacity="0.46" d="M604.254 214.042C607.586 215.42 610.775 217.123 613.775 219.125C615.242 220.05 616.709 221.123 618.176 222.063C619.643 223.003 620.978 224.208 622.372 225.295C623.766 226.382 625.071 227.572 626.392 228.762C627.712 229.953 629.003 231.143 630.221 232.45C632.79 234.979 635.104 237.754 637.131 240.736L636.94 240.971L620.406 227.749L604.078 214.247L604.254 214.042Z" fill="#659FEB"/>
<path opacity="0.46" d="M477.514 215.672C480.977 216.598 484.483 217.465 487.901 218.611L493.065 220.241C494.782 220.785 496.469 221.402 498.185 221.99C504.963 224.443 511.623 227.249 518.225 230.188C531.381 236.206 544.021 243.296 556.017 251.388C568.039 259.466 579.365 268.538 589.877 278.508C595.143 283.459 600.146 288.66 605.061 293.934C607.452 296.623 609.829 299.341 612.191 302.059C614.553 304.777 616.871 307.509 619.144 310.301L618.924 310.521C608.963 300.237 599.016 289.806 588.263 280.301C577.556 270.752 566.203 261.955 554.286 253.973C542.4 245.933 529.985 238.708 517.125 232.347C504.265 226.011 490.997 220.539 477.412 215.966L477.514 215.672Z" fill="#659FEB"/>
<path opacity="0.46" d="M467.89 241.912C472.131 242.437 476.303 243.422 480.331 244.85C482.37 245.482 484.307 246.319 486.287 247.098C488.268 247.876 490.131 248.861 492.038 249.772C493.945 250.682 495.779 251.77 497.598 252.842C499.418 253.915 501.207 255.061 502.909 256.324C506.435 258.744 509.687 261.542 512.606 264.669L512.43 264.933C498.281 255.998 483.331 248.404 467.773 242.25L467.89 241.912Z" fill="#659FEB"/>
<path opacity="0.46" d="M531.766 280.771L534.011 282.078L536.211 283.445L540.613 286.163C543.473 288.043 546.32 289.953 549.107 291.936C551.894 293.92 554.623 295.962 557.381 297.975L565.494 304.248C568.12 306.422 570.79 308.553 573.401 310.756C576.013 312.96 578.624 315.164 581.148 317.47C583.671 319.777 586.209 322.098 588.688 324.464C591.168 326.829 593.588 329.253 595.891 331.809L595.627 332.03L563.484 306.613L531.517 280.962L531.766 280.771Z" fill="#659FEB"/>
<path opacity="0.46" d="M486.625 318.278C489.604 317.999 492.608 318.375 495.427 319.38C496.815 319.842 498.172 320.392 499.491 321.026C500.782 321.687 502.029 322.495 503.261 323.171C504.494 323.846 505.638 324.831 506.753 325.742C507.853 326.667 508.906 327.648 509.907 328.68C511.979 330.751 513.711 333.136 515.042 335.747L514.822 335.967C510.675 332.254 506.262 328.851 501.618 325.786C499.296 324.245 496.881 322.852 494.386 321.613C491.896 320.37 489.298 319.357 486.625 318.587V318.278Z" fill="#659FEB"/>
<path opacity="0.46" d="M524.504 345.546C528.275 347.749 531.862 350.255 535.229 353.039C536.945 354.361 538.529 355.83 540.173 357.226C541.816 358.621 543.341 360.164 544.911 361.633C546.481 363.102 547.977 364.674 549.459 366.232C550.941 367.789 552.393 369.376 553.86 371.05C556.756 374.321 559.386 377.819 561.724 381.511L561.503 381.746L542.813 363.852L524.358 345.766L524.504 345.546Z" fill="#659FEB"/>
<path opacity="0.46" d="M699.789 235.153C702.562 234.514 705.413 234.276 708.254 234.448C709.648 234.448 711.012 234.698 712.391 234.845C713.77 234.992 715.12 235.344 716.469 235.624C717.819 235.903 719.154 236.343 720.46 236.784C721.775 237.207 723.068 237.697 724.333 238.253C726.943 239.366 729.379 240.85 731.565 242.661L731.463 242.955C726.269 241.324 721.061 239.767 715.751 238.547C710.44 237.328 705.114 236.255 699.745 235.359L699.789 235.153Z" fill="#659FEB"/>
<path opacity="0.46" d="M750.828 248.919C754.995 249.345 759.073 250.212 763.181 250.991L769.269 252.46C771.294 253.018 773.289 253.65 775.299 254.238C777.309 254.825 779.274 255.545 781.167 256.251L787.035 258.498C788.972 259.306 790.879 260.173 792.801 261.011L798.493 263.684L804.038 266.623C805.858 267.666 807.706 268.665 809.511 269.737L814.821 273.087C816.567 274.248 818.298 275.438 820 276.642C821.702 277.847 823.389 279.111 825.047 280.389L829.903 284.356C832.998 287.176 836.138 289.924 838.984 292.994L838.793 293.244C812.913 272.404 782.864 257.374 750.681 249.169L750.828 248.919Z" fill="#659FEB"/>
<path opacity="0.46" d="M685.808 266.946C691.407 266.302 697.064 266.356 702.65 267.108C705.452 267.416 708.21 267.989 710.983 268.577C712.347 268.885 713.711 269.267 715.076 269.62L719.14 270.795L723.115 272.264C724.436 272.779 725.756 273.263 727.047 273.822C729.614 274.997 732.182 276.143 734.646 277.539C739.617 280.199 744.239 283.466 748.407 287.264L748.246 287.529C729.261 276.054 707.879 269.14 685.779 267.328L685.808 266.946Z" fill="#659FEB"/>
<path opacity="0.46" d="M770.53 295.83C776.119 297.202 781.589 299.02 786.888 301.265C789.558 302.323 792.14 303.572 794.752 304.747C797.363 305.923 799.857 307.318 802.41 308.641C804.963 309.963 807.398 311.461 809.818 312.931C812.239 314.4 814.689 315.942 817.036 317.603C821.814 320.812 826.332 324.393 830.548 328.313L830.372 328.577C820.768 322.495 810.943 316.765 800.899 311.388C790.854 306.011 780.678 300.918 770.369 296.109L770.53 295.83Z" fill="#659FEB"/>
<path opacity="0.46" d="M666.296 304.233C669.134 304.146 671.972 304.407 674.746 305.012C676.125 305.232 677.431 305.644 678.78 305.952C680.13 306.261 681.392 306.775 682.712 307.186C684.033 307.598 685.28 308.156 686.541 308.655C687.803 309.155 689.065 309.742 690.282 310.433C692.824 311.699 695.203 313.267 697.368 315.105L697.265 315.399C692.043 313.694 686.879 311.858 681.671 310.08C676.463 308.303 671.401 306.422 666.193 304.483L666.296 304.233Z" fill="#659FEB"/>
<path opacity="0.46" d="M708.943 320.747C710.289 320.524 711.662 320.524 713.007 320.747C714.138 320.929 715.241 321.249 716.293 321.701C717.333 322.167 718.318 322.749 719.228 323.435C720.314 324.256 721.261 325.248 722.03 326.373L721.956 326.667C719.584 326.218 717.267 325.514 715.046 324.566C712.828 323.603 710.718 322.407 708.753 320.996L708.943 320.747Z" fill="#659FEB"/>
<path opacity="0.46" d="M637.351 356.594L642.192 357.182L647.004 357.872L656.599 359.562L666.105 361.736L675.553 364.204C678.678 365.115 681.788 366.041 684.898 367.04L694.126 370.242L703.222 373.813L712.2 377.676C724.077 383.057 735.533 389.323 746.471 396.423L754.54 401.903L762.447 407.633L770.032 413.759C772.516 415.845 774.961 417.985 777.367 420.179L777.177 420.414C736.105 388.664 688.219 366.92 637.307 356.903L637.351 356.594Z" fill="#659FEB"/>
<path opacity="0.46" d="M676.067 396.775C679.172 395.59 682.563 395.375 685.793 396.158C687.382 396.474 688.943 396.921 690.458 397.495C691.926 398.068 693.393 398.759 694.86 399.449C696.327 400.14 697.588 401.021 698.894 401.888C700.2 402.755 701.476 403.68 702.65 404.724C705.105 406.713 707.316 408.986 709.237 411.496L709.061 411.761C703.911 408.426 698.791 405.017 693.407 402.211C690.732 400.743 687.94 399.499 685.06 398.494C682.2 397.454 679.166 396.98 676.125 397.099L676.067 396.775Z" fill="#659FEB"/>
<path opacity="0.46" d="M723.643 418.519C727.552 419.504 731.366 420.832 735.042 422.486C736.906 423.235 738.666 424.161 740.471 424.983C742.275 425.806 743.977 426.835 745.737 427.76C747.498 428.686 749.185 429.743 750.872 430.698C752.559 431.653 754.246 432.799 755.86 433.975C759.21 436.228 762.361 438.764 765.279 441.555L765.132 441.835L744.226 430.463L723.482 418.71L723.643 418.519Z" fill="#659FEB"/>
</g>
<path d="M281.793 142.978C276.923 209.737 381.686 247.01 381.686 247.01L405.159 253.283C425.947 266.167 436.524 267.886 436.524 267.886L422.822 259.644L443.889 266.241C444.461 266.417 443.097 264.889 442.569 264.61L426.431 255.957L448.085 261.393C448.181 261.407 448.279 261.387 448.362 261.338C448.446 261.289 448.51 261.212 448.544 261.121C448.578 261.031 448.581 260.931 448.55 260.838C448.52 260.746 448.46 260.667 448.378 260.614L428.089 250.33C428.089 250.33 448.906 255.119 447.161 253.268C445.415 251.417 424.935 243.322 424.935 243.322C424.935 243.322 431.639 233.39 431.038 232.509C430.055 231.04 422.881 235.3 415.531 236.461C410.91 237.181 376.052 222.342 376.052 222.342C349.381 210.354 314.846 180.339 318.837 137.352C318.837 137.352 317.194 123.086 299.97 121.646C282.747 120.207 281.793 142.978 281.793 142.978Z" fill="#FFA47A" stroke="#FFA47A" stroke-width="1.48" stroke-linecap="round" stroke-linejoin="round"/>
<path d="M340.813 195.604C327.346 180.633 323.429 164.149 318.925 137.381C318.925 137.381 317.282 123.115 300.058 121.676C282.835 120.236 281.793 142.978 281.793 142.978C280.15 165.442 281.163 178.87 296.185 194.399L340.813 195.604Z" fill="#FA7269" stroke="#FA7269" stroke-width="0.6" stroke-miterlimit="10"/>
<path d="M342.163 196.573L309.11 204.478C306.018 201.831 303.201 198.878 300.704 195.663L342.163 196.573Z" fill="#CF5540"/>
<path d="M523.301 419.709C509.907 457.246 484.072 480.914 447.014 478.314C417.218 476.227 389.593 462.638 362.863 449.298C353.694 444.729 344.32 439.998 337.424 432.417C327.302 421.237 324.045 405.62 321.184 390.811C318.323 376.002 315.477 361.281 312.616 346.516C310.445 335.262 308.112 323.641 301.525 314.194C294.938 304.747 282.835 298.298 271.935 301.794C261.034 305.291 255.401 321.51 264.071 329.091C282.204 318.19 281.001 291.54 274.854 271.265C264.533 237.329 247.019 206.023 223.507 179.487C207.369 161.358 186.684 144.815 162.477 143.728C131.155 142.259 104.807 166.867 86.7914 192.562C68.1157 219.184 53.6944 249.86 51.6846 282.299C50.6723 298.636 53.8412 316.985 66.8687 326.858C79.8962 336.731 103.897 330.09 104.455 313.739" stroke="#FA7269" stroke-width="2.12" stroke-linecap="round" stroke-linejoin="round" stroke-dasharray="9.09 9.09"/>
<g style="mix-blend-mode:lighten">
<path d="M838.837 288.028C847.639 291.687 857.982 289.733 866.08 284.767C874.179 279.801 880.282 272.162 885.402 264.199C892.561 252.945 898.224 239.561 895.407 226.53C893.94 219.683 890.243 213.542 886.179 207.857C881.302 200.592 875.183 194.246 868.105 189.11C860.932 184.205 852.611 181.248 843.956 180.526C835.3 179.804 826.606 181.342 818.722 184.991C810.837 188.64 804.033 194.274 798.973 201.344C793.913 208.413 790.77 216.676 789.852 225.325" stroke="#F8F1EE" stroke-width="2.12" stroke-linecap="round" stroke-linejoin="round" stroke-dasharray="7.33 7.33"/>
</g>
<path d="M958.344 379.337C958.114 380.543 957.532 381.655 956.671 382.53C955.811 383.406 954.71 384.006 953.509 384.256C952.307 384.505 951.059 384.393 949.922 383.932C948.785 383.472 947.809 382.684 947.119 381.668C946.428 380.653 946.054 379.455 946.043 378.226C946.032 376.998 946.385 375.794 947.057 374.766C947.729 373.738 948.691 372.933 949.82 372.452C950.948 371.971 952.194 371.836 953.4 372.064C955.016 372.378 956.442 373.318 957.368 374.68C958.294 376.043 958.645 377.716 958.344 379.337Z" fill="#659FEB"/>
<path d="M888.072 363.778C892.641 363.778 896.346 360.068 896.346 355.492C896.346 350.916 892.641 347.206 888.072 347.206C883.502 347.206 879.797 350.916 879.797 355.492C879.797 360.068 883.502 363.778 888.072 363.778Z" stroke="#659FEB" stroke-width="1.06" stroke-miterlimit="10"/>
<path d="M611.765 89.6187C611.48 91.1294 610.754 92.5213 609.678 93.6185C608.603 94.7157 607.227 95.4689 605.724 95.7827C604.221 96.0965 602.659 95.9568 601.235 95.3814C599.811 94.806 598.59 93.8206 597.726 92.55C596.861 91.2794 596.393 89.7806 596.379 88.2432C596.366 86.7059 596.808 85.199 597.649 83.9133C598.491 82.6275 599.695 81.6207 601.108 81.0201C602.521 80.4195 604.081 80.2522 605.589 80.5393C606.59 80.728 607.545 81.1127 608.398 81.6715C609.251 82.2302 609.985 82.952 610.559 83.7954C611.132 84.6389 611.534 85.5874 611.741 86.5867C611.948 87.5859 611.957 88.6163 611.765 89.6187Z" fill="#FA7269"/>
<path d="M561.621 478.27C561.317 479.88 560.544 481.363 559.398 482.533C558.252 483.703 556.786 484.507 555.185 484.842C553.583 485.177 551.918 485.03 550.4 484.418C548.883 483.806 547.58 482.757 546.657 481.404C545.735 480.051 545.233 478.454 545.217 476.816C545.2 475.177 545.669 473.571 546.564 472.199C547.459 470.827 548.74 469.752 550.245 469.11C551.75 468.467 553.411 468.285 555.019 468.588C556.088 468.789 557.106 469.199 558.016 469.795C558.927 470.39 559.711 471.16 560.324 472.059C560.937 472.958 561.367 473.969 561.59 475.035C561.812 476.101 561.823 477.2 561.621 478.27V478.27Z" stroke="#FA7269" stroke-width="1.06" stroke-miterlimit="10"/>
<path d="M352.271 287.338C351.909 289.251 350.99 291.013 349.628 292.402C348.266 293.791 346.524 294.745 344.621 295.143C342.718 295.54 340.74 295.364 338.938 294.636C337.135 293.908 335.588 292.661 334.493 291.053C333.397 289.445 332.803 287.547 332.784 285.601C332.766 283.654 333.324 281.746 334.388 280.117C335.453 278.488 336.975 277.212 338.764 276.45C340.553 275.687 342.527 275.473 344.437 275.834C345.707 276.073 346.917 276.559 347.998 277.267C349.08 277.974 350.011 278.889 350.739 279.957C351.467 281.026 351.977 282.228 352.24 283.495C352.503 284.761 352.513 286.067 352.271 287.338Z" fill="#659FEB" stroke="#659FEB" stroke-width="1.06" stroke-linecap="round" stroke-linejoin="round" stroke-dasharray="9.09 9.09"/>
<path d="M171.059 412.158C174.632 412.158 177.529 409.257 177.529 405.679C177.529 402.1 174.632 399.2 171.059 399.2C167.486 399.2 164.59 402.1 164.59 405.679C164.59 409.257 167.486 412.158 171.059 412.158Z" fill="#FA7269"/>
<path d="M25.8495 354.963C30.0547 354.963 33.4636 351.549 33.4636 347.338C33.4636 343.127 30.0547 339.713 25.8495 339.713C21.6444 339.713 18.2355 343.127 18.2355 347.338C18.2355 351.549 21.6444 354.963 25.8495 354.963Z" stroke="#659FEB" stroke-width="0.95" stroke-miterlimit="10"/>
</g>
<defs>
<clipPath id="clip0">
<rect width="973" height="574" fill="white"/>
</clipPath>
</defs>
</svg>
