<svg width="178" height="40" viewBox="0 0 178 40" fill="none" xmlns="http://www.w3.org/2000/svg">
<path d="M57 8.68632H66.0194C67.9074 8.68632 69.3132 9.12579 70.2367 10.0047C71.1807 10.8836 71.6527 12.2123 71.6527 13.9906C71.6527 15.4827 71.3859 16.6171 70.8523 17.3939C70.3187 18.1706 69.4876 18.6918 68.3589 18.9575V19.0802C69.5902 19.3664 70.4727 19.8876 71.0062 20.6439C71.5603 21.4002 71.8374 22.5755 71.8374 24.1698C71.8374 26.0094 71.3859 27.4096 70.4829 28.3703C69.58 29.3105 68.0921 29.7807 66.0194 29.7807H57V8.68632ZM64.4803 17.1792C65.137 17.1792 65.6295 17.1179 65.9578 16.9953C66.2862 16.8726 66.5119 16.658 66.6351 16.3514C66.7582 16.0244 66.8198 15.544 66.8198 14.9104C66.8198 14.2358 66.7582 13.7453 66.6351 13.4387C66.5324 13.1321 66.317 12.9277 65.9886 12.8255C65.6808 12.7028 65.178 12.6415 64.4803 12.6415H61.7406V17.1792H64.4803ZM64.6034 25.8255C65.3011 25.8255 65.8039 25.7642 66.1117 25.6415C66.4401 25.5189 66.6658 25.3042 66.789 24.9976C66.9121 24.6706 66.9737 24.1596 66.9737 23.4646C66.9737 22.7697 66.9121 22.2586 66.789 21.9316C66.6658 21.6046 66.4401 21.3797 66.1117 21.2571C65.7834 21.1344 65.2806 21.0731 64.6034 21.0731H61.7406V25.8255H64.6034Z" fill="black"/>
<path d="M80.9457 30.0259C78.873 30.0259 77.3749 29.8011 76.4514 29.3514C75.5485 28.9017 74.9739 28.1557 74.7276 27.1132C74.4813 26.0503 74.3582 24.3333 74.3582 21.9623C74.3582 19.5912 74.4813 17.8844 74.7276 16.842C74.9739 15.7791 75.5485 15.0228 76.4514 14.5731C77.3749 14.1234 78.873 13.8986 80.9457 13.8986C83.0185 13.8986 84.5063 14.1234 85.4093 14.5731C86.3122 15.0228 86.8869 15.7791 87.1331 16.842C87.3999 17.8844 87.5333 19.5912 87.5333 21.9623C87.5333 24.3129 87.3999 26.0197 87.1331 27.0825C86.8869 28.125 86.3122 28.8813 85.4093 29.3514C84.5063 29.8011 83.0185 30.0259 80.9457 30.0259ZM80.9457 26.5C81.6845 26.5 82.1873 26.408 82.4541 26.2241C82.7209 26.0401 82.8851 25.6722 82.9466 25.1203C83.0287 24.5684 83.0698 23.5157 83.0698 21.9623C83.0698 20.4088 83.0287 19.3561 82.9466 18.8042C82.8851 18.2319 82.7209 17.864 82.4541 17.7005C82.1873 17.5165 81.6845 17.4245 80.9457 17.4245C80.207 17.4245 79.6939 17.5165 79.4066 17.7005C79.1398 17.864 78.9756 18.2217 78.9141 18.7736C78.8525 19.3255 78.8217 20.3884 78.8217 21.9623C78.8217 23.5362 78.8525 24.5991 78.9141 25.1509C78.9756 25.6824 79.1398 26.0401 79.4066 26.2241C79.6939 26.408 80.207 26.5 80.9457 26.5Z" fill="black"/>
<path d="M96.5476 30.0259C94.4749 30.0259 92.9768 29.8011 92.0533 29.3514C91.1504 28.9017 90.5758 28.1557 90.3295 27.1132C90.0832 26.0503 89.9601 24.3333 89.9601 21.9623C89.9601 19.5912 90.0832 17.8844 90.3295 16.842C90.5758 15.7791 91.1504 15.0228 92.0533 14.5731C92.9768 14.1234 94.4749 13.8986 96.5476 13.8986C98.6204 13.8986 100.108 14.1234 101.011 14.5731C101.914 15.0228 102.489 15.7791 102.735 16.842C103.002 17.8844 103.135 19.5912 103.135 21.9623C103.135 24.3129 103.002 26.0197 102.735 27.0825C102.489 28.125 101.914 28.8813 101.011 29.3514C100.108 29.8011 98.6204 30.0259 96.5476 30.0259ZM96.5476 26.5C97.2864 26.5 97.7892 26.408 98.056 26.2241C98.3228 26.0401 98.487 25.6722 98.5485 25.1203C98.6306 24.5684 98.6717 23.5157 98.6717 21.9623C98.6717 20.4088 98.6306 19.3561 98.5485 18.8042C98.487 18.2319 98.3228 17.864 98.056 17.7005C97.7892 17.5165 97.2864 17.4245 96.5476 17.4245C95.8089 17.4245 95.2958 17.5165 95.0085 17.7005C94.7417 17.864 94.5775 18.2217 94.516 18.7736C94.4544 19.3255 94.4236 20.3884 94.4236 21.9623C94.4236 23.5362 94.4544 24.5991 94.516 25.1509C94.5775 25.6824 94.7417 26.0401 95.0085 26.2241C95.2958 26.408 95.8089 26.5 96.5476 26.5Z" fill="black"/>
<path d="M114.643 29.7807L111.38 23.7406H110.456V29.7807H105.993V7H110.456V20.2453H111.38L114.766 14.1439H119.445L115.043 21.625L119.507 29.7807H114.643Z" fill="black"/>
<path d="M140.498 14.8184C140.498 15.4725 140.303 16.0653 139.913 16.5967C139.523 17.1281 139.02 17.3939 138.405 17.3939C137.974 17.3939 137.594 17.261 137.266 16.9953C136.937 16.7296 136.773 16.3719 136.773 15.9222C136.773 15.5747 136.865 15.2987 137.05 15.0943C137.255 14.8695 137.522 14.7571 137.85 14.7571C138.117 14.7571 138.343 14.8491 138.528 15.033C138.733 15.1965 138.856 15.2783 138.897 15.2783C139.123 15.2783 139.266 15.2374 139.328 15.1557C139.41 15.0535 139.451 14.9002 139.451 14.6958V14.3585C139.451 13.4182 139 12.6313 138.097 11.9976C137.194 11.3436 135.952 11.0165 134.372 11.0165C132.853 11.0165 131.55 11.364 130.463 12.059C129.252 12.8357 128.646 13.8577 128.646 15.125C128.646 16.2901 129.467 17.4143 131.109 18.4976C132.628 19.4379 134.146 20.3679 135.665 21.2877C137.327 22.5346 138.158 23.9245 138.158 25.4575C138.158 27.706 137.112 29.5456 135.018 30.9764C133.048 32.3255 130.709 33 128 33C125.907 33 124.142 32.6014 122.705 31.8042C121.002 30.864 120.15 29.5354 120.15 27.8184C120.15 26.1219 120.961 24.7217 122.582 23.6179C124.08 22.5959 125.855 22.0849 127.908 22.0849C129.18 22.0849 130.298 22.3302 131.263 22.8208C132.453 23.434 133.048 24.2618 133.048 25.3042C133.048 26.3671 132.576 27.2869 131.632 28.0637C130.688 28.8404 129.56 29.2288 128.246 29.2288C127.61 29.2288 127.097 29.1368 126.707 28.9528C126.338 28.7689 125.896 28.4214 125.383 27.9104C125.322 27.8286 125.332 27.7162 125.414 27.5731C125.517 27.43 125.609 27.4096 125.691 27.5118C126.368 28.3294 127.179 28.7382 128.123 28.7382C129.108 28.7382 129.939 28.4214 130.616 27.7877C131.294 27.1541 131.632 26.3978 131.632 25.5189C131.632 24.8239 131.355 24.1903 130.801 23.6179C130.083 22.8821 129.088 22.5141 127.815 22.5141C126.194 22.5141 124.788 22.9638 123.598 23.8632C122.305 24.8443 121.659 26.081 121.659 27.5731C121.659 28.7995 122.192 29.8829 123.259 30.8231C124.552 31.9473 126.297 32.5094 128.492 32.5094C130.504 32.5094 132.289 31.9678 133.849 30.8844C135.552 29.6989 136.404 28.217 136.404 26.4387C136.404 24.8852 135.572 23.5566 133.91 22.4528C132.351 21.5943 130.801 20.7358 129.262 19.8774C127.6 18.7736 126.769 17.4552 126.769 15.9222C126.769 14.4914 127.456 13.2547 128.831 12.2123C130.309 11.0881 132.186 10.5259 134.464 10.5259C136.106 10.5259 137.481 10.8734 138.589 11.5684C139.862 12.3656 140.498 13.4489 140.498 14.8184Z" fill="black"/>
<path d="M140.592 29.7807H138.684L144.656 15.0637C145.23 13.3876 146.236 12.0181 147.672 10.9552C149.129 9.8923 150.792 9.36085 152.659 9.36085C153.275 9.36085 153.808 9.47327 154.26 9.69811C154.711 9.92296 154.937 10.2704 154.937 10.7406C154.937 11.0472 154.824 11.3027 154.598 11.5071C154.393 11.691 154.096 11.783 153.706 11.783C153.418 11.783 153.162 11.7013 152.936 11.5377C152.731 11.3538 152.628 11.1187 152.628 10.8325C152.628 10.7099 152.669 10.6077 152.752 10.5259C152.936 10.3215 153.029 10.1887 153.029 10.1274C153.029 10.0252 152.926 9.9434 152.721 9.88207C152.516 9.82075 152.3 9.7901 152.074 9.7901C151.048 9.7901 150.053 10.2296 149.088 11.1085C148.124 11.967 147.282 13.2854 146.564 15.0637L142.87 23.9245C143.712 22.5959 144.44 21.5637 145.056 20.8278C145.938 19.7854 146.656 19.2641 147.211 19.2641C147.642 19.2641 147.96 19.5197 148.165 20.0307C148.391 20.5212 148.503 21.1242 148.503 21.8396C148.503 22.7799 148.257 23.7406 147.765 24.7217C147.128 25.7028 146.503 26.684 145.887 27.6651C145.805 27.8491 145.754 28.033 145.733 28.217C145.712 28.4009 145.702 28.5645 145.702 28.7075C145.702 29.3412 145.897 29.658 146.287 29.658C146.882 29.658 147.447 29.2288 147.98 28.3703C148.288 27.8797 148.565 27.2665 148.811 26.5307C148.873 26.3876 148.955 26.316 149.058 26.316C149.222 26.316 149.283 26.3978 149.242 26.5613C149.058 27.2972 148.77 27.9819 148.38 28.6156C147.765 29.5967 147.067 30.0873 146.287 30.0873C145.795 30.0873 145.425 29.8624 145.179 29.4127C144.933 28.9426 144.81 28.3601 144.81 27.6651C144.81 26.7453 145.261 25.3656 146.164 23.5259C147.067 21.6863 147.518 20.5621 147.518 20.1533C147.518 19.8467 147.395 19.6934 147.149 19.6934C146.78 19.6934 146.164 20.2351 145.302 21.3184C144.44 22.4017 143.527 23.7303 142.562 25.3042L140.592 29.7807Z" fill="black"/>
<path d="M157.911 20.7358L158.465 19.4788H160.374L156.834 28.7075C156.834 29.3412 157.029 29.658 157.418 29.658C158.014 29.658 158.578 29.2288 159.112 28.3703C159.419 27.8797 159.696 27.2665 159.943 26.5307C160.004 26.3876 160.086 26.316 160.189 26.316C160.353 26.316 160.415 26.3978 160.374 26.5613C160.189 27.2972 159.902 27.9819 159.512 28.6156C158.896 29.5967 158.198 30.0873 157.418 30.0873C156.926 30.0873 156.557 29.8624 156.31 29.4127C156.064 28.9426 155.941 28.3601 155.941 27.6651C155.941 27.4811 155.961 27.1847 156.002 26.7759C156.064 26.3671 156.177 25.897 156.341 25.3656C155.171 27.103 154.556 28.0024 154.494 28.0637C153.427 29.4127 152.514 30.0873 151.754 30.0873C151.221 30.0873 150.8 29.8318 150.492 29.3208C150.205 28.8097 150.061 28.1965 150.061 27.4811C150.061 25.805 150.821 24.0165 152.339 22.1156C153.858 20.2146 155.274 19.2641 156.587 19.2641C157.059 19.2641 157.398 19.4072 157.603 19.6934C157.808 19.9796 157.911 20.327 157.911 20.7358ZM157.418 21.0425C157.418 20.5519 157.347 20.2044 157.203 20C157.08 19.7956 156.916 19.6934 156.71 19.6934C156.403 19.6934 156.064 19.9285 155.695 20.3986C155.264 20.9505 154.463 22.2586 153.294 24.3231C152.904 25.0385 152.483 25.9277 152.031 26.9906C151.58 28.033 151.354 28.6973 151.354 28.9835C151.354 29.1061 151.395 29.2492 151.477 29.4127C151.58 29.5763 151.693 29.658 151.816 29.658C152.165 29.658 152.668 29.3105 153.324 28.6156C154.063 27.8184 154.781 26.8884 155.479 25.8255C156.054 24.8648 156.536 23.8836 156.926 22.8821C157.254 22.0236 157.418 21.4104 157.418 21.0425Z" fill="black"/>
<path d="M161.214 29.7807L163.431 23.8939C163.492 23.7303 163.656 23.2602 163.923 22.4835C164.354 21.2162 164.57 20.5212 164.57 20.3986C164.57 19.9285 164.446 19.6934 164.2 19.6934C163.81 19.6934 163.338 20.1431 162.784 21.0425C162.23 21.9418 161.902 22.6572 161.799 23.1887L161.584 23.2807C161.399 23.2807 161.327 23.2193 161.368 23.0967C161.471 22.4222 161.789 21.6557 162.322 20.7972C162.959 19.7752 163.574 19.2641 164.169 19.2641C165.134 19.2641 165.616 19.7752 165.616 20.7972C165.616 21.2877 165.575 21.7783 165.493 22.2689C165.431 22.7594 165.308 23.3011 165.124 23.8939C165.862 22.136 166.499 20.93 167.032 20.2759C167.566 19.6014 168.202 19.2641 168.941 19.2641C169.331 19.2641 169.597 19.3664 169.741 19.5708C169.885 19.7547 169.957 19.9898 169.957 20.2759C169.957 20.6847 169.823 21.0936 169.556 21.5024C169.29 21.8907 168.951 22.0849 168.541 22.0849C168.253 22.0849 168.068 22.0134 167.986 21.8703C167.904 21.7068 167.863 21.4819 167.863 21.1958C167.74 21.1344 167.658 21.1038 167.617 21.1038C167.473 21.1038 167.094 21.5841 166.478 22.5448C165.801 23.6077 165.308 24.5377 165 25.3349L163.123 29.7807H161.214Z" fill="black"/>
<path d="M178 20.8585C178 22.1258 177.477 23.0865 176.43 23.7406C175.589 24.272 174.593 24.5377 173.444 24.5377L172.582 24.4764C172.213 25.2531 171.915 25.9583 171.69 26.592C171.484 27.2256 171.382 27.706 171.382 28.033C171.382 29.0346 171.884 29.5354 172.89 29.5354C173.67 29.5354 174.378 29.1368 175.014 28.3396C175.26 28.0126 175.568 27.5322 175.938 26.8986C176.225 26.3671 176.41 26.0299 176.492 25.8868C176.512 25.8255 176.584 25.8153 176.707 25.8561C176.83 25.897 176.882 25.9583 176.861 26.0401C176.615 26.5715 176.348 27.0723 176.061 27.5425C175.794 28.0126 175.517 28.4316 175.23 28.7995C174.573 29.658 173.742 30.0873 172.736 30.0873C171.833 30.0873 171.115 29.8011 170.581 29.2288C170.068 28.636 169.812 27.8797 169.812 26.9599C169.812 25.1816 170.499 23.4544 171.874 21.7783C173.249 20.1022 174.696 19.2641 176.215 19.2641C177.405 19.2641 178 19.7956 178 20.8585ZM176.369 20.3679C176.369 19.9182 176.215 19.6934 175.907 19.6934C175.394 19.6934 174.778 20.2964 174.06 21.5024C173.896 21.7681 173.475 22.6061 172.798 24.0165L173.321 24.0472C174.388 24.0472 175.199 23.5566 175.753 22.5755C176.163 21.8601 176.369 21.1242 176.369 20.3679Z" fill="black"/>
<g clip-path="url(#clip0)">
<path d="M32.2275 22.8307L26.9228 19.1781C26.8077 19.0978 26.6574 19.0875 26.5328 19.1506C26.4074 19.213 26.329 19.3382 26.329 19.4752V21.3111C22.5705 21.5016 19.573 24.5375 19.573 28.2414V29.7025C19.573 29.8847 19.7108 30.0388 19.8963 30.0642C20.0773 30.0899 20.2572 29.9807 20.309 29.8031L20.3669 29.6058C21.1366 26.9848 23.5565 25.12 26.329 24.9644V26.7804C26.329 26.9174 26.4074 27.0426 26.5328 27.105C26.6574 27.1681 26.8077 27.1571 26.9228 27.0775L32.2275 23.4249C32.3257 23.3564 32.3844 23.2458 32.3844 23.1278C32.3844 23.0097 32.3257 22.8991 32.2275 22.8307Z" fill="url(#paint0_linear)"/>
</g>
<path d="M0 38.7879C0 37.7489 11.5325 36.8899 19.395 39.8268C13.9912 35.7129 10.4355 34.44 2.66904 34.9784V9.17749H0V38.7879Z" fill="#FA7269"/>
<path d="M4.62625 33.7662C4.62632 33.0736 13.701 33.0736 20.9964 38.961C16.726 34.4589 14.0569 31.1688 7.29529 30.4762V4.15582H4.62625C4.62625 4.15582 4.62618 34.4589 4.62625 33.7662Z" fill="#FA7269"/>
<path d="M9.25272 29.6104C9.25278 28.9177 17.9715 30.303 24.1993 40V35.4978C18.5498 30.6493 11.9217 26.1472 12.4555 20.6061C12.9893 15.0649 18.1303 12.5064 24.1993 15.5844L23.4875 11.7749C19.4058 3.89112 16.1594 1.57068 9.25272 0C9.25272 0 9.25265 30.303 9.25272 29.6104Z" fill="#FA7269"/>
<path d="M50 38.6147C50 37.5758 38.4675 36.7167 30.605 39.6537C36.0088 35.5397 39.5645 34.2669 47.331 34.8052V9.00433H50V38.6147Z" fill="#FA7269"/>
<path d="M45.1958 33.7662C45.1957 33.0736 36.121 33.0736 28.8256 38.961C33.096 34.4589 35.7651 31.1688 42.5267 30.4762V4.15582H45.1958C45.1958 4.15582 45.1958 34.4589 45.1958 33.7662Z" fill="#FA7269"/>
<path d="M40.9253 29.6104C40.9252 28.9177 32.2064 30.303 25.9787 40V35.4978C31.6282 30.6493 38.2563 26.1472 37.7225 20.6061C37.1886 15.0649 32.0477 12.5064 25.9787 15.5844L26.6904 11.7749C30.7722 3.89112 34.0185 1.57068 40.9253 0C40.9253 0 40.9253 30.303 40.9253 29.6104Z" fill="#FA7269"/>
<defs>
<linearGradient id="paint0_linear" x1="25.9787" y1="30.0679" x2="25.9787" y2="19.1096" gradientUnits="userSpaceOnUse">
<stop stop-color="#5558FF"/>
<stop offset="1" stop-color="#00C0FF"/>
</linearGradient>
<clipPath id="clip0">
<rect width="12.8114" height="12.4675" fill="white" transform="translate(19.573 18.355)"/>
</clipPath>
</defs>
</svg>
