<svg width="1389" height="843" viewBox="0 0 1389 843" fill="none" xmlns="http://www.w3.org/2000/svg">
<g clip-path="url(#clip0)">
<path d="M785.12 413.517H717.226V425.604H785.12V413.517Z" fill="#93B3F4"/>
<path d="M793.425 405.213H725.531V413.524H793.425V405.213Z" fill="#B7D3F3"/>
<path d="M786.746 396.901H721.651V405.213H786.746V396.901Z" fill="#93B3F4"/>
<path d="M788.328 390.552H729.538V396.901H788.328V390.552Z" fill="#BED2FA"/>
<path d="M795.655 382.248H727.762V390.559H795.655V382.248Z" fill="#B7D3F3"/>
<path d="M788.985 373.936H723.89V382.248H788.985V373.936Z" fill="#93B3F4"/>
<path d="M790.567 367.587H731.777V373.936H790.567V367.587Z" fill="#BED2FA"/>
<path d="M728.61 348.201L714.203 345.686L700.748 422.772L715.155 425.286L728.61 348.201Z" fill="#B7D3F3"/>
<path d="M698.975 268.938H684.351V330.461H698.975V268.938Z" fill="#93B3F4"/>
<path d="M716.338 263.566H701.714V330.454H716.338V263.566Z" fill="#AFCDFB"/>
<path d="M601.258 462.371H586.633V520.753H601.258V462.371Z" fill="#BED2FA"/>
<path d="M615.883 459.23H601.258V520.753H615.883V459.23Z" fill="#6D89CF"/>
<path d="M632.85 459.23H618.226V520.753H632.85V459.23Z" fill="#93B3F4"/>
<path d="M650.214 453.858H635.589V520.746H650.214V453.858Z" fill="#AFCDFB"/>
<path d="M860.094 508.965H792.201V521.052H860.094V508.965Z" fill="#93B3F4"/>
<path d="M868.392 500.653H800.498V508.965H868.392V500.653Z" fill="#B7D3F3"/>
<path d="M861.721 492.342H796.625V500.653H861.721V492.342Z" fill="#93B3F4"/>
<path d="M863.303 486H804.512V492.349H863.303V486Z" fill="#BED2FA"/>
<path d="M870.63 477.689H802.737V486H870.63V477.689Z" fill="#B7D3F3"/>
<path d="M863.959 469.377H798.864V477.689H863.959V469.377Z" fill="#93B3F4"/>
<path d="M865.534 463.028H806.744V469.377H865.534V463.028Z" fill="#BED2FA"/>
<path d="M768.667 450.822H757.094V520.776H768.667V450.822Z" fill="#C1D9F4"/>
<path d="M733.605 453.888H722.032V520.776H733.605V453.888Z" fill="#C1D9F4"/>
<path d="M719.614 448.375H704.99V520.776H719.614V448.375Z" fill="white"/>
<path d="M808.305 444.302L793.826 441.816L780.522 519.284L795.001 521.77L808.305 444.302Z" fill="#B7D3F3"/>
<path d="M700.482 462.401H685.858V520.783H700.482V462.401Z" fill="#BED2FA"/>
<path d="M683.821 459.26H669.196V520.783H683.821V459.26Z" fill="#93B3F4"/>
<path d="M80.2498 840.777L573.053 838.501H704.378H747.894H879.502L1480.75 838.359C1480.75 838.359 1618.29 681.791 1471.43 533.161C1319.13 379.062 1245.06 504.563 1198.25 287.65C1080.36 -258.351 -84.7715 59.4341 220.864 524.058C330.871 691.356 4.23827 602.436 80.2498 840.777Z" fill="#DDE8FD"/>
<path d="M951.462 838.546H275.886V254.814C275.9 242.422 280.83 230.54 289.593 221.777C298.357 213.014 310.239 208.085 322.633 208.072H912.229C922.63 208.083 932.602 212.22 939.958 219.575C947.313 226.929 951.45 236.901 951.462 247.301V838.546ZM286.527 827.921H940.836V247.301C940.828 239.717 937.812 232.446 932.449 227.083C927.085 221.72 919.813 218.704 912.229 218.696H322.633C313.059 218.71 303.881 222.52 297.112 229.291C290.343 236.062 286.536 245.241 286.527 254.814V827.921Z" fill="#BED2FA"/>
<path d="M946.149 330.461H281.199V342.279H946.149V330.461Z" fill="#BED2FA"/>
<path d="M946.149 425.604H281.199V437.422H946.149V425.604Z" fill="#BED2FA"/>
<path d="M946.149 520.746H281.199V532.564H946.149V520.746Z" fill="#BED2FA"/>
<path d="M946.149 616.239H281.199V628.057H946.149V616.239Z" fill="#BED2FA"/>
<path d="M426.246 616.239H442.848V554.454H426.246V616.239Z" fill="#BED2FA"/>
<path d="M407.979 616.246H422.365V549.09H407.979V616.246Z" fill="#BED2FA"/>
<path d="M385.591 615.094L399.871 616.842L408.033 550.183L393.753 548.435L385.591 615.094Z" fill="#93B3F4"/>
<path d="M890.202 616.239H906.804V554.454H890.202V616.239Z" fill="#BED2FA"/>
<path d="M871.943 616.246H886.329V549.09H871.943V616.246Z" fill="#BED2FA"/>
<path d="M849.441 615.193L863.72 616.939L871.87 550.279L857.591 548.533L849.441 615.193Z" fill="#93B3F4"/>
<path d="M304.599 616.239H372.492V604.152H304.599V616.239Z" fill="#6D89CF"/>
<path d="M296.301 604.159H364.195V595.848H296.301V604.159Z" fill="#BED2FA"/>
<path d="M302.972 595.848H368.067V587.536H302.972V595.848Z" fill="#93B3F4"/>
<path d="M301.39 587.536H360.18V581.187H301.39V587.536Z" fill="#BED2FA"/>
<path d="M630.5 616.239H698.393V604.152H630.5V616.239Z" fill="#93B3F4"/>
<path d="M622.188 604.159H690.089V595.848H622.188V604.159Z" fill="#BED2FA"/>
<path d="M628.866 595.848H693.961V587.536H628.866V595.848Z" fill="#93B3F4"/>
<path d="M627.291 587.536H686.082V581.187H627.291V587.536Z" fill="#BED2FA"/>
<path d="M619.957 581.195H687.85V572.883H619.957V581.195Z" fill="#BED2FA"/>
<path d="M626.628 572.883H691.723V564.571H626.628V572.883Z" fill="#93B3F4"/>
<path d="M625.053 564.572H683.843V558.222H625.053V564.572Z" fill="#BED2FA"/>
<path d="M579.597 615.978H591.17V549.09H579.597V615.978Z" fill="#C1D9F4"/>
<path d="M721.92 615.97H733.493V546.016H721.92V615.97Z" fill="#C1D9F4"/>
<path d="M756.982 615.978H768.555V549.09H756.982V615.978Z" fill="#C1D9F4"/>
<path d="M564.972 615.978H579.597V543.576H564.972V615.978Z" fill="white"/>
<path d="M770.972 615.978H785.597V543.576H770.972V615.978Z" fill="white"/>
<path d="M550.347 615.97H564.972V547.016H550.347V615.97Z" fill="#BED2FA"/>
<path d="M700.518 615.942L714.925 613.428L701.47 536.343L687.063 538.857L700.518 615.942Z" fill="#BED2FA"/>
<path d="M535.715 615.97H550.34V557.588H535.715V615.97Z" fill="#BED2FA"/>
<path d="M790.112 615.97H804.736V557.588H790.112V615.97Z" fill="#BED2FA"/>
<path d="M521.09 615.97H535.715V554.447H521.09V615.97Z" fill="#6D89CF"/>
<path d="M504.122 615.97H518.747V554.447H504.122V615.97Z" fill="#93B3F4"/>
<path d="M806.773 615.97H821.398V554.447H806.773V615.97Z" fill="#93B3F4"/>
<path d="M486.759 615.978H501.384V549.09H486.759V615.978Z" fill="#AFCDFB"/>
<path d="M740.872 615.978H755.497V549.09H740.872V615.978Z" fill="#AFCDFB"/>
<path d="M776.86 268.938H760.258V330.722H776.86V268.938Z" fill="#BED2FA"/>
<path d="M795.118 263.566H780.732V330.722H795.118V263.566Z" fill="#BED2FA"/>
<path d="M809.385 263.016L795.105 264.762L803.256 331.422L817.535 329.676L809.385 263.016Z" fill="#93B3F4"/>
<path d="M509.644 363.827H493.042V425.611H509.644V363.827Z" fill="#BED2FA"/>
<path d="M527.903 358.455H513.517V425.611H527.903V358.455Z" fill="#BED2FA"/>
<path d="M542.212 357.779L527.933 359.527L536.095 426.185L550.374 424.437L542.212 357.779Z" fill="#93B3F4"/>
<path d="M312.896 268.938H296.294V330.722H312.896V268.938Z" fill="#BED2FA"/>
<path d="M331.162 263.566H316.776V330.722H331.162V263.566Z" fill="#BED2FA"/>
<path d="M345.463 262.908L331.184 264.657L339.346 331.315L353.625 329.567L345.463 262.908Z" fill="#93B3F4"/>
<path d="M898.499 318.643H830.606V330.722H898.499V318.643Z" fill="#6D89CF"/>
<path d="M906.804 310.332H838.911V318.643H906.804V310.332Z" fill="#BED2FA"/>
<path d="M900.133 302.02H835.038V310.332H900.133V302.02Z" fill="#93B3F4"/>
<path d="M901.708 295.678H842.918V302.027H901.708V295.678Z" fill="#BED2FA"/>
<path d="M572.605 318.643H504.712V330.722H572.605V318.643Z" fill="#93B3F4"/>
<path d="M580.91 310.332H513.017V318.643H580.91V310.332Z" fill="#BED2FA"/>
<path d="M574.232 302.02H509.137V310.332H574.232V302.02Z" fill="#93B3F4"/>
<path d="M575.814 295.678H517.023V302.027H575.814V295.678Z" fill="#BED2FA"/>
<path d="M583.141 287.367H515.248V295.678H583.141V287.367Z" fill="#BED2FA"/>
<path d="M576.47 279.055H511.375V287.367H576.47V279.055Z" fill="#93B3F4"/>
<path d="M578.045 272.713H519.255V279.063H578.045V272.713Z" fill="#BED2FA"/>
<path d="M623.501 263.566H611.928V330.454H623.501V263.566Z" fill="#C1D9F4"/>
<path d="M481.178 260.507H469.605V330.461H481.178V260.507Z" fill="#C1D9F4"/>
<path d="M446.116 263.566H434.543V330.454H446.116V263.566Z" fill="#C1D9F4"/>
<path d="M638.126 258.053H623.501V330.454H638.126V258.053Z" fill="white"/>
<path d="M432.133 258.053H417.508V330.454H432.133V258.053Z" fill="white"/>
<path d="M652.758 261.507H638.133V330.461H652.758V261.507Z" fill="#BED2FA"/>
<path d="M519.037 253.608L504.559 251.122L491.255 328.59L505.734 331.076L519.037 253.608Z" fill="#BED2FA"/>
<path d="M667.383 272.079H652.758V330.461H667.383V272.079Z" fill="#93B3F4"/>
<path d="M412.993 272.079H398.369V330.461H412.993V272.079Z" fill="#BED2FA"/>
<path d="M682.008 268.938H667.383V330.461H682.008V268.938Z" fill="#6D89CF"/>
<path d="M396.332 268.938H381.707V330.461H396.332V268.938Z" fill="#93B3F4"/>
<path d="M677.381 353.202H662.757V425.604H677.381V353.202Z" fill="white"/>
<path d="M658.242 367.221H643.617V425.604H658.242V367.221Z" fill="#BED2FA"/>
<path d="M641.58 364.08H626.956V425.604H641.58V364.08Z" fill="#93B3F4"/>
<path d="M592.692 364.08H578.067V425.604H592.692V364.08Z" fill="#93B3F4"/>
<path d="M572.277 364.08H557.652V425.604H572.277V364.08Z" fill="#93B3F4"/>
<path d="M341.981 353.202H327.356V425.604H341.981V353.202Z" fill="white"/>
<path d="M356.541 352.568L342.025 354.345L350.824 426.21L365.34 424.433L356.541 352.568Z" fill="white"/>
<path d="M322.842 367.221H308.218V425.604H322.842V367.221Z" fill="#BED2FA"/>
<path d="M306.188 364.08H291.563V425.604H306.188V364.08Z" fill="#93B3F4"/>
<path d="M557.376 453.858H545.803V520.746H557.376V453.858Z" fill="#C1D9F4"/>
<path d="M572.001 448.345H557.376V520.746H572.001V448.345Z" fill="white"/>
<path d="M586.626 451.792H572.001V520.746H586.626V451.792Z" fill="#BED2FA"/>
<path d="M825.278 358.716H810.653V425.604H825.278V358.716Z" fill="#AFCDFB"/>
<path d="M841.216 358.716H826.591V425.604H841.216V358.716Z" fill="#AFCDFB"/>
<path d="M462.233 263.566H447.608V330.454H462.233V263.566Z" fill="#AFCDFB"/>
<path d="M435.528 459.26H420.903V520.783H435.528V459.26Z" fill="#93B3F4"/>
<path d="M749.714 453.888H735.089V520.776H749.714V453.888Z" fill="#AFCDFB"/>
<path d="M1109.32 218.174H1028.77C1023.34 218.174 1018.94 222.573 1018.94 228V305.549C1018.94 310.976 1023.34 315.375 1028.77 315.375H1109.32C1114.75 315.375 1119.15 310.976 1119.15 305.549V228C1119.15 222.573 1114.75 218.174 1109.32 218.174Z" fill="#BED2FA"/>
<path d="M1105.83 222.382H1032.26C1027.31 222.382 1023.29 226.4 1023.29 231.357V302.184C1023.29 307.141 1027.31 311.16 1032.26 311.16H1105.83C1110.79 311.16 1114.8 307.141 1114.8 302.184V231.357C1114.8 226.4 1110.79 222.382 1105.83 222.382Z" fill="#DDE8FD"/>
<path d="M1066.97 231.29C1066.97 230.878 1067.09 230.475 1067.31 230.132C1067.54 229.788 1067.87 229.52 1068.25 229.362C1068.63 229.203 1069.05 229.161 1069.45 229.24C1069.86 229.32 1070.23 229.517 1070.52 229.808C1070.81 230.099 1071.01 230.47 1071.09 230.874C1071.17 231.278 1071.13 231.697 1070.97 232.077C1070.82 232.458 1070.55 232.784 1070.21 233.013C1069.86 233.242 1069.46 233.364 1069.05 233.364C1068.78 233.365 1068.51 233.312 1068.25 233.208C1068 233.105 1067.77 232.952 1067.58 232.759C1067.38 232.567 1067.23 232.338 1067.13 232.086C1067.02 231.833 1066.97 231.563 1066.97 231.29Z" fill="#BED2FA"/>
<path d="M1083.72 234.185C1083.92 233.827 1084.22 233.537 1084.59 233.351C1084.95 233.164 1085.36 233.09 1085.77 233.138C1086.18 233.185 1086.56 233.352 1086.87 233.618C1087.19 233.883 1087.41 234.235 1087.52 234.629C1087.64 235.024 1087.63 235.442 1087.5 235.832C1087.38 236.222 1087.14 236.567 1086.82 236.822C1086.5 237.077 1086.11 237.231 1085.7 237.265C1085.29 237.299 1084.88 237.211 1084.52 237.013C1084.04 236.744 1083.69 236.295 1083.54 235.765C1083.39 235.235 1083.45 234.667 1083.72 234.185Z" fill="#BED2FA"/>
<path d="M1098.07 245.585C1098.41 245.364 1098.82 245.249 1099.23 245.256C1099.64 245.263 1100.03 245.392 1100.37 245.625C1100.71 245.859 1100.97 246.187 1101.12 246.568C1101.27 246.949 1101.3 247.366 1101.22 247.767C1101.13 248.168 1100.93 248.534 1100.63 248.819C1100.34 249.105 1099.97 249.296 1099.56 249.37C1099.16 249.444 1098.74 249.397 1098.37 249.234C1097.99 249.072 1097.67 248.802 1097.45 248.458C1097.15 247.994 1097.05 247.432 1097.16 246.894C1097.28 246.355 1097.61 245.885 1098.07 245.585Z" fill="#BED2FA"/>
<path d="M1105.18 263.23C1105.59 263.232 1105.99 263.355 1106.33 263.584C1106.67 263.812 1106.93 264.137 1107.09 264.516C1107.25 264.895 1107.29 265.312 1107.2 265.714C1107.12 266.116 1106.93 266.485 1106.64 266.774C1106.34 267.063 1105.98 267.26 1105.57 267.339C1105.17 267.419 1104.75 267.377 1104.38 267.22C1104 267.063 1103.67 266.797 1103.45 266.456C1103.22 266.115 1103.1 265.715 1103.1 265.305C1103.1 265.032 1103.15 264.761 1103.26 264.509C1103.36 264.257 1103.51 264.028 1103.71 263.835C1103.9 263.643 1104.13 263.49 1104.38 263.386C1104.64 263.282 1104.91 263.23 1105.18 263.23Z" fill="#BED2FA"/>
<path d="M1100.08 287.247C1101.23 287.247 1102.16 286.319 1102.16 285.173C1102.16 284.028 1101.23 283.099 1100.08 283.099C1098.94 283.099 1098.01 284.028 1098.01 285.173C1098.01 286.319 1098.94 287.247 1100.08 287.247Z" fill="#BED2FA"/>
<path d="M1088.52 296.768C1088.81 297.058 1089.01 297.429 1089.09 297.833C1089.17 298.237 1089.13 298.656 1088.97 299.037C1088.81 299.417 1088.55 299.743 1088.2 299.972C1087.86 300.201 1087.46 300.323 1087.05 300.323C1086.63 300.323 1086.23 300.201 1085.89 299.972C1085.55 299.743 1085.28 299.417 1085.12 299.037C1084.97 298.656 1084.92 298.237 1085.01 297.833C1085.09 297.429 1085.29 297.058 1085.58 296.768C1085.97 296.38 1086.5 296.163 1087.05 296.163C1087.6 296.163 1088.13 296.38 1088.52 296.768Z" fill="#BED2FA"/>
<path d="M1066.97 303.505C1066.97 303.093 1067.09 302.69 1067.31 302.346C1067.54 302.003 1067.87 301.735 1068.25 301.576C1068.63 301.418 1069.05 301.375 1069.45 301.455C1069.86 301.534 1070.23 301.732 1070.52 302.023C1070.81 302.314 1071.01 302.684 1071.09 303.088C1071.17 303.492 1071.13 303.911 1070.97 304.292C1070.82 304.673 1070.55 304.998 1070.21 305.228C1069.86 305.457 1069.46 305.579 1069.05 305.579C1068.78 305.58 1068.51 305.527 1068.25 305.423C1068 305.319 1067.77 305.167 1067.58 304.974C1067.38 304.781 1067.23 304.552 1067.13 304.3C1067.02 304.048 1066.97 303.778 1066.97 303.505Z" fill="#BED2FA"/>
<path d="M1054.33 234.185C1054.13 233.827 1053.83 233.537 1053.46 233.351C1053.1 233.164 1052.68 233.09 1052.28 233.138C1051.87 233.185 1051.49 233.352 1051.17 233.618C1050.86 233.883 1050.63 234.235 1050.52 234.629C1050.41 235.024 1050.42 235.442 1050.54 235.832C1050.67 236.222 1050.91 236.567 1051.23 236.822C1051.55 237.077 1051.94 237.231 1052.35 237.265C1052.75 237.299 1053.16 237.211 1053.52 237.013C1054 236.744 1054.36 236.295 1054.51 235.765C1054.66 235.235 1054.6 234.667 1054.33 234.185Z" fill="#BED2FA"/>
<path d="M1039.96 245.585C1039.61 245.364 1039.21 245.249 1038.8 245.256C1038.39 245.263 1037.99 245.392 1037.65 245.625C1037.32 245.859 1037.06 246.187 1036.91 246.568C1036.76 246.949 1036.72 247.366 1036.81 247.767C1036.89 248.168 1037.1 248.534 1037.39 248.819C1037.69 249.105 1038.06 249.296 1038.46 249.37C1038.86 249.444 1039.28 249.397 1039.66 249.234C1040.03 249.072 1040.35 248.802 1040.58 248.458C1040.72 248.229 1040.83 247.972 1040.88 247.704C1040.92 247.435 1040.92 247.16 1040.86 246.893C1040.81 246.626 1040.7 246.373 1040.54 246.149C1040.38 245.924 1040.19 245.733 1039.96 245.585Z" fill="#BED2FA"/>
<path d="M1032.85 263.23C1032.44 263.23 1032.04 263.352 1031.7 263.58C1031.36 263.808 1031.09 264.132 1030.94 264.511C1030.78 264.89 1030.74 265.307 1030.82 265.709C1030.9 266.112 1031.1 266.481 1031.39 266.771C1031.68 267.061 1032.05 267.259 1032.45 267.339C1032.85 267.419 1033.27 267.378 1033.65 267.221C1034.03 267.064 1034.35 266.798 1034.58 266.457C1034.81 266.116 1034.93 265.715 1034.93 265.305C1034.93 265.032 1034.88 264.762 1034.77 264.51C1034.67 264.258 1034.51 264.029 1034.32 263.836C1034.13 263.643 1033.9 263.49 1033.65 263.386C1033.4 263.282 1033.13 263.229 1032.85 263.23Z" fill="#BED2FA"/>
<path d="M1036.48 283.703C1036.19 283.994 1035.99 284.363 1035.91 284.766C1035.84 285.168 1035.88 285.584 1036.03 285.963C1036.19 286.341 1036.46 286.665 1036.8 286.892C1037.14 287.12 1037.54 287.241 1037.95 287.241C1038.36 287.241 1038.76 287.12 1039.1 286.892C1039.44 286.665 1039.71 286.341 1039.87 285.963C1040.02 285.584 1040.06 285.168 1039.98 284.766C1039.91 284.363 1039.71 283.994 1039.42 283.703C1039.23 283.509 1039 283.355 1038.75 283.249C1038.49 283.144 1038.22 283.09 1037.95 283.09C1037.68 283.09 1037.41 283.144 1037.15 283.249C1036.9 283.355 1036.67 283.509 1036.48 283.703Z" fill="#BED2FA"/>
<path d="M1049.51 296.768C1049.22 297.058 1049.03 297.427 1048.95 297.83C1048.87 298.232 1048.91 298.649 1049.06 299.028C1049.22 299.407 1049.49 299.731 1049.83 299.959C1050.17 300.187 1050.57 300.309 1050.98 300.309C1051.39 300.309 1051.79 300.187 1052.13 299.959C1052.47 299.731 1052.74 299.407 1052.9 299.028C1053.05 298.649 1053.1 298.232 1053.02 297.83C1052.94 297.427 1052.74 297.058 1052.45 296.768C1052.06 296.379 1051.53 296.161 1050.98 296.161C1050.43 296.161 1049.9 296.379 1049.51 296.768Z" fill="#BED2FA"/>
<path d="M1068.5 265.305C1068.5 264.894 1068.63 264.493 1068.85 264.152C1069.08 263.811 1069.41 263.545 1069.79 263.388C1070.16 263.231 1070.58 263.19 1070.98 263.27C1071.39 263.35 1071.76 263.548 1072.05 263.838C1072.34 264.128 1072.53 264.498 1072.61 264.9C1072.69 265.302 1072.65 265.719 1072.5 266.098C1072.34 266.477 1072.07 266.801 1071.73 267.029C1071.39 267.257 1070.99 267.379 1070.58 267.379C1070.31 267.38 1070.04 267.327 1069.78 267.223C1069.53 267.119 1069.3 266.966 1069.11 266.774C1068.92 266.581 1068.76 266.352 1068.66 266.1C1068.56 265.847 1068.5 265.577 1068.5 265.305Z" fill="#BED2FA"/>
<path d="M1070.85 239.378H1070.28V265.305H1070.85V239.378Z" fill="#BED2FA"/>
<path d="M1083.55 253.867L1069.8 264.659L1070.85 265.997L1084.6 255.205L1083.55 253.867Z" fill="#BED2FA"/>
<path d="M1223.13 775.821C1223.13 775.821 1318.08 685.544 1344.76 706.516C1371.43 727.489 1223.13 775.821 1223.13 775.821Z" fill="#BED2FA"/>
<path d="M1216.25 793.19C1216.25 793.19 1392.9 714.104 1434.7 755.923C1476.5 797.742 1386.2 792.579 1352.79 787.901C1319.39 783.223 1216.25 793.19 1216.25 793.19Z" fill="#BED2FA"/>
<path d="M1208.85 773.837C1208.85 773.837 1209.69 769.36 1210.82 762.877C1213.06 750.193 1216.39 729.638 1216.98 718.939C1217.86 702.749 1230.88 691.259 1245.17 707.748C1259.46 724.236 1214.35 769.405 1214.35 769.405L1208.85 773.837Z" fill="#BED2FA"/>
<path d="M1258.97 464.654C1246.05 430.834 1188.46 447.613 1188.46 447.613C1188.46 447.613 1154.75 512.479 1143.3 515.098C1131.85 517.717 1161.3 454.015 1161.3 454.015C1138.61 454.104 1084.16 487.395 1084.16 487.395C1084.16 487.395 1094.93 558.028 1083.2 557.745C1071.46 557.461 1076.85 494.722 1076.85 494.722C1055.77 503.429 1038.05 530.826 1038.05 530.826C1016.85 574.674 1074.25 599.623 1074.25 599.623C1074.25 599.623 1077.46 624.185 1065.09 653.969C1062.8 658.713 1060.96 663.661 1059.59 668.749L1065.51 668.152C1065.84 666.518 1066.21 664.929 1066.66 663.392C1066.67 663.37 1066.67 663.347 1066.66 663.325C1066.98 662.37 1067.41 661.012 1068 659.348C1069.49 655.618 1070.41 652.88 1070.98 650.917C1075.29 639.248 1081.64 623.968 1086.54 620.402C1085.92 619.609 1085.4 618.739 1085 617.813L1086.54 620.402C1098.87 641.114 1149.96 639.629 1177.62 630.982C1205.28 622.334 1192.17 615.612 1175.66 604.212C1159.15 592.811 1127.61 599.437 1117.68 595.311C1107.75 591.185 1121 584.731 1139.99 584.283C1158.97 583.836 1170.28 601.72 1201.01 601.548C1231.74 601.377 1249.14 541.816 1249.14 541.816C1228.79 550.455 1189.95 542.659 1187.76 535.563C1185.58 528.468 1241.44 523.566 1249.92 520.515C1258.4 517.463 1271.89 498.482 1258.97 464.654Z" fill="#BED2FA"/>
<path d="M330.841 763.324C304.24 730.802 354.36 682.507 354.36 682.507C354.36 682.507 439.124 685.991 448.377 675.979C457.629 665.966 376.484 658.818 376.484 658.818C389.661 636.04 454.607 600.421 454.607 600.421C454.607 600.421 519.523 652.021 525.992 640.047C532.462 628.072 466.195 597.288 466.195 597.288C487.125 581.097 524.94 579.053 524.94 579.053C581.32 583.015 573.329 655.192 573.329 655.192C573.329 655.192 596.199 672.591 633.328 677.322C639.427 677.749 645.473 678.748 651.385 680.306L647.363 685.924C645.528 685.305 643.715 684.768 641.916 684.328H641.842C640.693 684.089 639.066 683.76 637.066 683.373C632.477 682.686 629.164 682.067 626.851 681.522C612.614 679.12 593.565 676.702 587.148 679.582C586.71 678.498 586.133 677.475 585.432 676.538C585.976 677.508 586.544 678.523 587.148 679.582C600.885 703.95 569.919 754.513 545.251 777.381C520.583 800.249 521.374 783.163 519.426 759.959C517.479 736.756 542.341 708.822 543.915 696.452C545.49 684.081 531.268 693.699 519.844 712.523C508.42 731.347 519.926 753.088 502.026 783.917C484.125 814.745 414.12 797.943 414.12 797.943C434.558 782.432 449.123 738.837 443.221 732.548C437.319 726.258 400.175 779.664 392.213 786.438C384.251 793.213 357.412 795.847 330.841 763.324Z" fill="#BED2FA"/>
<path d="M587.23 403.698H797.513C811.03 403.698 823.992 409.067 833.55 418.624C843.107 428.18 848.476 441.142 848.476 454.657V462.58C848.476 476.402 842.985 489.657 833.211 499.431C823.437 509.204 810.18 514.695 796.357 514.695H587.23V403.698Z" fill="white"/>
<path d="M1043.33 449.382V466.079C1043.38 474.475 1041.75 482.795 1038.54 490.551C1032.41 505.011 1021.03 514.725 1008 514.725H580.238C577.411 514.725 575.112 511.569 575.112 507.674V505.175C575.112 501.28 577.411 498.124 580.238 498.124H841C842.432 495.709 843.655 493.175 844.656 490.551C847.218 483.769 848.513 476.575 848.476 469.325V448.091C848.48 444.299 848.128 440.514 847.424 436.788C846.351 430.993 844.308 425.421 841.38 420.306H580.224C577.396 420.306 575.097 417.143 575.097 413.248V410.749C575.097 406.854 577.396 403.698 580.224 403.698H1010.15C1025.3 403.698 1038.08 417.68 1042.05 436.788C1042.9 440.931 1043.33 445.151 1043.33 449.382Z" fill="#AFCDFB"/>
<path d="M587.23 459.215L618.905 461.08L587.23 462.207V459.215Z" fill="#BED2FA"/>
<path d="M587.23 476.637L662.585 478.502L587.23 479.628V476.637Z" fill="#BED2FA"/>
<path d="M613.174 838.546H921.705V752.178H610.652C605.554 752.178 600.505 753.182 595.795 755.134C591.085 757.086 586.806 759.948 583.203 763.554C579.599 767.161 576.742 771.442 574.794 776.154C572.847 780.865 571.847 785.914 571.852 791.012V797.197C571.852 808.158 576.204 818.671 583.953 826.424C591.701 834.178 602.212 838.538 613.174 838.546Z" fill="#3A49CD"/>
<path d="M1255.4 838.546H904.394C893.642 838.546 883.331 834.275 875.729 826.673C868.126 819.071 863.855 808.761 863.855 798.01V791.825C863.855 781.312 868.032 771.229 875.466 763.795C882.901 756.361 892.984 752.185 903.499 752.185H1255.4V838.546Z" fill="white"/>
<path d="M1267.57 825.631H840.425C837.112 825.631 834.426 828.317 834.426 831.63V832.547C834.426 835.86 837.112 838.546 840.425 838.546H1267.57C1270.88 838.546 1273.57 835.86 1273.57 832.547V831.63C1273.57 828.317 1270.88 825.631 1267.57 825.631Z" fill="#3A49CD"/>
<path d="M1267.57 752.178H840.425C837.112 752.178 834.426 754.863 834.426 758.176V759.094C834.426 762.407 837.112 765.093 840.425 765.093H1267.57C1270.88 765.093 1273.57 762.407 1273.57 759.094V758.176C1273.57 754.863 1270.88 752.178 1267.57 752.178Z" fill="#3A49CD"/>
<path d="M1255.4 795.362L1207.93 796.817L1255.4 797.69V795.362Z" fill="#BED2FA"/>
<path d="M1255.4 775.486L1142.46 776.941L1255.4 777.814V775.486Z" fill="#BED2FA"/>
<path d="M1143.63 776.687C1146.71 779.241 1148.95 782.658 1150.07 786.498C1150.37 787.611 1150.54 788.755 1150.58 789.908C1150.84 798.01 1150.58 816.357 1150.58 816.357L1164.86 807.187L1179.12 816.357V791.46C1179.12 786.759 1177.89 782.186 1175.62 779.194C1174.52 777.739 1173.18 776.65 1171.67 776.65L1143.63 776.687Z" fill="#AFCDFB"/>
<path d="M1143.63 776.687C1146.71 779.241 1148.95 782.658 1150.07 786.498L1178.71 786.864C1178.71 786.864 1177.58 778.127 1171.67 776.687H1143.63Z" fill="#93B3F4"/>
<path d="M1160.52 620.663H817.585C804.395 620.663 791.746 615.424 782.419 606.098C773.093 596.773 767.853 584.124 767.853 570.936V563.348C767.853 550.452 772.977 538.085 782.096 528.966C791.215 519.848 803.584 514.725 816.481 514.725H1160.52V620.671V620.663Z" fill="white"/>
<path d="M767.637 555.842V578.65C767.671 582.081 768.493 585.459 770.04 588.521C772.756 593.945 777.591 598.452 783.665 601.354C788.612 603.664 794.008 604.851 799.468 604.831H1170.83C1175.18 604.831 1178.71 607.77 1178.71 611.404V614.097C1178.71 617.731 1175.18 620.678 1170.83 620.678H529.305C510.89 620.678 494.631 613.038 484.797 601.354C478.604 593.983 474.97 585.015 474.97 575.315V557.334C474.983 550.819 476.732 544.424 480.036 538.809C488.244 524.566 505.756 514.747 525.977 514.747H1170.83C1175.18 514.747 1178.71 517.679 1178.71 521.32V524.006C1178.71 527.64 1175.18 530.587 1170.83 530.587H798.334C789.433 530.587 781.374 533.75 775.748 538.794C773.358 540.922 771.386 543.477 769.935 546.329C768.454 549.284 767.668 552.538 767.637 555.842Z" fill="#6D89CF"/>
<path d="M1160.5 567.698L1112.89 569.473L1160.5 570.548V567.698Z" fill="#BED2FA"/>
<path d="M1160.5 543.315L1047.24 545.098L1160.5 546.165V543.315Z" fill="#BED2FA"/>
<path d="M1048.4 544.74C1048.4 544.74 1055.86 548.098 1058.35 553.626C1058.79 554.597 1059.05 555.642 1059.1 556.708C1059.51 564.049 1059.1 580.65 1059.1 580.65L1081.19 572.346L1103.2 580.65V558.148C1103.21 556.008 1102.73 553.894 1101.8 551.969C1100.86 550.044 1099.5 548.36 1097.81 547.046C1096.09 545.62 1093.94 544.809 1091.71 544.74H1048.4Z" fill="#FA7269"/>
<path d="M1048.4 544.74C1048.4 544.74 1055.86 548.098 1058.35 553.626L1102.57 553.954C1101.9 551.509 1100.5 549.323 1098.56 547.68C1096.63 546.038 1094.24 545.013 1091.72 544.74H1048.4Z" fill="#E75755"/>
<path d="M1574 840.448V841.097C1574.01 841.585 1573.83 842.058 1573.5 842.414C1573.16 842.77 1572.7 842.98 1572.22 843H1.78342C1.29586 842.98 0.835528 842.77 0.501852 842.414C0.168175 842.058 -0.0120572 841.585 8.80149e-05 841.097V840.448C-0.0120572 839.961 0.168175 839.488 0.501852 839.132C0.835528 838.776 1.29586 838.565 1.78342 838.546H1572.22C1572.7 838.565 1573.16 838.776 1573.5 839.132C1573.83 839.488 1574.01 839.961 1574 840.448Z" fill="#060632"/>
<path d="M729.143 252.061C729.143 252.061 737.209 263.947 741.76 288.948C745.775 310.839 749.296 318.919 755.094 323.411C760.892 327.902 793.148 341.16 793.148 341.16L790.738 346.816C790.738 346.816 743.394 340.369 738.074 332.453C732.754 324.537 712.526 277.802 714.078 267.036C715.63 256.269 729.143 252.061 729.143 252.061Z" fill="#EA8888"/>
<path d="M845.066 513.195C844.641 517.814 851.036 518.933 858.497 519.306C865.959 519.679 863.72 521.201 873.898 523.036C884.076 524.872 888.187 522.089 888.926 520.708C889.582 519.485 884.844 517.575 879.785 515.411L877.875 514.591C872.189 512.084 868.996 506.98 864.556 502.25C860.355 497.774 856.348 483.426 856.348 483.426L842.485 480.442C842.485 480.442 846.372 493.357 847.708 498.87C848.506 502.108 847.335 505.734 846.29 508.495C845.674 510 845.263 511.581 845.066 513.195Z" fill="#FC9290"/>
<path d="M858.512 519.283C865.974 519.656 863.735 521.178 873.913 523.014C884.091 524.849 888.202 522.066 888.941 520.686C889.597 519.462 884.859 517.552 879.8 515.389L879.726 515.478C874.683 516.933 869.341 516.998 864.265 515.665C857.55 513.829 850.991 509.793 846.357 508.495C845.727 509.986 845.298 511.554 845.081 513.158C844.656 517.791 851.073 518.933 858.512 519.283Z" fill="#9E332E"/>
<path d="M707.004 348.8C707.004 348.8 799.133 341.869 816.481 352.814C833.829 363.76 861.639 491.253 861.639 491.253C861.639 491.253 859.922 492.625 856.087 493.043C852.521 493.431 844.671 491.335 844.671 491.335C844.671 491.335 804.692 434.288 801.879 419.918C799.066 405.548 799.752 392.723 793.335 392.38C786.918 392.037 706.996 402.079 694.901 380.8C682.806 359.522 692.804 338.415 692.804 338.415L707.004 348.8Z" fill="#ED6966"/>
<path d="M809.818 527.99C809.392 532.609 815.787 533.728 823.249 534.101C830.71 534.474 828.472 535.996 838.642 537.831C848.812 539.667 852.938 536.884 853.677 535.511C854.334 534.287 849.588 532.37 844.536 530.214L842.626 529.386C836.933 526.879 833.74 521.783 829.307 517.053C825.106 512.576 821.1 498.221 821.1 498.221L807.236 495.237C807.236 495.237 811.131 508.144 812.459 513.658C813.25 516.896 812.078 520.522 811.041 523.282C810.421 524.789 810.009 526.373 809.818 527.99Z" fill="#FC9290"/>
<path d="M823.264 534.101C830.725 534.474 828.487 535.996 838.657 537.831C848.827 539.667 852.953 536.884 853.692 535.511C854.349 534.287 849.603 532.37 844.552 530.214L844.47 530.296C839.419 531.752 834.069 531.814 828.987 530.475C822.271 528.639 815.712 524.611 811.079 523.305C810.445 524.794 810.015 526.363 809.803 527.968C809.392 532.609 815.817 533.728 823.264 534.101Z" fill="#9E332E"/>
<path d="M688.962 354.508C688.962 354.508 770.801 358.388 787.709 369.997C804.617 381.606 827.449 510.084 827.449 510.084C827.449 510.084 825.681 511.39 821.831 511.658C818.249 511.905 810.482 509.502 810.482 509.502C810.482 509.502 772.763 450.948 770.502 436.482C768.241 422.015 769.435 409.219 763.041 408.63C756.646 408.04 676.389 414.979 665.137 393.23C653.885 371.482 688.962 354.508 688.962 354.508Z" fill="#FA7269"/>
<path d="M725.606 178.795C722.472 175.81 718.144 174.415 715.025 173.811C715.846 173.422 716.752 173.247 717.659 173.303C715.824 172.557 711.086 173.303 711.086 173.303C687.208 156.3 673.031 194.246 671.27 203.446C669.509 212.645 666.264 225.829 655.011 237.236C626.157 266.498 667.375 300.371 667.375 300.371C667.554 300.55 688.066 256.642 708.668 249.592C714.578 244.369 718.973 233.603 719.308 232.752C716.324 241.415 713.511 245.988 711.444 248.42C729.896 238.55 733.903 186.808 725.606 178.795Z" fill="white"/>
<path d="M685.522 238.363C690.595 237.942 695.694 237.942 700.766 238.363C705.309 238.847 709.762 239.965 713.996 241.683C721.204 244.668 720.45 257.463 705.31 255.113C690.171 252.763 684.463 242.146 685.522 238.363Z" fill="#FC9290"/>
<path d="M713.331 247.704C713.421 247.749 715.488 258.687 705.579 258.254C699.072 257.963 685.044 250.092 686.283 244.526C686.872 241.877 691.79 235.006 692.775 219.33L693.961 219.643L713.876 224.986C713.876 224.986 713.011 231.29 712.585 237.259C712.249 242.28 712.242 247.063 713.331 247.704Z" fill="#FC9290"/>
<path d="M713.898 224.956C713.898 224.956 713.011 231.29 712.585 237.259C701.311 236.184 696.035 225.485 693.969 219.614L713.898 224.956Z" fill="#EA8888"/>
<path d="M692.111 216.129C692.111 216.129 688.693 205.587 689.305 197.477C689.738 191.68 697.826 171.871 717.711 180.123C721.72 181.765 725.308 184.286 728.21 187.502C731.941 191.672 736.709 199.864 724.882 215.935L721.45 221.509L692.111 216.129Z" fill="white"/>
<path d="M714.428 234.125C714.428 234.125 688.38 227.903 692.506 211.742C696.632 195.582 696.05 183.898 712.854 187.188C729.658 190.479 731.307 197.462 731.239 203.192C731.172 208.922 721.308 235.326 714.428 234.125Z" fill="#FC9290"/>
<path d="M724.77 189.822C724.77 189.822 712.832 206.982 701.191 206.982C689.551 206.982 685.597 202.856 685.597 202.856C692.187 199.504 697.407 193.965 700.363 187.188C700.363 187.188 721.726 179.429 724.77 189.822Z" fill="white"/>
<path d="M722.614 190.911C722.614 190.911 726.83 196.5 727.091 200.946C727.352 205.393 725.74 214.01 728.284 214.376C728.284 214.376 736.94 202.864 732.761 194.037C728.374 184.652 722.614 190.911 722.614 190.911Z" fill="white"/>
<path d="M744.051 350.196C741.887 352.777 735.097 353.575 727.904 354.762C722.218 355.702 716.249 356.881 712.003 359.373C702.363 365.028 670.86 384.158 661.63 383.292C658.048 382.957 658.72 376.122 660.884 367.057C664.294 352.74 671.434 332.856 671.434 324.209C671.434 319.494 673.009 308.325 675.105 295.566C675.277 294.537 675.449 293.5 675.62 292.448C679.769 267.632 685.514 238.363 685.514 238.363C685.514 238.363 691.924 252.337 704.4 252.337C716.876 252.337 713.98 241.683 713.98 241.683C713.98 241.683 725.374 243.019 728.061 245.921C730.747 248.823 737.582 261.343 738.932 264.76C738.932 264.76 739.208 269.11 728.449 271.176C728.449 271.176 731.068 282.98 731.381 290.844C731.605 296.656 727.411 314.845 726.203 326.156C725.777 330.163 725.718 333.304 726.374 334.736C727.202 336.564 729.896 338.377 732.963 340.168C739.059 343.704 746.618 347.114 744.051 350.196Z" fill="#0B0754"/>
<path d="M732.97 340.168C739.88 351.941 714.234 355.485 709.989 357.977C700.348 363.64 670.86 384.158 661.63 383.292C658.048 382.957 658.72 376.122 660.884 367.057C664.294 352.74 671.434 332.856 671.434 324.209C671.434 319.494 673.009 308.325 675.105 295.566L686.216 284.897C686.216 284.897 698.154 315.666 709.474 320.71C714.871 323.035 720.471 324.858 726.203 326.156C725.777 330.163 725.718 333.304 726.374 334.736C727.21 336.564 729.904 338.377 732.97 340.168Z" fill="#030231"/>
<path d="M682.105 247.577C682.105 247.577 672.606 241.803 663.451 252.748C654.295 263.693 669.98 341.936 683.597 345.958C698.714 350.434 744.088 350.196 744.088 350.196L742.156 344.697C742.156 344.697 695.021 329.506 693.088 327.022C691.156 324.537 686.94 248.838 682.105 247.577Z" fill="#FC9290"/>
<path d="M685.522 238.363C685.522 238.363 666.01 240.124 660.339 246.57C654.668 253.016 653.019 270.378 653.019 270.378C653.019 270.378 670.181 284.248 690.909 278.869L685.522 238.363Z" fill="#0B0754"/>
<path d="M806.639 322.038L808.505 304.93L784.299 336.818C784.299 336.818 794.432 341.869 795.021 340.899L806.639 322.038Z" fill="#163560"/>
<path d="M770.42 322.038L748.058 356.179H785.612L806.639 322.038H770.42Z" fill="#0B0754"/>
<path d="M806.639 322.038L808.393 305.094L795.745 320.919L806.639 322.038Z" fill="#DDE8FD"/>
<path d="M749.207 354.433L747.491 353.202L769.712 320.188L770.421 322.038L749.207 354.433Z" fill="#DDE8FD"/>
<path d="M769.711 320.188L805.087 321.18L806.639 322.038H770.42L769.711 320.188Z" fill="white"/>
<path d="M762.324 349.405C761.523 349.333 760.716 349.333 759.914 349.405C762.615 348.151 765.339 346.786 765.339 346.786C765.339 346.786 764.123 345.547 759.482 347.196C758.979 347.371 758.443 347.429 757.915 347.368L764.429 344.443C763.272 343.399 760.153 344.227 757.713 345.115C756.866 345.437 755.95 345.538 755.053 345.408C754.156 345.277 753.307 344.919 752.587 344.368L752.512 344.309H752.833C756.631 343.749 757.601 341.578 756.564 341.824C755.527 342.07 749.14 342.533 749.14 342.533C746.26 342.369 740.559 344.57 740.559 344.57L743.745 350.457C743.745 350.457 752.915 352.158 755.303 351.419C755.497 351.359 755.728 351.277 755.982 351.18L764.317 350.636C764.317 350.636 764.16 349.651 762.324 349.405Z" fill="#FC9290"/>
<path d="M1084.85 579.299C1084.85 579.299 1132.97 600.265 1141.71 599.884C1150.45 599.504 1204.28 583.47 1204.28 583.47L1202.9 592.737C1202.9 592.737 1161.36 616.612 1146.84 617.977C1132.54 619.313 1083.65 605.144 1078.94 602.16C1074.22 599.176 1071.13 582.329 1084.85 579.299Z" fill="#EA8888"/>
<path d="M1077.62 502.175C1077.62 502.175 1059.86 498.803 1051.02 505.257C1035 516.956 1034.18 557.275 1028.14 563.303C1022.09 569.332 1007.67 566.75 1006.38 597.833C1005.09 628.915 1012.14 631.511 1003.75 645.381C995.351 659.251 1007.3 673.144 1007.3 673.144C1007.3 673.144 1002.4 665.489 1004.5 659.953C1004.5 659.953 1006.54 672.159 1014.29 675.016C1022.04 677.874 1023.18 679.97 1024.42 684.171C1024.42 684.171 1090.55 650.283 1090.63 626.251C1090.7 602.22 1103.64 578.412 1097.28 567.996C1099.01 570.867 1100.1 574.08 1100.46 577.412C1100.46 577.412 1104.28 570.108 1097.66 563.303C1091.05 556.499 1105.42 542.412 1103.29 526.133C1101.83 514.919 1093.98 502.66 1077.62 502.175Z" fill="#0B0754"/>
<path d="M1090.7 602.197C1085.79 605.506 1080.3 607.843 1074.52 609.084C1049.58 614.844 1040.02 593.766 1036.46 579.299C1039.07 577.856 1041.95 576.972 1044.91 576.703C1046.72 576.494 1048.64 576.352 1050.18 576.27C1052.98 574.129 1057.16 565.347 1058.07 551.724L1059.25 552.037L1078.91 557.416C1078.91 557.416 1078 563.661 1077.56 569.563C1077.22 574.189 1077.17 578.606 1078.04 579.68C1079.58 580.016 1080.5 580.232 1080.5 580.232C1084.59 587.209 1088.01 594.564 1090.7 602.197Z" fill="#FC9290"/>
<path d="M1078.88 557.416C1078.88 557.416 1077.97 563.661 1077.53 569.57C1066.4 568.451 1061.23 557.857 1059.22 552.037L1078.88 557.416Z" fill="#EA8888"/>
<path d="M1082.2 563.303C1082.2 563.303 1055.77 561.811 1056.93 545.397C1058.1 528.983 1055.44 517.687 1072.38 517.918C1089.33 518.149 1092.14 524.633 1093.09 530.244C1094.04 535.854 1089.11 563.236 1082.2 563.303Z" fill="#FC9290"/>
<path d="M1092.96 521.029C1089.23 515.807 1086.08 516.657 1084.24 518.045C1070.38 509.092 1060.24 520.134 1060.24 520.134C1058.55 527.233 1054.45 533.525 1048.63 537.936C1048.63 537.936 1053.23 541.256 1064.53 539.197C1067.98 538.57 1071.18 536.376 1073.96 533.638C1070.69 538.207 1066.81 542.306 1062.43 545.822C1076.12 540.652 1082.76 522.604 1083.44 520.694C1084.93 522.26 1087.91 525.633 1088.66 528.781C1089.67 533.064 1094.05 539.756 1096.58 539.644C1096.57 539.644 1098.55 528.886 1092.96 521.029Z" fill="#0B0754"/>
<path d="M1028.91 655.931C1026.52 643.732 1018.74 594.982 1026.52 579.299C1029.31 573.666 1040.28 573.152 1052.31 573.651C1056.04 576.069 1070.33 585.201 1076.19 584.097C1076.3 584.077 1076.41 584.053 1076.52 584.022C1079.28 583.328 1080.32 581.388 1078.01 579.717C1082.48 579.422 1086.97 579.698 1091.37 580.538C1095.55 581.329 1106.83 587.163 1106.83 587.163C1106.83 587.163 1101.15 597.415 1092.78 600.959C1094.2 613.694 1092.08 619.313 1078.88 648.709C1067.68 673.569 1080.37 695.959 1080.37 695.959C1080.37 695.959 1014.65 748.79 1014.28 721.893C1014.03 701.615 1031.94 671.524 1028.91 655.931Z" fill="#DDE8FD"/>
<path d="M1083.64 753.386C1085.4 753.188 1087.1 752.606 1088.62 751.682C1090.14 750.758 1091.44 749.514 1092.43 748.037L1093.44 746.507C1100.9 735.182 1103.84 700.503 1120.66 663.556C1124.77 654.603 1139.47 652.947 1143.49 642.777C1143.49 642.777 1153.36 609.822 1124.59 608.852C1095.81 607.882 1047.53 700.585 1046.76 710.284C1046.02 719.678 1027.74 759.691 1083.64 753.386Z" fill="#E75755"/>
<path d="M1198 752.625H1157.04C1157.04 752.625 1155.51 746.097 1158.2 741.65C1160.58 737.718 1159.69 735.48 1157.91 732.227C1160.08 733.167 1162.44 733.611 1164.8 733.525C1166.97 733.279 1169.06 732.547 1170.9 731.384C1172.66 733.391 1180.21 741.949 1182.56 743.642C1185.24 745.56 1197.17 744.881 1198 752.625Z" fill="#030231"/>
<path d="M1033.22 592.073C1033.22 592.073 1027.89 640.569 1062.46 650.723C1097.03 660.878 1106.84 606.114 1078.93 602.175C1051.01 598.235 1033.22 592.073 1033.22 592.073Z" fill="#BED2FA"/>
<path d="M1144.42 618.373C1146.89 636.861 1156.51 695.221 1173.52 723.677C1179 732.854 1159.72 737.994 1159.62 737.972C1157.03 737.293 1152.72 733.175 1150.74 731.384C1136.95 718.954 1108.95 683.761 1108.95 655.551C1108.95 641.793 1108.71 615.515 1118.71 608.838C1124.86 604.727 1143.44 611.053 1144.42 618.373Z" fill="#ED6966"/>
<path d="M1059.21 752.625C1059.21 752.625 1060.71 750.514 1063.38 746.507C1066.53 741.74 1070.01 732.331 1074.24 720.319C1078.72 707.688 1083.94 692.147 1090.54 675.971C1092.58 670.98 1094.73 665.929 1097.03 660.885C1101.13 651.932 1112.4 653.133 1116.43 642.979C1116.43 642.979 1132.1 607.726 1103.31 606.756C1074.51 605.786 1019.85 701.048 1016.75 710.277C1013.29 720.364 996.478 762.31 1059.21 752.625Z" fill="#FA7269"/>
<path d="M1167.94 752.625H1126.98C1126.98 752.625 1125.49 746.097 1128.14 741.65C1130.52 737.718 1129.63 735.48 1127.85 732.227C1130.02 733.167 1132.38 733.611 1134.74 733.525C1136.91 733.279 1138.99 732.547 1140.84 731.384C1142.6 733.391 1150.14 741.949 1152.5 743.642C1155.18 745.56 1167.11 744.881 1167.94 752.625Z" fill="#0B0754"/>
<path d="M1074.24 720.319C1078.72 707.688 1083.94 692.147 1090.54 675.971C1088.82 663.72 1085.11 653.006 1078.88 648.686C1078.88 648.686 1063.74 695.571 1074.24 720.319Z" fill="#ED6966"/>
<path d="M1120.51 617.067C1122.98 635.548 1126.48 695.206 1143.44 723.677C1148.92 732.854 1129.65 737.994 1129.54 737.972C1126.95 737.293 1122.65 733.175 1120.66 731.384C1106.87 718.954 1078.88 683.761 1078.88 655.551C1078.88 641.793 1095.02 616.619 1104.99 609.942C1106.42 609.002 1108.06 608.441 1109.76 608.312C1111.47 608.182 1113.18 608.488 1114.73 609.201C1116.28 609.913 1117.63 611.009 1118.64 612.385C1119.65 613.762 1120.3 615.373 1120.51 617.067Z" fill="#FA7269"/>
<path d="M1087.16 553.828C1087.16 553.828 1084.67 552.835 1077.63 553.41C1077.63 553.41 1078 556.148 1083.19 556.394C1084.03 556.424 1084.87 556.193 1085.58 555.734C1086.29 555.275 1086.84 554.61 1087.16 553.828Z" fill="white"/>
<path d="M1209.42 564.116L1200.92 548.799L1182.56 600.048L1193.39 611.68L1209.42 564.116Z" fill="#0B0754"/>
<path d="M1165.08 573.092L1148.01 621.864L1193.39 611.68L1209.42 564.116L1165.08 573.092Z" fill="#0B0754"/>
<path d="M1148.91 619.402L1148.11 618.014L1164.27 571.853L1165.08 573.092L1148.91 619.402Z" fill="#DDE8FD"/>
<path d="M1164.27 571.853L1207.3 563.482L1209.42 564.116L1165.08 573.092L1164.27 571.853Z" fill="white"/>
<path d="M1209.42 564.116L1200.23 549.545L1194.38 565.997L1207.3 563.482L1209.42 564.116Z" fill="#DDE8FD"/>
<path d="M1178.19 580.15C1176.7 579.866 1173.55 578.658 1170.34 577.792C1171.3 577.046 1172.37 576.136 1172.66 575.203C1173.24 573.398 1173.62 572.816 1171.71 573.383C1169.8 573.95 1163.13 577.016 1163.13 577.016C1159.34 578.121 1155.85 583.478 1155.85 583.478C1155.85 583.478 1108.93 599.974 1103.28 600.257C1094.55 600.698 1036.43 579.292 1036.43 579.292C1022.71 582.321 1025.79 599.176 1030.5 602.167C1035.22 605.159 1077.05 620.372 1101.84 620.656C1114.39 620.797 1160.04 591.446 1160.04 591.446C1160.04 591.446 1165.37 589.014 1169.56 589.775C1173.76 590.536 1183.49 589.775 1185.58 586.343C1187.68 582.911 1180.66 580.627 1178.19 580.15Z" fill="#FC9290"/>
<path d="M1066.38 589.857C1066.38 589.857 1061.16 606.271 1043.33 610.054C1043.33 610.054 1013.84 600.974 1028.52 580.889C1028.52 580.889 1043.04 570.1 1066.38 589.857Z" fill="#DDE8FD"/>
<path d="M1208.65 581.388C1208.66 580.938 1208.61 580.488 1208.49 580.053C1208.49 580.053 1204.28 573.398 1202.9 573.129C1198.71 572.301 1198.71 577.822 1199.6 581.381C1200.23 583.688 1201.43 585.803 1203.08 587.536L1202.9 592.759C1204.91 591.678 1206.53 590.008 1207.56 587.975C1208.59 585.942 1208.97 583.644 1208.65 581.388Z" fill="#FC9290"/>
<path d="M552.705 620.663H807.826C823.855 620.663 839.228 627.03 850.563 638.364C861.897 649.697 868.265 665.069 868.265 681.097V690.535C868.265 706.937 861.749 722.667 850.15 734.265C838.551 745.863 822.819 752.379 806.415 752.379H552.705V620.663Z" fill="white"/>
<path d="M1103.69 674.867V694.691C1103.75 704.66 1101.78 714.538 1097.9 723.721C1090.5 740.882 1076.75 752.409 1061.01 752.409H544.251C540.834 752.409 538.065 748.678 538.065 744.045V741.061C538.065 736.442 540.834 732.697 544.251 732.697H850.417C853.259 732.712 856.041 731.872 858.4 730.286C860.759 728.7 862.587 726.441 863.646 723.804C863.646 723.804 863.646 723.744 863.646 723.707C866.74 715.671 868.307 707.129 868.265 698.518V673.338C868.273 668.83 867.845 664.333 866.989 659.908L866.944 659.691C865.83 654.218 862.854 649.3 858.523 645.773C854.192 642.246 848.772 640.328 843.186 640.345H544.251C540.834 640.345 538.065 636.615 538.065 631.974V628.99C538.065 624.364 540.834 620.618 544.251 620.618H1063.58C1081.88 620.618 1097.31 637.212 1102.1 659.885C1103.15 664.81 1103.68 669.832 1103.69 674.867Z" fill="#9E332E"/>
<path d="M552.705 686.536L590.968 688.752L552.705 690.087V686.536Z" fill="#BED2FA"/>
<path d="M552.705 707.21L643.729 709.426L552.705 710.762V707.21Z" fill="#BED2FA"/>
<path d="M837.194 662.452C837.194 662.452 829.733 667.011 827.248 674.516C826.801 675.874 826.55 677.288 826.502 678.717C826.091 688.685 826.502 711.239 826.502 711.239L804.438 699.958L782.426 711.239V680.649C782.426 674.867 784.314 669.241 787.821 665.563C789.522 663.78 791.552 662.437 793.917 662.437L837.194 662.452Z" fill="#FA7269"/>
<path d="M837.194 662.452C837.194 662.452 829.733 667.011 827.248 674.516L783.023 674.964C783.023 674.964 784.761 664.22 793.887 662.452H837.194Z" fill="#E75755"/>
<path d="M529.925 448.375H515.3V520.776H529.925V448.375Z" fill="white"/>
<path d="M510.786 462.401H496.161V520.783H510.786V462.401Z" fill="#BED2FA"/>
<path d="M494.124 459.26H479.499V520.783H494.124V459.26Z" fill="#93B3F4"/>
<path d="M471.329 448.375H456.704V520.776H471.329V448.375Z" fill="white"/>
<path d="M452.19 462.401H437.565V520.783H452.19V462.401Z" fill="#BED2FA"/>
<path d="M402.786 516.493C402.786 516.493 407.479 536.832 421.142 536.832C432.849 536.832 448.914 510.36 448.914 510.36L402.786 516.493Z" fill="#FA7269"/>
<path d="M558.876 818.685L551.034 822.848C551.034 822.848 508.644 777.903 498.452 734.808C496.592 727.462 495.992 719.853 496.676 712.306C496.676 712.306 496.057 710.351 494.982 706.897C494.93 706.748 494.885 706.599 494.84 706.442L493.214 701.085C491.169 694.571 488.356 685.648 485.155 675.494C477.776 652.133 460.897 599.392 453.689 577.509L505.518 558.759C505.518 558.759 511.405 572.189 519.867 608.666C521.165 613.433 522.471 618.693 523.694 624.431C525.075 630.937 526.366 638.04 527.425 645.717C529.431 660.191 530.465 674.782 530.522 689.394C530.552 695.924 530.38 702.684 530.007 709.672C529.723 714.798 530.477 721.61 531.91 729.384C538.431 764.891 558.876 818.685 558.876 818.685Z" fill="#0B0754"/>
<path d="M587.267 838.546H545.363C545.363 838.546 543.796 831.831 546.549 827.317C548.982 823.288 548.041 820.998 546.243 817.67C548.468 818.632 550.88 819.086 553.302 818.998C555.518 818.749 557.649 817.999 559.532 816.804C561.338 818.864 569.061 827.615 571.471 829.346C574.209 831.316 586.424 830.615 587.267 838.546Z" fill="#030231"/>
<path d="M527.41 645.717L494.855 706.405L493.214 701.085C491.169 694.571 488.356 685.648 485.155 675.494C477.776 652.133 460.897 599.392 453.689 577.509L505.518 558.759C505.518 558.759 511.405 572.189 519.867 608.666C521.165 613.433 522.471 618.693 523.694 624.431C525.045 630.937 526.336 638.04 527.41 645.717Z" fill="#030231"/>
<path d="M452.816 825.429C452.816 825.429 449.914 832.547 452.645 838.546H475.44C475.44 838.546 475.91 833.137 467.643 826.862C461.375 822.109 452.816 825.429 452.816 825.429Z" fill="#030231"/>
<path d="M477.619 362.17C477.619 361.036 478.216 348.8 496.803 347.711C496.803 347.711 487.684 349.024 486.2 353.083C486.2 353.083 492.303 347.965 497.392 349.442C502.481 350.919 505.697 359.731 505.801 362.655C505.906 365.58 503.309 375.063 500.108 375.943C498.829 376.237 497.505 376.27 496.213 376.04C497.164 377.457 498.034 378.927 498.817 380.442C506.607 395.498 499.884 413.271 493.594 411.741C489.535 410.786 487.073 417.814 487.073 417.814L448.063 384.24C448.063 384.24 461.725 354.172 477.619 362.17Z" fill="#0B0754"/>
<path d="M453.1 464.072C458.117 467.458 463.738 469.849 469.657 471.115C495.168 477.017 504.951 455.447 508.622 440.645C505.958 439.167 503.015 438.263 499.981 437.989C498.131 437.772 496.191 437.631 494.586 437.549C491.721 435.355 487.453 426.357 486.506 412.427L485.304 412.748L465.195 418.255C465.195 418.255 466.12 424.649 466.568 430.684C466.919 435.415 466.971 439.936 466.076 441.04L463.569 441.6C459.367 448.738 455.862 456.264 453.1 464.072Z" fill="#FC9290"/>
<path d="M465.195 418.262C465.195 418.262 466.12 424.649 466.568 430.699C477.962 429.558 483.252 418.71 485.312 412.793L465.195 418.262Z" fill="#EA8888"/>
<path d="M464.964 427.857C464.964 427.857 491.191 421.142 486.744 404.847C482.297 388.552 482.685 376.749 465.747 380.368C448.809 383.986 447.272 391.074 447.436 396.864C447.601 402.654 458.024 429.192 464.964 427.857Z" fill="#FC9290"/>
<path d="M445.728 387.612C448.421 381.644 451.764 381.845 453.876 382.845C465.994 371.079 478.38 380.159 478.38 380.159C481.491 386.953 486.866 392.454 493.587 395.722C493.587 395.722 489.632 399.968 477.917 400.199C474.328 400.259 470.679 398.707 467.344 396.468C471.537 400.398 476.246 403.736 481.342 406.392C466.576 403.937 456.301 387.15 455.226 385.367C454.025 387.239 451.734 391.208 451.615 394.521C451.451 398.998 453.212 407.705 450.645 408.1C450.638 408.115 441.728 396.61 445.728 387.612Z" fill="#0B0754"/>
<path d="M457.398 440.257C457.398 440.257 501.421 429.558 520.605 445.36L511.054 578.859L424.895 558.081C424.895 558.081 427.32 549.635 443.84 527.17C460.36 504.705 453.175 471.727 457.398 440.257Z" fill="#FC9290"/>
<path d="M483.103 564.004C483.103 564.004 483.051 564.452 482.961 565.318C482.961 565.683 482.872 566.138 482.819 566.661C482.446 570.115 481.745 576.755 480.835 585.388C478.477 608.032 474.761 644.396 472.239 673.099C470.254 695.541 469.001 713.306 469.68 716.156C471.724 724.736 469.68 827.324 469.68 827.324C462.36 830.831 451.257 827.324 451.257 827.324C451.257 827.324 431.745 734.905 434.476 722.035C436.063 714.078 435.433 705.837 432.655 698.212C417.508 627.684 419.164 588.596 422.171 569.884C422.75 566.017 423.616 562.199 424.761 558.461C425.051 557.504 425.397 556.565 425.798 555.648C459.211 546.658 483.103 564.004 483.103 564.004Z" fill="#030231"/>
<path d="M526.567 483.471C524.448 499.534 515.934 519.186 512.897 529.729C512.897 529.729 517.979 566.459 513.129 576.546C512.737 577.539 512.004 578.359 511.062 578.859C493.094 586.686 423.126 579.083 420.172 556.521C419.097 548.314 446.825 519.477 448.436 515.978C449.108 514.531 449.824 509.838 446.571 500.109C441.967 514.285 416.538 510.226 416.538 510.226C419.522 505.123 426.984 469.795 435.259 453.851C441.497 441.861 458.166 440.123 458.166 440.123C458.166 440.123 465.106 451.128 481.879 449.568C498.653 448.009 501.72 437.735 501.72 437.735C501.72 437.735 516.643 439.712 521.187 443.413C521.978 444.055 529.358 462.394 526.567 483.471Z" fill="#FA7269"/>
<path d="M512.897 529.729C512.897 529.729 517.979 566.459 513.128 576.546C500.033 569.973 482.976 555.797 488.169 533.638C495.713 501.444 526.567 483.471 526.567 483.471C524.448 499.497 515.934 519.149 512.897 529.729Z" fill="#ED6966"/>
<path d="M458.256 486.299L488.259 534.422H437.214L408.628 487.336L458.256 486.299Z" fill="#0B0754"/>
<path d="M486.692 532.004L487.214 530.326L458.823 484.784L458.256 486.299L486.692 532.004Z" fill="#DDE8FD"/>
<path d="M458.823 484.784L410.74 486.149L408.628 487.336L458.256 486.299L458.823 484.784Z" fill="white"/>
<path d="M408.629 487.336L381.655 472.742L413.098 522.111L437.214 534.422L408.629 487.336Z" fill="#030231"/>
<path d="M551.414 521.059C548.527 522.38 541.11 531.117 538.461 532.004C526.522 535.989 475.903 525.387 475.903 525.387L477.47 516.515C477.47 516.515 527.186 517.836 532.686 516.374C533.715 516.098 539.088 507.697 541.155 506.488L551.414 521.059Z" fill="#FC9290"/>
<path d="M477.44 516.515C477.44 516.515 471.47 511.636 467.396 512.74C463.322 513.844 457.398 518.97 455.159 520.179C452.921 521.387 446.952 525.73 449.981 528.386C453.01 531.042 462.516 528.759 466.277 526.744C470.038 524.73 475.865 525.424 475.865 525.424L477.44 516.515Z" fill="#FC9290"/>
<path d="M468.545 512.569C468.545 512.569 461.255 511.696 459.263 511.74C457.271 511.785 457.816 512.21 458.912 513.755C460.009 515.299 463.807 515.896 463.979 516.433C464.151 516.97 468.545 512.569 468.545 512.569Z" fill="#FC9290"/>
<path d="M501.72 437.735C501.72 437.735 523.359 440.302 529.283 449.568C536.804 461.282 554.556 507.935 553.989 519.701C553.989 519.701 541.005 541.793 496.497 538.257C496.497 538.257 491.863 521.902 501.227 516.501C501.227 516.501 524.09 512.434 526.724 510.114L519.083 478.375L501.72 437.735Z" fill="#FA7269"/>
<path d="M415.538 504.928C414.866 502.205 408.934 503.906 406.935 505.473C406.355 505.996 405.852 506.599 405.442 507.264C405.383 506.809 405.323 506.368 405.293 506.033C405.181 504.749 403.689 502.459 403.323 504.175C402.958 505.891 402.346 513.128 402.346 513.128C402.271 518.933 406.002 521.335 408.397 519.44C410.792 517.545 416.21 507.652 415.538 504.928Z" fill="#FC9290"/>
</g>
<defs>
<clipPath id="clip0">
<rect width="1574" height="843" fill="white"/>
</clipPath>
</defs>
</svg>
