<svg width="24" height="25" viewBox="0 0 24 25" fill="none" xmlns="http://www.w3.org/2000/svg">
<path d="M21.2838 8.33408L15.333 7.46314L12.6729 2.03219C12.6002 1.8835 12.4807 1.76313 12.333 1.68996C11.9627 1.50586 11.5127 1.65927 11.3276 2.03219L8.66741 7.46314L2.71663 8.33408C2.55257 8.35768 2.40257 8.43557 2.28773 8.55358C2.14889 8.69729 2.07238 8.89063 2.07502 9.09111C2.07765 9.29159 2.15922 9.48282 2.30179 9.62278L6.60726 13.85L5.59007 19.8191C5.56622 19.9579 5.58147 20.1007 5.63411 20.2313C5.68675 20.3619 5.77467 20.475 5.88789 20.5578C6.00111 20.6406 6.1351 20.6898 6.27468 20.6998C6.41425 20.7098 6.55383 20.6803 6.67757 20.6145L12.0002 17.7963L17.3229 20.6145C17.4682 20.6924 17.6369 20.7183 17.7987 20.69C18.2065 20.6192 18.4807 20.2298 18.4104 19.8191L17.3932 13.85L21.6987 9.62278C21.8158 9.50713 21.8932 9.35607 21.9166 9.19085C21.9799 8.77781 21.694 8.39544 21.2838 8.33408ZM15.5815 13.2552L16.4276 18.2188L12.0002 15.8775L7.57288 18.2212L8.41897 13.2576L4.83773 9.74079L9.78772 9.01619L12.0002 4.50102L14.2127 9.01619L19.1627 9.74079L15.5815 13.2552Z" fill="#FFD600"/>
</svg>
