<svg width="24" height="25" viewBox="0 0 24 25" fill="none" xmlns="http://www.w3.org/2000/svg">
<path d="M21.2838 8.33432L15.333 7.46339L12.6729 2.03244C12.6002 1.88374 12.4807 1.76337 12.333 1.6902C11.9627 1.5061 11.5127 1.65952 11.3276 2.03244L8.66741 7.46339L2.71663 8.33432C2.55257 8.35792 2.40257 8.43581 2.28773 8.55383C2.14889 8.69753 2.07238 8.89087 2.07502 9.09136C2.07765 9.29184 2.15922 9.48307 2.30179 9.62302L6.60726 13.8502L5.59007 19.8193C5.56622 19.9582 5.58147 20.101 5.63411 20.2316C5.68675 20.3621 5.77467 20.4752 5.88789 20.558C6.00111 20.6408 6.1351 20.69 6.27468 20.7001C6.41425 20.7101 6.55383 20.6805 6.67757 20.6147L12.0002 17.7966L17.3229 20.6147C17.4682 20.6926 17.6369 20.7186 17.7987 20.6903C18.2065 20.6195 18.4807 20.23 18.4104 19.8193L17.3932 13.8502L21.6987 9.62302C21.8158 9.50737 21.8932 9.35631 21.9166 9.19109C21.9799 8.77805 21.694 8.39569 21.2838 8.33432ZM15.5815 13.2555L16.4276 18.2191L12.0002 15.8777L7.57288 18.2214L8.41897 13.2578L4.83773 9.74104L9.78772 9.01644L12.0002 4.50127L14.2127 9.01644L19.1627 9.74104L15.5815 13.2555Z" fill="#FFD600"/>
</svg>
