<svg width="30" height="30" viewBox="0 0 30 30" fill="none" xmlns="http://www.w3.org/2000/svg">
<g clip-path="url(#clip0)">
<path d="M24.0657 2.26481H20.4022L21.3048 1.3622C21.6167 1.05027 21.6167 0.545877 21.3048 0.233947C20.9929 -0.0779824 20.4885 -0.0779824 20.1765 0.233947L17.92 2.4971C17.7674 2.64974 17.6877 2.84885 17.6877 3.06122C17.6877 3.2736 17.774 3.47271 17.92 3.62535L20.1832 5.8885C20.3358 6.04115 20.5416 6.12079 20.7473 6.12079C20.953 6.12079 21.1522 6.04115 21.3114 5.8885C21.6234 5.57657 21.6234 5.07218 21.3114 4.76025L20.4088 3.85764H24.0723C26.455 3.85764 28.3863 5.79559 28.3863 8.17156V10.8462C28.3863 11.2842 28.7447 11.6426 29.1827 11.6426C29.6207 11.6426 29.9791 11.2842 29.9791 10.8462V8.17156C29.9791 4.91289 27.3244 2.26481 24.0657 2.26481Z" fill="black"/>
<path d="M9.81667 24.113C9.50474 23.8011 9.00034 23.8011 8.68841 24.113C8.37648 24.4249 8.37648 24.9293 8.68841 25.2413L9.59102 26.1439H5.92751C3.54489 26.1439 1.61358 24.2059 1.61358 21.8299V19.1553C1.61358 18.7173 1.2552 18.3589 0.817168 18.3589C0.379139 18.3589 0.020752 18.7173 0.020752 19.1553V21.8299C0.020752 25.0886 2.66884 27.7367 5.92751 27.7367H9.59102L8.68841 28.6393C8.37648 28.9512 8.37648 29.4556 8.68841 29.7675C8.84106 29.9202 9.0468 29.9998 9.25254 29.9998C9.45828 29.9998 9.65739 29.9202 9.81667 29.7675L12.0798 27.5044C12.3917 27.1925 12.3917 26.6881 12.0798 26.3761L9.81667 24.113Z" fill="black"/>
<g clip-path="url(#clip1)">
<path d="M13.7382 4.15177C13.7382 3.77218 13.4297 3.46334 13.0506 3.46334H12.8288C12.6172 3.15527 12.5056 2.79609 12.5056 2.42012C12.5056 2.04414 12.6172 1.68497 12.8289 1.37688H13.0506C13.9355 1.37688 13.9415 0 13.0506 0H5.15061C4.89042 0 4.89042 0.402486 5.15061 0.402486H13.0506C13.4074 0.402486 13.4236 0.974391 13.0506 0.974391H2.41601C1.62011 0.974391 0.97262 1.62293 0.97262 2.42012C0.97262 3.21728 1.62014 3.86582 2.41601 3.86582H13.0506C13.4143 3.86582 13.4178 4.46013 13.0506 4.46013H11.3222H2.41601C1.88108 4.46013 1.3761 4.24641 0.994086 3.85836C0.612583 3.47088 0.402486 2.96007 0.402486 2.42012C0.402486 1.3076 1.30574 0.402486 2.41601 0.402486H4.07833C4.33853 0.402486 4.33853 0 4.07833 0H2.41601C1.08381 0 0 1.08566 0 2.42012C0 3.06638 0.251178 3.67743 0.707248 4.14075C0.826357 4.26173 0.955662 4.36823 1.09288 4.46013H0.687553C0.308438 4.46016 0 4.76897 0 5.14862C0 5.52822 0.308438 5.83706 0.687553 5.83706H0.909323C1.12098 6.14512 1.23257 6.50428 1.23257 6.88028C1.23257 7.25628 1.12098 7.61543 0.909323 7.92352H0.687553C0.308438 7.92352 0 8.23236 0 8.61196C0 8.99156 0.308438 9.3004 0.687553 9.3004H1.08341C0.431009 9.7342 0 10.4766 0 11.3181C0 12.6525 1.08381 13.7382 2.41601 13.7382H13.0506C13.9355 13.7382 13.9415 12.3613 13.0506 12.3613H12.8288C12.6172 12.0532 12.5056 11.694 12.5056 11.3181C12.5056 10.9421 12.6172 10.5829 12.8288 10.2748H13.0506C13.9355 10.2748 13.9415 8.89794 13.0506 8.89794H12.6548C13.3072 8.46411 13.7382 7.72171 13.7382 6.88028C13.7382 6.03884 13.3072 5.29644 12.6548 4.86264H13.0506C13.4233 4.86264 13.7382 4.53711 13.7382 4.15177ZM1.37511 2.42012C1.37511 1.84489 1.84207 1.37688 2.41601 1.37688H12.3595C12.1911 1.69696 12.1031 2.0519 12.1031 2.42012C12.1031 2.78831 12.1911 3.14325 12.3595 3.46334H2.41601C1.84204 3.46334 1.37511 2.99535 1.37511 2.42012ZM1.37867 5.83706H11.3222C11.8961 5.83706 12.3631 6.30505 12.3631 6.88028C12.3631 7.45551 11.8961 7.92352 11.3222 7.92352H10.4233V7.08152H10.9043C11.1645 7.08152 11.1645 6.67904 10.9043 6.67904H3.9735C3.71331 6.67904 3.71331 7.08152 3.9735 7.08152H8.25318V7.92352H1.37867C1.5471 7.60344 1.63506 7.2485 1.63506 6.88028C1.63506 6.51206 1.54707 6.15715 1.37867 5.83706ZM8.65567 7.08152H10.0208V10.5772L9.49356 10.0679C9.41656 9.9935 9.29479 9.99246 9.21647 10.0655L8.6557 10.5885V7.08152H8.65567ZM0.687553 8.89791C0.530369 8.89791 0.402486 8.76963 0.402486 8.61196C0.402486 8.45429 0.530369 8.32601 0.687553 8.32601H8.25318V8.89791H0.687553ZM12.3595 12.3613H9.92798C9.66779 12.3613 9.66779 12.7638 9.92798 12.7638H13.0506C13.4074 12.7638 13.4236 13.3357 13.0506 13.3357H2.41601C1.30574 13.3357 0.402486 12.4306 0.402486 11.3181C0.402486 10.2055 1.30574 9.30042 2.41601 9.30042H8.25318V9.87236H2.41601C1.62011 9.87236 0.97262 10.5209 0.97262 11.3181C0.97262 12.1152 1.62014 12.7638 2.41601 12.7638H8.85401C9.11421 12.7638 9.11421 12.3613 8.85401 12.3613H2.41601C1.84204 12.3613 1.37511 11.8933 1.37511 11.3181C1.37511 10.7428 1.84207 10.2748 2.41601 10.2748H8.25318V11.0515C8.25318 11.224 8.46554 11.3163 8.5917 11.1986L9.3513 10.4901L10.0822 11.1962C10.2105 11.3202 10.4233 11.2235 10.4233 11.0514V10.2748H12.3595C12.1911 10.5949 12.1031 10.9498 12.1031 11.318C12.1031 11.6863 12.1911 12.0412 12.3595 12.3613ZM13.0506 9.3004C13.4074 9.3004 13.4236 9.87233 13.0506 9.87233H10.4233V9.3004H11.3222H13.0506ZM13.3357 6.88028C13.3357 7.9928 12.4324 8.89791 11.3222 8.89791H10.4233V8.32601H11.3222C12.1181 8.32601 12.7656 7.67747 12.7656 6.88028C12.7656 6.08312 12.118 5.43458 11.3222 5.43458H0.687553C0.530369 5.43458 0.402486 5.30629 0.402486 5.14862C0.402486 4.99093 0.530369 4.86264 0.687553 4.86264H2.41601H11.3222C12.4324 4.86264 13.3357 5.76775 13.3357 6.88028Z" fill="black"/>
</g>
<g clip-path="url(#clip2)">
<path d="M29.9984 20.412C29.9984 20.0324 29.69 19.7236 29.3109 19.7236H29.0891C28.8775 19.4155 28.7659 19.0563 28.7659 18.6804C28.7659 18.3044 28.8775 17.9452 29.0891 17.6371H29.3109C30.1957 17.6371 30.2018 16.2603 29.3109 16.2603H21.4109C21.1507 16.2603 21.1507 16.6627 21.4109 16.6627H29.3109C29.6677 16.6627 29.6839 17.2346 29.3109 17.2346H18.6763C17.8804 17.2346 17.2329 17.8832 17.2329 18.6804C17.2329 19.4775 17.8804 20.1261 18.6763 20.1261H29.3109C29.6745 20.1261 29.678 20.7204 29.3109 20.7204H27.5824H18.6763C18.1413 20.7204 17.6364 20.5067 17.2543 20.1186C16.8728 19.7311 16.6627 19.2203 16.6627 18.6804C16.6627 17.5678 17.566 16.6627 18.6763 16.6627H20.3386C20.5988 16.6627 20.5988 16.2603 20.3386 16.2603H18.6763C17.3441 16.2603 16.2603 17.3459 16.2603 18.6804C16.2603 19.3266 16.5114 19.9377 16.9675 20.401C17.0866 20.522 17.2159 20.6285 17.3531 20.7204H16.9478C16.5687 20.7204 16.2603 21.0292 16.2603 21.4089C16.2603 21.7885 16.5687 22.0973 16.9478 22.0973H17.1696C17.3812 22.4054 17.4928 22.7645 17.4928 23.1405C17.4928 23.5165 17.3812 23.8757 17.1696 24.1838H16.9478C16.5687 24.1838 16.2603 24.4926 16.2603 24.8722C16.2603 25.2518 16.5687 25.5607 16.9478 25.5607H17.3437C16.6913 25.9945 16.2603 26.7368 16.2603 27.5783C16.2603 28.9128 17.3441 29.9984 18.6763 29.9984H29.3109C30.1957 29.9984 30.2018 28.6215 29.3109 28.6215H29.0891C28.8775 28.3135 28.7659 27.9543 28.7659 27.5783C28.7659 27.2023 28.8775 26.8432 29.0891 26.5351H29.3109C30.1957 26.5351 30.2018 25.1582 29.3109 25.1582H28.915C29.5674 24.7244 29.9984 23.982 29.9984 23.1405C29.9984 22.2991 29.5674 21.5567 28.915 21.1229H29.3109C29.6836 21.1229 29.9984 20.7974 29.9984 20.412ZM17.6354 18.6804C17.6354 18.1051 18.1023 17.6371 18.6763 17.6371H28.6198C28.4513 17.9572 28.3634 18.3122 28.3634 18.6804C28.3634 19.0486 28.4513 19.4035 28.6197 19.7236H18.6763C18.1023 19.7236 17.6354 19.2556 17.6354 18.6804ZM17.6389 22.0973H27.5824C28.1564 22.0973 28.6233 22.5653 28.6233 23.1405C28.6233 23.7158 28.1564 24.1838 27.5824 24.1838H26.6835V23.3418H27.1645C27.4247 23.3418 27.4247 22.9393 27.1645 22.9393H20.2338C19.9736 22.9393 19.9736 23.3418 20.2338 23.3418H24.5134V24.1838H17.6389C17.8074 23.8637 17.8953 23.5088 17.8953 23.1405C17.8953 22.7723 17.8073 22.4174 17.6389 22.0973ZM24.9159 23.3418H26.281V26.8375L25.7538 26.3282C25.6768 26.2538 25.555 26.2527 25.4767 26.3257L24.916 26.8488V23.3418H24.9159ZM16.9478 25.1582C16.7906 25.1582 16.6627 25.0299 16.6627 24.8722C16.6627 24.7145 16.7906 24.5863 16.9478 24.5863H24.5134V25.1582H16.9478ZM28.6198 28.6215H26.1882C25.928 28.6215 25.928 29.024 26.1882 29.024H29.3109C29.6677 29.024 29.6839 29.5959 29.3109 29.5959H18.6763C17.566 29.5959 16.6627 28.6908 16.6627 27.5783C16.6627 26.4658 17.566 25.5607 18.6763 25.5607H24.5134V26.1326H18.6763C17.8804 26.1326 17.2329 26.7811 17.2329 27.5783C17.2329 28.3755 17.8804 29.024 18.6763 29.024H25.1143C25.3745 29.024 25.3745 28.6215 25.1143 28.6215H18.6763C18.1023 28.6215 17.6354 28.1535 17.6354 27.5783C17.6354 27.0031 18.1023 26.5351 18.6763 26.5351H24.5134V27.3117C24.5134 27.4842 24.7258 27.5766 24.852 27.4589L25.6116 26.7503L26.3424 27.4564C26.4708 27.5805 26.6835 27.4837 26.6835 27.3117V26.5351H28.6198C28.4514 26.8552 28.3634 27.2101 28.3634 27.5783C28.3634 27.9465 28.4514 28.3014 28.6198 28.6215ZM29.3109 25.5607C29.6677 25.5607 29.6839 26.1326 29.3109 26.1326H26.6835V25.5607H27.5824H29.3109ZM29.5959 23.1405C29.5959 24.2531 28.6927 25.1582 27.5824 25.1582H26.6835V24.5863H27.5824C28.3783 24.5863 29.0258 23.9377 29.0258 23.1405C29.0258 22.3434 28.3783 21.6948 27.5824 21.6948H16.9478C16.7906 21.6948 16.6627 21.5665 16.6627 21.4089C16.6627 21.2512 16.7906 21.1229 16.9478 21.1229H18.6763H27.5824C28.6927 21.1229 29.5959 22.028 29.5959 23.1405Z" fill="black"/>
</g>
</g>
<defs>
<clipPath id="clip0">
<rect width="30" height="30" fill="white"/>
</clipPath>
<clipPath id="clip1">
<rect width="13.7382" height="13.7382" fill="white"/>
</clipPath>
<clipPath id="clip2">
<rect width="13.7382" height="13.7382" fill="white" transform="translate(16.2603 16.2603)"/>
</clipPath>
</defs>
</svg>
