<svg width="24" height="24" viewBox="0 0 24 24" fill="none" xmlns="http://www.w3.org/2000/svg">
<path d="M14.0296 17.8595C13.9001 17.6353 13.6134 17.5585 13.3893 17.6879L12.4686 18.2195V17.1564C12.4686 16.8975 12.2587 16.6876 11.9999 16.6876C11.741 16.6876 11.5311 16.8975 11.5311 17.1564V18.2195L10.6104 17.6879C10.3861 17.5585 10.0996 17.6353 9.97012 17.8595C9.84065 18.0837 9.91748 18.3704 10.1417 18.4998L11.0624 19.0313L10.1417 19.5629C9.91748 19.6923 9.84065 19.979 9.97012 20.2032C10.057 20.3536 10.2145 20.4376 10.3765 20.4376C10.456 20.4376 10.5367 20.4174 10.6104 20.3748L11.5311 19.8432V20.9063C11.5311 21.1652 11.741 21.375 11.9999 21.375C12.2587 21.375 12.4686 21.1652 12.4686 20.9063V19.8432L13.3893 20.3748C13.4631 20.4174 13.5437 20.4376 13.6232 20.4376C13.7852 20.4376 13.9427 20.3536 14.0296 20.2032C14.1591 19.979 14.0822 19.6923 13.858 19.5629L12.9374 19.0313L13.858 18.4998C14.0822 18.3704 14.159 18.0837 14.0296 17.8595Z" fill="#8B8B8B"/>
<path d="M7.60771 17.8595C7.47829 17.6353 7.1916 17.5585 6.9674 17.6879L6.04673 18.2195V17.1564C6.04673 16.8975 5.83682 16.6876 5.57798 16.6876C5.31914 16.6876 5.10923 16.8975 5.10923 17.1564V18.2195L4.18856 17.6879C3.96431 17.5585 3.67776 17.6353 3.54825 17.8595C3.41878 18.0837 3.49561 18.3704 3.71981 18.4998L4.64048 19.0313L3.71981 19.5629C3.49561 19.6923 3.41878 19.979 3.54825 20.2032C3.63511 20.3536 3.79261 20.4376 3.95465 20.4376C4.03415 20.4376 4.11478 20.4174 4.18856 20.3748L5.10923 19.8432V20.9063C5.10923 21.1652 5.31914 21.375 5.57798 21.375C5.83682 21.375 6.04673 21.1652 6.04673 20.9063V19.8432L6.9674 20.3748C7.04123 20.4174 7.12181 20.4376 7.20131 20.4376C7.36331 20.4376 7.52085 20.3536 7.60771 20.2032C7.73718 19.979 7.66035 19.6923 7.43615 19.5629L6.51548 19.0313L7.43615 18.4998C7.66035 18.3704 7.73714 18.0837 7.60771 17.8595Z" fill="#8B8B8B"/>
<path d="M16.392 20.2032C16.4789 20.3536 16.6364 20.4376 16.7984 20.4376C16.8779 20.4376 16.9585 20.4174 17.0323 20.3748L17.953 19.8432V20.9063C17.953 21.1652 18.1629 21.375 18.4217 21.375C18.6806 21.375 18.8905 21.1652 18.8905 20.9063V19.8432L19.8111 20.3748C19.885 20.4174 19.9656 20.4376 20.0451 20.4376C20.2071 20.4376 20.3646 20.3536 20.4515 20.2032C20.5809 19.979 20.5041 19.6923 20.2799 19.5629L19.3592 19.0313L20.2799 18.4998C20.5041 18.3704 20.5809 18.0837 20.4515 17.8595C20.322 17.6353 20.0354 17.5585 19.8111 17.6879L18.8905 18.2195V17.1564C18.8905 16.8975 18.6806 16.6876 18.4217 16.6876C18.1629 16.6876 17.953 16.8975 17.953 17.1564V18.2195L17.0323 17.6879C16.808 17.5585 16.5215 17.6353 16.392 17.8595C16.2625 18.0837 16.3394 18.3704 16.5636 18.4998L17.4842 19.0313L16.5636 19.5629C16.3394 19.6923 16.2625 19.979 16.392 20.2032Z" fill="#8B8B8B"/>
<path d="M21.6562 14.0627H14.1123C13.8535 14.0627 13.6436 14.2725 13.6436 14.5314C13.6436 14.7903 13.8535 15.0002 14.1123 15.0002H21.6562C22.4317 15.0002 23.0625 15.631 23.0625 16.4064V21.6563C23.0625 22.4317 22.4317 23.0625 21.6562 23.0625H2.34375C1.56834 23.0625 0.9375 22.4317 0.9375 21.6563V16.4064C0.9375 15.631 1.56834 15.0002 2.34375 15.0002H9.89358C10.1524 15.0002 10.3623 14.7903 10.3623 14.5314C10.3623 14.2725 10.1524 14.0627 9.89358 14.0627H2.34375C1.05141 14.0627 0 15.1141 0 16.4064V21.6563C0 22.9486 1.05141 24 2.34375 24H21.6562C22.9486 24 24 22.9486 24 21.6563V16.4064C24 15.1141 22.9486 14.0627 21.6562 14.0627V14.0627Z" fill="#8B8B8B"/>
<path d="M12 9.98467C12.2589 9.98467 12.4688 9.77481 12.4688 9.51592V7.51318C12.4688 7.25429 12.2589 7.04443 12 7.04443C11.7412 7.04443 11.5312 7.25429 11.5312 7.51318V9.51592C11.5312 9.77481 11.7411 9.98467 12 9.98467Z" fill="#8B8B8B"/>
<path d="M8.625 12.9377H15.375C16.4606 12.9377 17.3437 12.0545 17.3437 10.969V6.06005C17.3437 4.97449 16.4606 4.09133 15.375 4.09133H15.2812V3.2812C15.2812 1.47195 13.8093 0 12 0C10.1907 0 8.71875 1.47195 8.71875 3.2812V4.09133H8.625C7.53942 4.09133 6.65625 4.97449 6.65625 6.06005V10.969C6.65625 12.0545 7.53942 12.9377 8.625 12.9377V12.9377ZM9.65625 3.2812C9.65625 1.98888 10.7077 0.937485 12 0.937485C13.2923 0.937485 14.3437 1.98888 14.3437 3.2812V4.09133H9.65625V3.2812ZM7.59375 6.06005C7.59375 5.49141 8.05636 5.02881 8.625 5.02881H15.375C15.9436 5.02881 16.4062 5.49141 16.4062 6.06005V10.969C16.4062 11.5376 15.9436 12.0002 15.375 12.0002H8.625C8.05636 12.0002 7.59375 11.5376 7.59375 10.969V6.06005Z" fill="#8B8B8B"/>
<path d="M12.0029 15.0032C12.1262 15.0032 12.2472 14.9531 12.3343 14.8659C12.422 14.7787 12.4717 14.6578 12.4717 14.5345C12.4717 14.4107 12.422 14.2903 12.3343 14.2031C12.2472 14.1159 12.1262 14.0657 12.0029 14.0657C11.8797 14.0657 11.7587 14.1159 11.6716 14.2031C11.5844 14.2903 11.5342 14.4107 11.5342 14.5345C11.5342 14.6578 11.5843 14.7787 11.6716 14.8659C11.7588 14.9531 11.8797 15.0032 12.0029 15.0032Z" fill="#8B8B8B"/>
</svg>
