<svg width="271" height="61" viewBox="0 0 271 61" fill="none" xmlns="http://www.w3.org/2000/svg">
<path d="M87 13.5295H100.715C103.586 13.5295 105.724 14.1887 107.128 15.5071C108.564 16.8255 109.282 18.8184 109.282 21.4858C109.282 23.7241 108.876 25.4257 108.065 26.5908C107.253 27.7559 105.989 28.5377 104.273 28.9363V29.1203C106.145 29.5495 107.487 30.3314 108.299 31.4658C109.141 32.6002 109.563 34.3632 109.563 36.7547C109.563 39.5142 108.876 41.6144 107.503 43.0554C106.13 44.4658 103.867 45.171 100.715 45.171H87V13.5295ZM98.3749 26.2689C99.3736 26.2689 100.123 26.1769 100.622 25.9929C101.121 25.809 101.464 25.487 101.652 25.0271C101.839 24.5366 101.933 23.816 101.933 22.8656C101.933 21.8538 101.839 21.1179 101.652 20.658C101.496 20.1981 101.168 19.8915 100.669 19.7382C100.201 19.5542 99.436 19.4623 98.3749 19.4623H94.2088V26.2689H98.3749ZM98.5622 39.2382C99.6232 39.2382 100.388 39.1462 100.856 38.9623C101.355 38.7783 101.698 38.4564 101.886 37.9965C102.073 37.5059 102.167 36.7394 102.167 35.6969C102.167 34.6545 102.073 33.888 101.886 33.3974C101.698 32.9068 101.355 32.5696 100.856 32.3856C100.357 32.2017 99.592 32.1097 98.5622 32.1097H94.2088V39.2382H98.5622Z" fill="white"/>
<path d="M123.413 45.5389C120.261 45.5389 117.983 45.2016 116.579 44.5271C115.206 43.8526 114.332 42.7335 113.958 41.1698C113.583 39.5755 113.396 37 113.396 33.4434C113.396 29.8868 113.583 27.3266 113.958 25.763C114.332 24.1686 115.206 23.0342 116.579 22.3597C117.983 21.6851 120.261 21.3479 123.413 21.3479C126.565 21.3479 128.828 21.6851 130.201 22.3597C131.574 23.0342 132.448 24.1686 132.822 25.763C133.228 27.3266 133.431 29.8868 133.431 33.4434C133.431 36.9693 133.228 39.5295 132.822 41.1238C132.448 42.6875 131.574 43.8219 130.201 44.5271C128.828 45.2016 126.565 45.5389 123.413 45.5389ZM123.413 40.25C124.537 40.25 125.301 40.112 125.707 39.8361C126.113 39.5601 126.362 39.0083 126.456 38.1804C126.581 37.3526 126.643 35.7736 126.643 33.4434C126.643 31.1132 126.581 29.5342 126.456 28.7064C126.362 27.8479 126.113 27.296 125.707 27.0507C125.301 26.7748 124.537 26.6368 123.413 26.6368C122.29 26.6368 121.51 26.7748 121.073 27.0507C120.667 27.296 120.418 27.8325 120.324 28.6604C120.23 29.4882 120.183 31.0825 120.183 33.4434C120.183 35.8042 120.23 37.3986 120.324 38.2264C120.418 39.0236 120.667 39.5601 121.073 39.8361C121.51 40.112 122.29 40.25 123.413 40.25Z" fill="white"/>
<path d="M147.139 45.5389C143.987 45.5389 141.709 45.2016 140.304 44.5271C138.931 43.8526 138.057 42.7335 137.683 41.1698C137.308 39.5755 137.121 37 137.121 33.4434C137.121 29.8868 137.308 27.3266 137.683 25.763C138.057 24.1686 138.931 23.0342 140.304 22.3597C141.709 21.6851 143.987 21.3479 147.139 21.3479C150.29 21.3479 152.553 21.6851 153.926 22.3597C155.299 23.0342 156.173 24.1686 156.547 25.763C156.953 27.3266 157.156 29.8868 157.156 33.4434C157.156 36.9693 156.953 39.5295 156.547 41.1238C156.173 42.6875 155.299 43.8219 153.926 44.5271C152.553 45.2016 150.29 45.5389 147.139 45.5389ZM147.139 40.25C148.262 40.25 149.027 40.112 149.432 39.8361C149.838 39.5601 150.088 39.0083 150.181 38.1804C150.306 37.3526 150.368 35.7736 150.368 33.4434C150.368 31.1132 150.306 29.5342 150.181 28.7064C150.088 27.8479 149.838 27.296 149.432 27.0507C149.027 26.7748 148.262 26.6368 147.139 26.6368C146.015 26.6368 145.235 26.7748 144.798 27.0507C144.392 27.296 144.143 27.8325 144.049 28.6604C143.955 29.4882 143.909 31.0825 143.909 33.4434C143.909 35.8042 143.955 37.3986 144.049 38.2264C144.143 39.0236 144.392 39.5601 144.798 39.8361C145.235 40.112 146.015 40.25 147.139 40.25Z" fill="white"/>
<path d="M174.655 45.171L169.694 36.1108H168.289V45.171H161.502V11H168.289V30.8679H169.694L174.843 21.7158H181.958L175.264 32.9375L182.051 45.171H174.655Z" fill="white"/>
<path d="M213.972 22.7276C213.972 23.7087 213.675 24.5979 213.082 25.395C212.489 26.1922 211.725 26.5908 210.789 26.5908C210.133 26.5908 209.556 26.3915 209.057 25.9929C208.557 25.5943 208.308 25.0578 208.308 24.3833C208.308 23.862 208.448 23.4481 208.729 23.1415C209.041 22.8042 209.447 22.6356 209.946 22.6356C210.352 22.6356 210.695 22.7736 210.976 23.0495C211.288 23.2948 211.475 23.4175 211.538 23.4175C211.881 23.4175 212.099 23.3561 212.193 23.2335C212.318 23.0802 212.38 22.8502 212.38 22.5436V22.0377C212.38 20.6274 211.694 19.4469 210.321 18.4965C208.947 17.5153 207.059 17.0248 204.656 17.0248C202.347 17.0248 200.366 17.546 198.712 18.5884C196.87 19.7535 195.95 21.2866 195.95 23.1875C195.95 24.9351 197.198 26.6215 199.695 28.2465C202.004 29.6568 204.313 31.0519 206.623 32.4316C209.15 34.3019 210.414 36.3868 210.414 38.6863C210.414 42.059 208.823 44.8184 205.64 46.9646C202.644 48.9882 199.086 50 194.967 50C191.784 50 189.1 49.4021 186.915 48.2064C184.325 46.796 183.03 44.8031 183.03 42.2276C183.03 39.6828 184.263 37.5825 186.728 35.9269C189.006 34.3939 191.706 33.6274 194.826 33.6274C196.761 33.6274 198.462 33.9953 199.929 34.7311C201.739 35.6509 202.644 36.8927 202.644 38.4564C202.644 40.0507 201.926 41.4304 200.49 42.5955C199.055 43.7606 197.338 44.3432 195.341 44.3432C194.374 44.3432 193.594 44.2052 193.001 43.9292C192.439 43.6533 191.768 43.1321 190.988 42.3656C190.894 42.2429 190.91 42.0743 191.035 41.8597C191.191 41.645 191.331 41.6144 191.456 41.7677C192.486 42.9941 193.718 43.6073 195.154 43.6073C196.652 43.6073 197.916 43.1321 198.946 42.1816C199.975 41.2311 200.49 40.0967 200.49 38.7783C200.49 37.7358 200.069 36.7854 199.226 35.9269C198.134 34.8231 196.621 34.2712 194.686 34.2712C192.221 34.2712 190.083 34.9458 188.273 36.2948C186.307 37.7665 185.324 39.6215 185.324 41.8597C185.324 43.6993 186.135 45.3243 187.758 46.7347C189.724 48.421 192.377 49.2641 195.716 49.2641C198.774 49.2641 201.489 48.4517 203.861 46.8267C206.451 45.0484 207.746 42.8255 207.746 40.158C207.746 37.8278 206.482 35.8349 203.954 34.1792C201.583 32.8915 199.226 31.6038 196.886 30.316C194.358 28.6604 193.094 26.6828 193.094 24.3833C193.094 22.237 194.14 20.3821 196.231 18.8184C198.478 17.1321 201.333 16.2889 204.797 16.2889C207.293 16.2889 209.384 16.8101 211.07 17.8526C213.004 19.0483 213.972 20.6733 213.972 22.7276Z" fill="white"/>
<path d="M214.115 45.171H211.213L220.294 23.0955C221.168 20.5814 222.697 18.5271 224.882 16.9328C227.098 15.3384 229.625 14.5413 232.465 14.5413C233.401 14.5413 234.213 14.7099 234.899 15.0472C235.586 15.3844 235.929 15.9057 235.929 16.6108C235.929 17.0708 235.757 17.454 235.414 17.7606C235.102 18.0366 234.65 18.1745 234.057 18.1745C233.62 18.1745 233.23 18.0519 232.886 17.8066C232.574 17.5307 232.418 17.1781 232.418 16.7488C232.418 16.5649 232.481 16.4116 232.606 16.2889C232.886 15.9823 233.027 15.783 233.027 15.691C233.027 15.5377 232.871 15.4151 232.559 15.3231C232.247 15.2311 231.919 15.1851 231.576 15.1851C230.015 15.1851 228.502 15.8443 227.035 17.1627C225.568 18.4505 224.289 20.4281 223.197 23.0955L217.579 36.3868C218.859 34.3939 219.967 32.8455 220.903 31.7417C222.245 30.1781 223.337 29.3962 224.18 29.3962C224.835 29.3962 225.319 29.7795 225.631 30.546C225.974 31.2818 226.146 32.1863 226.146 33.2594C226.146 34.6698 225.771 36.1108 225.022 37.5825C224.055 39.0542 223.103 40.5259 222.167 41.9976C222.042 42.2736 221.964 42.5495 221.933 42.8255C221.902 43.1014 221.886 43.3467 221.886 43.5613C221.886 44.5118 222.182 44.987 222.775 44.987C223.68 44.987 224.539 44.3432 225.35 43.0554C225.818 42.3196 226.239 41.3998 226.614 40.296C226.707 40.0814 226.832 39.9741 226.988 39.9741C227.238 39.9741 227.332 40.0967 227.269 40.342C226.988 41.4458 226.551 42.4729 225.959 43.4233C225.022 44.895 223.961 45.6309 222.775 45.6309C222.026 45.6309 221.465 45.2936 221.09 44.6191C220.716 43.9139 220.529 43.0401 220.529 41.9976C220.529 40.6179 221.215 38.5483 222.588 35.7889C223.961 33.0295 224.648 31.3432 224.648 30.73C224.648 30.27 224.461 30.0401 224.086 30.0401C223.524 30.0401 222.588 30.8526 221.277 32.4776C219.967 34.1026 218.578 36.0955 217.111 38.4564L214.115 45.171Z" fill="white"/>
<path d="M240.451 31.6038L241.294 29.7182H244.196L238.813 43.5613C238.813 44.5118 239.11 44.987 239.702 44.987C240.607 44.987 241.466 44.3432 242.277 43.0554C242.745 42.3196 243.166 41.3998 243.541 40.296C243.635 40.0814 243.759 39.9741 243.915 39.9741C244.165 39.9741 244.259 40.0967 244.196 40.342C243.915 41.4458 243.479 42.4729 242.886 43.4233C241.949 44.895 240.888 45.6309 239.702 45.6309C238.954 45.6309 238.392 45.2936 238.017 44.6191C237.643 43.9139 237.456 43.0401 237.456 41.9976C237.456 41.7217 237.487 41.2771 237.549 40.6639C237.643 40.0507 237.814 39.3455 238.064 38.5483C236.285 41.1545 235.349 42.5035 235.256 42.5955C233.633 44.6191 232.244 45.6309 231.089 45.6309C230.278 45.6309 229.638 45.2476 229.17 44.4811C228.733 43.7146 228.515 42.7948 228.515 41.7217C228.515 39.2075 229.669 36.5248 231.979 33.6733C234.288 30.8219 236.441 29.3962 238.439 29.3962C239.156 29.3962 239.671 29.6108 239.983 30.0401C240.295 30.4693 240.451 30.9906 240.451 31.6038ZM239.702 32.0637C239.702 31.3278 239.593 30.8066 239.375 30.5C239.188 30.1934 238.938 30.0401 238.626 30.0401C238.158 30.0401 237.643 30.3927 237.081 31.0979C236.426 31.9257 235.209 33.888 233.43 36.9847C232.837 38.0578 232.197 39.3915 231.511 40.9858C230.824 42.5495 230.481 43.546 230.481 43.9752C230.481 44.1592 230.543 44.3738 230.668 44.6191C230.824 44.8644 230.996 44.987 231.183 44.987C231.714 44.987 232.478 44.4658 233.477 43.4233C234.6 42.2276 235.692 40.8325 236.753 39.2382C237.627 37.7972 238.361 36.3255 238.954 34.8231C239.453 33.5354 239.702 32.6156 239.702 32.0637Z" fill="white"/>
<path d="M245.474 45.171L248.845 36.3408C248.938 36.0955 249.188 35.3903 249.594 34.2252C250.249 32.3243 250.577 31.2818 250.577 31.0979C250.577 30.3927 250.39 30.0401 250.015 30.0401C249.422 30.0401 248.704 30.7146 247.862 32.0637C247.019 33.4127 246.52 34.4858 246.364 35.283L246.036 35.421C245.755 35.421 245.646 35.329 245.708 35.145C245.865 34.1333 246.348 32.9835 247.16 31.6958C248.127 30.1627 249.063 29.3962 249.968 29.3962C251.435 29.3962 252.168 30.1627 252.168 31.6958C252.168 32.4316 252.106 33.1675 251.981 33.9033C251.887 34.6392 251.7 35.4517 251.419 36.3408C252.543 33.704 253.51 31.895 254.322 30.9139C255.133 29.9021 256.1 29.3962 257.224 29.3962C257.817 29.3962 258.222 29.5495 258.441 29.8561C258.659 30.1321 258.769 30.4847 258.769 30.9139C258.769 31.5271 258.566 32.1403 258.16 32.7535C257.754 33.3361 257.239 33.6274 256.615 33.6274C256.178 33.6274 255.898 33.52 255.773 33.3054C255.648 33.0601 255.585 32.7229 255.585 32.2936C255.398 32.2017 255.273 32.1557 255.211 32.1557C254.993 32.1557 254.415 32.8762 253.479 34.3172C252.449 35.9116 251.7 37.3066 251.232 38.5024L248.377 45.171H245.474Z" fill="white"/>
<path d="M271 31.7877C271 33.6887 270.204 35.1297 268.613 36.1108C267.333 36.908 265.82 37.3066 264.072 37.3066L262.761 37.2146C262.2 38.3797 261.747 39.4375 261.404 40.388C261.092 41.3384 260.936 42.059 260.936 42.5495C260.936 44.0519 261.7 44.8031 263.229 44.8031C264.415 44.8031 265.492 44.2052 266.459 43.0094C266.834 42.5189 267.302 41.7984 267.864 40.8479C268.301 40.0507 268.581 39.5448 268.706 39.3302C268.737 39.2382 268.847 39.2229 269.034 39.2842C269.221 39.3455 269.299 39.4375 269.268 39.5601C268.894 40.3573 268.488 41.1085 268.051 41.8137C267.645 42.5189 267.224 43.1474 266.787 43.6993C265.788 44.987 264.525 45.6309 262.995 45.6309C261.622 45.6309 260.53 45.2016 259.719 44.3432C258.939 43.454 258.548 42.3196 258.548 40.9399C258.548 38.2724 259.594 35.6816 261.685 33.1675C263.776 30.6533 265.976 29.3962 268.285 29.3962C270.095 29.3962 271 30.1934 271 31.7877ZM268.519 31.0519C268.519 30.3774 268.285 30.0401 267.817 30.0401C267.037 30.0401 266.101 30.9446 265.008 32.7535C264.759 33.1521 264.119 34.4092 263.089 36.5248L263.885 36.5708C265.508 36.5708 266.74 35.8349 267.583 34.3632C268.207 33.2901 268.519 32.1863 268.519 31.0519Z" fill="white"/>
<g clip-path="url(#clip0)">
<path d="M49.147 34.8169L41.0573 29.2467C40.8818 29.1243 40.6526 29.1085 40.4625 29.2048C40.2714 29.3 40.1517 29.4909 40.1517 29.6998V32.4996C34.4201 32.7901 29.8489 37.4198 29.8489 43.0683V45.2964C29.8489 45.5744 30.0591 45.8094 30.3419 45.848C30.6179 45.8872 30.8923 45.7207 30.9713 45.4498L31.0596 45.149C32.2334 41.152 35.9237 38.3081 40.1518 38.0709V40.8403C40.1518 41.0491 40.2714 41.2401 40.4626 41.3353C40.6526 41.4315 40.8818 41.4147 41.0573 41.2934L49.147 35.7232C49.2968 35.6187 49.3863 35.4501 49.3863 35.27C49.3863 35.09 49.2968 34.9213 49.147 34.8169Z" fill="white"/>
</g>
<path d="M0 59.1515C0 57.567 17.5871 56.257 29.5774 60.7359C21.3366 54.4621 15.9141 52.521 4.07028 53.3419V13.9956H0V59.1515Z" fill="white"/>
<path d="M7.05498 51.4935C7.05508 50.4372 20.894 50.4372 32.0194 59.4156C25.5071 52.5498 21.4367 47.5325 11.1253 46.4762V6.33765H7.05498C7.05498 6.33765 7.05487 52.5498 7.05498 51.4935Z" fill="white"/>
<path d="M14.1104 45.1558C14.1105 44.0996 27.4066 46.2121 36.9039 61V54.1342C28.2884 46.7401 18.1806 39.8745 18.9947 31.4242C19.8087 22.974 27.6487 19.0722 36.9039 23.7662L35.8185 17.9567C29.5939 5.93396 24.6431 2.39529 14.1104 0C14.1104 0 14.1103 46.2121 14.1104 45.1558Z" fill="white"/>
<path d="M76.25 58.8875C76.25 57.3031 58.6629 55.9931 46.6726 60.472C54.9134 54.1982 60.3359 52.2571 72.1797 53.078V13.7317H76.25V58.8875Z" fill="white"/>
<path d="M68.9235 51.4935C68.9234 50.4372 55.0845 50.4372 43.9591 59.4156C50.4714 52.5498 54.5418 47.5325 64.8533 46.4762V6.33765H68.9235C68.9235 6.33765 68.9236 52.5498 68.9235 51.4935Z" fill="white"/>
<path d="M62.4108 45.1558C62.4107 44.0996 49.1146 46.2121 39.6173 61V54.1342C48.2328 46.7401 58.3406 39.8745 57.5266 31.4242C56.7125 22.974 48.8726 19.0722 39.6173 23.7662L40.7027 17.9567C46.9274 5.93396 51.8781 2.39529 62.4108 0C62.4108 0 62.4109 46.2121 62.4108 45.1558Z" fill="white"/>
<defs>
<clipPath id="clip0">
<rect width="19.5373" height="19.013" fill="white" transform="translate(29.8489 27.9915)"/>
</clipPath>
</defs>
</svg>
