<svg width="776" height="656" viewBox="0 0 776 656" fill="none" xmlns="http://www.w3.org/2000/svg">
<g clip-path="url(#clip0)">
<path d="M527.35 637.118C596.507 643.398 660.068 597.595 704.37 544.277C747.268 492.654 779.814 428.116 775.623 361.149C772.625 315.678 753.195 272.843 720.947 240.612C697.895 217.857 666.69 200.838 634.522 204.041C595.774 208.039 564.339 240.152 525.716 244.338C486.297 248.525 450.649 223.405 416.742 202.764C386.355 184.217 353.16 168.202 317.575 165.376C281.991 162.55 243.557 175.048 222.747 204.062C206.61 226.691 202.44 256.836 183.537 277.204C163.817 298.452 133.032 304.062 105.558 313.42C58.762 329.35 14.1874 363.263 2.87085 411.306C-7.81702 456.271 12.7833 503.414 41.6824 539.42C96.358 607.727 183.118 649.238 270.696 649.008C288.676 649.008 307.076 647.145 323.401 639.567" fill="#BED2FA"/>
<path d="M729.749 655.937H177.271C169.811 655.937 162.35 656.084 154.89 655.937H153.905C151.642 655.937 151.621 651.751 153.905 651.751H706.361C713.822 651.751 721.303 651.604 728.764 651.751H729.749C732.012 651.751 732.012 655.937 729.749 655.937Z" fill="#13084A"/>
<path d="M119.766 655.937H74.6259C72.6769 655.937 72.6769 651.75 74.6259 651.75H119.766C121.736 651.75 121.736 655.937 119.766 655.937Z" fill="#13084A"/>
<g opacity="0.46">
<path opacity="0.46" d="M360.096 113.942C359.54 113.942 359.007 113.722 358.614 113.329C358.221 112.937 358.001 112.404 358.001 111.849C358.001 111.294 358.221 110.761 358.614 110.369C359.007 109.976 359.54 109.755 360.096 109.755C360.652 109.755 361.185 109.976 361.578 110.369C361.971 110.761 362.192 111.294 362.192 111.849C362.192 112.404 361.971 112.937 361.578 113.329C361.185 113.722 360.652 113.942 360.096 113.942Z" fill="white"/>
</g>
<path d="M511.423 386.688C520.933 381.514 529.984 375.54 538.478 368.831C546.886 362.19 554.736 354.874 561.95 346.955C576.521 331.003 588.424 312.808 597.199 293.072C601.547 283.248 605.052 273.072 607.677 262.655C608.012 261.357 608.327 260.06 608.62 258.762C608.767 258.155 609.668 258.469 609.521 259.055C607.082 269.633 603.745 279.983 599.546 289.995C595.374 299.946 590.39 309.538 584.646 318.674C573.135 337.059 558.727 353.466 541.978 367.261C533.636 374.113 524.733 380.254 515.363 385.62L511.843 387.567C511.319 387.86 510.9 387.023 511.423 386.73V386.688Z" fill="#F2F6FF"/>
<path d="M606.734 266.361C613.377 263.346 620.251 254.407 621.676 245.657C622.158 243.182 622.158 240.638 621.676 238.163C621.256 235.669 619.909 233.426 617.904 231.883C616.998 231.317 615.962 230.991 614.895 230.937C613.828 230.882 612.765 231.099 611.805 231.569C606.985 233.662 604.282 239.942 603.863 246.515C603.761 253.223 604.744 259.903 606.776 266.298" fill="#F2F6FF"/>
<path d="M598.414 289.367C604.827 292.842 616.122 292.946 623.96 288.802C626.223 287.682 628.251 286.14 629.933 284.259C631.629 282.42 632.584 280.019 632.615 277.518C632.524 276.453 632.163 275.429 631.565 274.543C630.968 273.656 630.153 272.937 629.199 272.452C624.589 269.898 617.925 271.531 612.434 275.132C607.008 279.087 602.259 283.894 598.372 289.367" fill="#F2F6FF"/>
<path d="M599.064 290.393C601.348 283.464 599.462 272.348 593.992 265.272C592.496 263.253 590.625 261.54 588.481 260.227C586.366 258.883 583.83 258.361 581.356 258.762C580.331 259.034 579.393 259.561 578.627 260.293C577.861 261.025 577.293 261.938 576.976 262.949C575.278 267.931 578.044 274.19 582.55 278.921C587.417 283.543 592.992 287.359 599.064 290.225" fill="#F2F6FF"/>
<path d="M581.586 320.914C587.391 325.31 598.54 327.194 606.922 324.242C609.326 323.482 611.56 322.267 613.503 320.663C615.47 319.1 616.785 316.861 617.191 314.383C617.265 313.324 617.07 312.264 616.623 311.301C616.176 310.338 615.492 309.504 614.634 308.877C610.443 305.653 603.632 306.26 597.702 308.877C591.731 311.957 586.302 315.987 581.628 320.809" fill="#F2F6FF"/>
<path d="M582.089 322.023C585.4 315.534 585.233 304.251 580.895 296.505C579.71 294.282 578.118 292.301 576.201 290.665C574.317 289.018 571.892 288.124 569.39 288.153C568.326 288.269 567.309 288.656 566.436 289.275C565.563 289.894 564.863 290.725 564.402 291.69C561.971 296.359 563.752 302.974 567.483 308.333C571.601 313.657 576.555 318.28 582.152 322.023" fill="#F2F6FF"/>
<path d="M558.827 350.221C563.961 355.413 574.733 358.762 583.451 357.087C585.934 356.662 588.316 355.774 590.471 354.471C592.628 353.201 594.24 351.181 594.998 348.798C595.224 347.748 595.177 346.658 594.862 345.632C594.546 344.606 593.972 343.678 593.196 342.936C589.507 339.168 582.717 338.749 576.43 340.675C570.089 342.882 564.15 346.106 558.848 350.221" fill="#F2F6FF"/>
<path d="M559.163 351.393C563.354 345.427 564.779 334.249 561.573 325.98C560.718 323.61 559.424 321.423 557.758 319.532C556.116 317.64 553.833 316.418 551.346 316.099C550.277 316.067 549.218 316.308 548.268 316.799C547.318 317.289 546.509 318.014 545.918 318.904C542.858 323.091 543.697 329.978 546.631 335.819C549.948 341.663 554.195 346.931 559.205 351.414" fill="#F2F6FF"/>
<path d="M533.386 372.62C535.53 375.421 538.266 377.716 541.399 379.341C544.533 380.965 547.986 381.88 551.513 382.02C553.528 382.11 555.542 381.811 557.444 381.14C559.335 380.492 560.924 379.174 561.908 377.435C562.258 376.651 562.4 375.79 562.319 374.936C562.238 374.081 561.938 373.262 561.447 372.557C559.204 369.02 553.902 367.596 548.705 368.036C543.385 368.732 538.212 370.28 533.386 372.62Z" fill="#F2F6FF"/>
<path d="M533.448 373.646C535.828 371.04 537.604 367.944 538.65 364.575C539.697 361.207 539.989 357.65 539.505 354.157C539.229 352.161 538.574 350.235 537.577 348.484C536.61 346.729 535.028 345.394 533.134 344.737C532.301 344.535 531.43 344.55 530.604 344.781C529.779 345.012 529.026 345.451 528.419 346.055C525.338 348.902 524.877 354.429 526.323 359.39C527.944 364.502 530.386 369.316 533.553 373.646" fill="#F2F6FF"/>
<path d="M528.713 580.053C536.399 587.854 546.243 593.183 556.983 595.355C567.682 597.49 578.678 597.681 589.445 595.92C622.568 591.017 652.707 574.055 674.067 548.296C670.148 544.474 665.325 541.702 660.047 540.237C640.399 533.483 619.308 532.056 598.927 536.101C578.546 540.147 559.604 549.52 544.032 563.264C539.673 567.116 531.458 574.924 528.713 580.011" fill="#90AEE4"/>
<path d="M664.302 549.196C647.126 552.32 630.133 556.373 613.398 561.338C596.633 566.069 579.868 571.072 562.872 575.049C553.379 577.268 543.801 579.236 534.119 580.471C533.26 580.597 532.988 579.257 533.868 579.131C551.106 576.552 568.153 572.832 584.897 567.995C601.662 563.368 618.428 558.26 635.402 553.99C644.854 551.604 654.389 549.489 664.029 547.856C664.888 547.71 665.161 549.05 664.302 549.196Z" fill="white"/>
<path d="M556.292 575.531C566.423 580.799 577.234 584.645 588.418 586.961C591.59 587.617 594.775 588.14 597.974 588.531C598.834 588.635 598.729 589.996 597.974 589.891C592.224 589.173 586.531 588.054 580.937 586.542C575.347 585.048 569.87 583.159 564.549 580.89C561.531 579.592 558.562 578.196 555.642 576.703C555.494 576.601 555.392 576.446 555.357 576.27C555.322 576.094 555.356 575.912 555.453 575.761C555.555 575.614 555.711 575.511 555.887 575.476C556.063 575.441 556.246 575.476 556.397 575.573L556.292 575.531Z" fill="white"/>
<path d="M574.356 570.59C577.238 565.919 580.821 561.718 584.981 558.135C589.203 554.517 593.702 551.235 598.435 548.317C601.097 546.642 603.8 545.009 606.504 543.397C607.258 542.958 607.866 544.172 607.111 544.612C602.417 547.417 597.702 550.243 593.217 553.404C588.74 556.489 584.615 560.055 580.916 564.038C578.87 566.289 577.052 568.736 575.488 571.344C575.027 572.098 573.895 571.344 574.356 570.59Z" fill="white"/>
<path d="M604.407 562.698C611.57 565.399 619.062 567.131 626.684 567.848C628.78 568.057 630.875 568.162 633.097 568.204C633.977 568.204 633.872 569.586 633.097 569.565C625.381 569.42 617.72 568.244 610.317 566.069C608.221 565.462 606.126 564.771 604.03 563.975C603.213 563.661 603.653 562.384 604.47 562.677L604.407 562.698Z" fill="white"/>
<path d="M625.112 556.46C630.131 550.763 636.265 546.154 643.135 542.916C645.067 542.013 647.047 541.216 649.066 540.53C649.228 540.505 649.394 540.539 649.534 540.625C649.673 540.711 649.778 540.844 649.828 541C649.878 541.157 649.872 541.325 649.809 541.477C649.746 541.629 649.631 541.753 649.485 541.827C642.51 544.181 636.091 547.935 630.624 552.86C629.06 554.275 627.576 555.778 626.181 557.36C626.062 557.494 625.894 557.574 625.715 557.584C625.536 557.594 625.361 557.532 625.228 557.413C625.094 557.293 625.014 557.126 625.004 556.947C624.994 556.769 625.056 556.593 625.175 556.46H625.112Z" fill="white"/>
<path d="M285.029 621.208C288.089 602.368 284.275 582.879 276.228 565.608C268.18 548.338 256.088 533.182 242.446 519.868C200.342 479.023 144.61 455.165 85.9633 452.88C84.2239 462.279 86.6339 471.909 89.6516 480.973C101.183 515.483 121.67 546.321 149.023 570.343C176.377 594.364 209.618 610.71 245.359 617.712C255.334 619.659 274.991 622.778 285.029 621.145" fill="#DDE8FD"/>
<path d="M97.6159 465.587C120.06 486.395 144.244 505.11 168.742 523.343C193.241 541.576 218.032 559.579 241.671 578.985C254.874 589.829 267.699 601.154 279.833 613.17C280.923 614.258 279.351 616.038 278.261 614.97C256.55 593.471 232.702 574.296 208.371 555.874C184.041 537.452 159.081 519.575 135.023 500.588C121.611 489.954 108.513 478.964 95.9813 467.303C94.8496 466.257 96.4214 464.477 97.553 465.524L97.6159 465.587Z" fill="#6D89CF"/>
<path d="M249.341 587.672C247.636 577.831 245.241 568.122 242.174 558.616C239.117 549.112 235.406 539.83 231.067 530.837C228.594 525.743 225.925 520.761 223.061 515.891C222.307 514.572 224.298 513.253 225.157 514.593C235.424 532.113 243.183 550.983 248.209 570.653C249.606 576.236 250.808 581.86 251.814 587.526C251.831 587.839 251.724 588.146 251.516 588.381C251.308 588.616 251.016 588.76 250.703 588.782C250.389 588.794 250.081 588.686 249.844 588.48C249.606 588.274 249.456 587.985 249.425 587.672H249.341Z" fill="#6D89CF"/>
<path d="M223.229 567.848C213.651 568.807 203.982 568.292 194.56 566.32C185.019 564.309 175.65 561.551 166.542 558.072C161.365 556.167 156.231 554.136 151.097 552.085C149.672 551.52 150.719 549.385 152.144 549.992C161.072 553.55 170.02 557.067 179.199 559.935C188.262 562.889 197.623 564.834 207.113 565.734C212.431 566.18 217.78 566.103 223.082 565.504C224.591 565.336 224.738 567.702 223.229 567.89V567.848Z" fill="#6D89CF"/>
<path d="M180.226 534.438C176.354 521.608 170.786 509.352 163.67 497.992C161.673 494.81 159.577 491.712 157.383 488.698C156.461 487.463 158.473 486.165 159.374 487.379C167.371 498.277 173.883 510.187 178.738 522.799C180.142 526.378 181.379 530.021 182.489 533.684C182.93 535.15 180.666 535.903 180.226 534.438Z" fill="#6D89CF"/>
<path d="M149.399 512.353C132.335 511.197 115.881 505.557 101.702 496.004C101.572 495.914 101.462 495.8 101.377 495.668C101.291 495.536 101.233 495.389 101.205 495.234C101.177 495.08 101.179 494.921 101.212 494.768C101.245 494.614 101.309 494.469 101.398 494.339C101.487 494.21 101.601 494.1 101.734 494.015C101.866 493.929 102.013 493.871 102.168 493.843C102.323 493.815 102.482 493.817 102.635 493.85C102.789 493.883 102.935 493.946 103.064 494.036C113.78 501.289 125.868 506.276 138.585 508.689C142.215 509.36 145.882 509.815 149.567 510.05C149.883 510.072 150.178 510.219 150.387 510.459C150.595 510.698 150.699 511.011 150.677 511.327C150.655 511.644 150.508 511.938 150.268 512.146C150.028 512.354 149.716 512.459 149.399 512.437V512.353Z" fill="#6D89CF"/>
<path d="M521.567 358.595C524.484 348.179 526.51 337.534 527.623 326.775C528.73 316.129 528.968 305.411 528.336 294.726C527.051 273.174 522.303 251.97 514.274 231.925C510.262 221.911 505.411 212.254 499.772 203.057C499.087 201.927 498.389 200.796 497.676 199.666C497.341 199.143 498.179 198.724 498.514 199.226C504.401 208.354 509.491 217.97 513.729 227.968C517.955 237.897 521.361 248.153 523.914 258.636C529.049 279.704 530.754 301.461 528.964 323.07C528.045 333.821 526.236 344.478 523.557 354.931C523.222 356.229 522.866 357.506 522.51 358.804C522.342 359.39 521.441 359.097 521.608 358.511L521.567 358.595Z" fill="#FC6681"/>
<path d="M501.804 206.448C504.256 199.582 502.663 188.424 497.382 181.328C495.921 179.282 494.095 177.523 491.997 176.136C489.919 174.735 487.395 174.153 484.913 174.503C483.866 174.757 482.902 175.275 482.113 176.009C481.324 176.742 480.736 177.665 480.408 178.69C478.584 183.631 481.204 189.953 485.584 194.788C490.312 199.561 495.792 203.529 501.804 206.532" fill="#FC6681"/>
<path d="M512.492 228.45C519.45 226.356 527.413 218.276 529.928 209.777C530.683 207.376 530.988 204.857 530.829 202.345C530.691 199.842 529.631 197.478 527.853 195.709C527.026 195.032 526.04 194.576 524.987 194.386C523.935 194.195 522.851 194.276 521.839 194.621C516.788 196.149 513.31 202.031 512.094 208.458C511.129 215.099 511.263 221.853 512.492 228.45Z" fill="#FC6681"/>
<path d="M513.687 228.68C510.313 222.211 501.113 215.806 492.207 214.843C489.708 214.523 487.172 214.665 484.725 215.261C482.268 215.859 480.123 217.352 478.711 219.448C478.186 220.385 477.91 221.441 477.91 222.515C477.91 223.589 478.186 224.645 478.711 225.582C481.121 230.25 487.533 232.636 494.072 232.72C500.787 232.476 507.418 231.147 513.708 228.785" fill="#FC6681"/>
<path d="M523.369 262.488C530.578 261.42 539.652 254.721 543.445 246.683C544.586 244.434 545.297 241.991 545.541 239.482C545.778 236.994 545.092 234.506 543.613 232.49C542.909 231.675 542.008 231.055 540.995 230.688C539.982 230.322 538.892 230.221 537.829 230.397C532.611 231.15 528.273 236.446 526.093 242.58C524.124 248.997 523.224 255.695 523.432 262.404" fill="#FC6681"/>
<path d="M524.521 262.907C522.174 256.019 514.043 248.253 505.409 245.971C502.989 245.264 500.459 245.015 497.948 245.239C495.454 245.443 493.12 246.553 491.389 248.358C490.728 249.202 490.294 250.201 490.129 251.26C489.964 252.319 490.073 253.403 490.446 254.408C492.08 259.411 498.074 262.781 504.528 263.807C511.197 264.6 517.951 264.296 524.521 262.907Z" fill="#FC6681"/>
<path d="M528.503 299.352C535.796 299.352 545.729 293.93 550.591 286.52C552.022 284.447 553.053 282.126 553.63 279.675C554.217 277.236 553.889 274.666 552.708 272.452C552.112 271.563 551.299 270.841 550.346 270.353C549.392 269.866 548.33 269.63 547.259 269.668C541.999 269.668 536.949 274.315 533.91 280.135C531.079 286.221 529.253 292.725 528.503 299.394" fill="#FC6681"/>
<path d="M529.572 299.813C528.21 292.653 521.189 283.84 513.016 280.344C510.723 279.31 508.257 278.713 505.744 278.586C503.253 278.407 500.783 279.152 498.808 280.679C498.028 281.414 497.453 282.339 497.141 283.363C496.828 284.388 496.789 285.476 497.026 286.52C497.948 291.69 503.313 295.835 509.6 297.803C516.094 299.524 522.826 300.174 529.53 299.729" fill="#FC6681"/>
<path d="M526.826 333.097C530.333 333.52 533.891 333.164 537.245 332.057C540.599 330.95 543.667 329.118 546.232 326.692C547.687 325.306 548.868 323.658 549.711 321.835C550.577 320.026 550.749 317.963 550.193 316.036C549.868 315.246 549.348 314.551 548.681 314.016C548.014 313.482 547.222 313.125 546.379 312.98C542.187 312.122 537.556 314.906 534.245 318.946C531.018 323.229 528.513 328.009 526.826 333.097Z" fill="#FC6681"/>
<path d="M527.581 333.725C527.372 330.207 526.391 326.778 524.707 323.681C523.023 320.584 520.677 317.896 517.836 315.806C516.215 314.61 514.38 313.735 512.429 313.231C510.497 312.705 508.439 312.907 506.645 313.796C505.928 314.236 505.337 314.852 504.926 315.585C504.515 316.317 504.299 317.143 504.298 317.983C504.172 322.17 507.756 326.357 512.303 328.869C517.102 331.278 522.262 332.89 527.581 333.642" fill="#FC6681"/>
<path d="M255.02 506.596C251.757 496.278 247.62 486.257 242.655 476.64C227.734 447.856 206.045 423.117 179.451 404.544C170.621 398.401 161.29 393.009 151.557 388.425L147.911 386.75C147.366 386.499 147.911 385.683 148.372 385.934C158.302 390.357 167.837 395.616 176.873 401.655C185.845 407.654 194.312 414.375 202.188 421.752C218.052 436.563 231.413 453.84 241.754 472.914C246.878 482.406 251.203 492.307 254.685 502.514C255.104 503.791 255.523 505.047 255.921 506.324C256.11 506.91 255.208 507.161 255.02 506.596Z" fill="#BDD4EC"/>
<path d="M155.058 390.079C153.36 383.003 145.9 374.525 137.58 371.469C135.244 370.525 132.744 370.048 130.224 370.066C127.717 370.025 125.283 370.912 123.392 372.557C122.657 373.339 122.134 374.296 121.873 375.336C121.613 376.377 121.623 377.467 121.904 378.503C123.099 383.61 128.736 387.483 135.065 389.137C141.634 390.534 148.386 390.852 155.058 390.079Z" fill="#BDD4EC"/>
<path d="M176.077 402.639C180.708 397.029 182.971 385.892 180.415 377.519C179.745 375.097 178.622 372.823 177.104 370.82C175.621 368.797 173.441 367.395 170.984 366.884C169.919 366.769 168.842 366.928 167.855 367.346C166.868 367.764 166.005 368.426 165.347 369.271C161.973 373.311 162.287 380.135 164.781 386.164C167.62 392.248 171.436 397.827 176.077 402.681" fill="#BDD4EC"/>
<path d="M177.209 402.2C170.922 398.62 159.542 398.348 151.642 402.367C149.368 403.454 147.32 404.959 145.606 406.805C143.88 408.625 142.887 411.018 142.819 413.525C142.896 414.591 143.245 415.619 143.832 416.513C144.419 417.407 145.224 418.137 146.172 418.633C150.74 421.249 157.426 419.721 162.937 416.225C168.429 412.353 173.256 407.616 177.229 402.2" fill="#BDD4EC"/>
<path d="M203.886 425.185C209.314 420.328 213.254 409.757 212.017 400.985C211.723 398.487 210.963 396.065 209.775 393.847C208.616 391.626 206.675 389.911 204.326 389.032C203.292 388.746 202.201 388.734 201.16 388.998C200.12 389.263 199.167 389.794 198.396 390.539C194.435 393.994 193.701 400.797 195.231 407.14C197.114 413.585 200.037 419.68 203.886 425.185Z" fill="#BDD4EC"/>
<path d="M205.018 424.955C199.275 420.454 188.252 418.465 179.723 421.228C177.317 421.963 175.071 423.142 173.101 424.703C171.103 426.257 169.752 428.494 169.308 430.983C169.22 432.051 169.407 433.122 169.851 434.097C170.295 435.071 170.98 435.917 171.843 436.552C176.035 439.817 182.783 439.336 188.776 436.698C194.788 433.71 200.273 429.765 205.018 425.017" fill="#BDD4EC"/>
<path d="M228.28 453.131C234.357 449.091 239.722 439.169 239.743 430.293C239.806 427.78 239.387 425.278 238.506 422.924C237.675 420.556 235.995 418.58 233.791 417.377C232.805 416.962 231.729 416.807 230.665 416.924C229.602 417.041 228.586 417.427 227.714 418.046C223.313 420.914 221.636 427.55 222.265 434.04C223.223 440.687 225.255 447.134 228.28 453.131Z" fill="#BDD4EC"/>
<path d="M229.495 453.027C224.444 447.772 213.714 444.234 204.976 445.784C202.481 446.159 200.083 447.012 197.913 448.296C195.739 449.537 194.099 451.534 193.303 453.906C193.066 454.948 193.1 456.034 193.401 457.059C193.701 458.085 194.259 459.017 195.021 459.767C198.626 463.598 205.499 464.08 211.786 462.3C218.162 460.194 224.151 457.061 229.516 453.027" fill="#BDD4EC"/>
<path d="M245.464 482.376C248.623 480.806 251.398 478.561 253.593 475.801C255.787 473.041 257.348 469.833 258.164 466.403C258.625 464.441 258.711 462.41 258.415 460.416C258.142 458.441 257.159 456.633 255.649 455.329C254.945 454.838 254.127 454.534 253.273 454.446C252.418 454.358 251.555 454.489 250.766 454.827C246.847 456.376 244.479 461.275 243.871 466.466C243.531 471.821 244.069 477.195 245.464 482.376Z" fill="#BDD4EC"/>
<path d="M246.428 482.48C244.319 479.65 241.614 477.317 238.504 475.646C235.393 473.975 231.953 473.006 228.426 472.809C226.416 472.709 224.404 472.986 222.496 473.626C220.592 474.234 218.98 475.524 217.969 477.247C217.611 478.025 217.457 478.881 217.523 479.735C217.589 480.588 217.873 481.411 218.346 482.125C220.547 485.704 225.828 487.191 231.025 486.856C236.363 486.241 241.565 484.763 246.428 482.48Z" fill="#BDD4EC"/>
<path d="M571.003 507.371C581.602 509.593 592.37 510.909 603.192 511.306C613.901 511.69 624.623 511.214 635.256 509.883C656.716 507.183 677.599 501.04 697.099 491.691C706.783 487.027 716.057 481.558 724.824 475.342C725.935 474.568 726.92 473.772 728.093 472.977C728.575 472.621 729.057 473.416 728.575 473.793C719.844 480.258 710.575 485.966 700.871 490.854C691.238 495.726 681.223 499.8 670.924 503.037C660.653 506.272 650.142 508.687 639.489 510.26C628.729 511.836 617.859 512.536 606.985 512.353C596.189 512.16 585.429 511.06 574.817 509.066L570.877 508.292C570.29 508.166 570.5 507.245 571.108 507.371H571.003Z" fill="#BDD4EC"/>
<path d="M721.68 477.561C728.68 479.654 739.724 477.226 746.493 471.49C748.462 469.917 750.106 467.976 751.334 465.775C752.594 463.615 753.012 461.065 752.507 458.616C752.184 457.598 751.607 456.68 750.829 455.947C750.052 455.215 749.1 454.692 748.065 454.429C743.014 452.943 736.853 455.957 732.305 460.709C727.876 465.748 724.289 471.466 721.68 477.645" fill="#BDD4EC"/>
<path d="M700.41 489.682C703.03 496.485 711.559 503.875 720.214 505.822C722.66 506.426 725.199 506.561 727.695 506.219C730.173 505.918 732.45 504.71 734.087 502.828C734.71 501.959 735.101 500.945 735.222 499.882C735.343 498.82 735.19 497.744 734.779 496.757C732.914 491.838 726.794 488.761 720.319 487.965C713.619 487.457 706.882 488.037 700.368 489.682" fill="#BDD4EC"/>
<path d="M700.242 490.896C706.529 487.107 712.25 477.414 712.648 468.559C712.808 466.046 712.495 463.526 711.726 461.128C710.988 458.736 709.391 456.701 707.241 455.413C706.275 454.956 705.208 454.752 704.141 454.822C703.074 454.892 702.042 455.232 701.143 455.811C696.617 458.511 694.668 465.064 695.024 471.574C695.701 478.255 697.464 484.781 700.242 490.896Z" fill="#BDD4EC"/>
<path d="M667.026 502.786C668.597 509.904 675.89 518.507 684.147 521.752C686.474 522.72 688.962 523.238 691.482 523.28C694.022 523.39 696.512 522.546 698.461 520.915C699.208 520.148 699.746 519.203 700.025 518.17C700.303 517.137 700.313 516.05 700.053 515.012C698.984 509.862 693.41 505.884 687.102 504.126C680.563 502.593 673.816 502.141 667.131 502.786" fill="#BDD4EC"/>
<path d="M666.774 503.938C673.501 501.153 680.71 492.466 682.429 483.757C682.979 481.303 683.057 478.767 682.659 476.284C682.284 473.825 681.016 471.589 679.097 470.004C678.209 469.405 677.183 469.042 676.116 468.951C675.048 468.859 673.975 469.042 672.998 469.481C668.116 471.448 665.203 477.624 664.616 484.134C664.278 490.833 665.029 497.541 666.837 504" fill="#BDD4EC"/>
<path d="M630.75 510.343C631.294 517.607 637.309 527.09 645.042 531.507C647.197 532.803 649.58 533.677 652.062 534.082C654.536 534.508 657.08 534.009 659.209 532.679C660.055 532.026 660.72 531.168 661.142 530.187C661.564 529.205 661.728 528.132 661.619 527.069C661.283 521.815 656.317 517.105 650.344 514.509C644.082 512.064 637.465 510.65 630.75 510.322" fill="#BDD4EC"/>
<path d="M630.247 511.453C637.309 509.632 645.65 502.033 648.584 493.659C649.487 491.31 649.921 488.806 649.862 486.29C649.855 483.784 648.922 481.369 647.243 479.508C646.448 478.788 645.482 478.282 644.437 478.041C643.391 477.799 642.301 477.828 641.27 478.126C636.178 479.403 632.406 485.118 630.792 491.461C629.507 498.048 629.301 504.8 630.184 511.453" fill="#BDD4EC"/>
<path d="M596.801 510.929C596.626 514.442 597.227 517.95 598.559 521.206C599.892 524.462 601.924 527.385 604.513 529.77C605.992 531.128 607.712 532.2 609.584 532.931C611.464 533.626 613.531 533.626 615.41 532.931C616.18 532.558 616.842 531.995 617.333 531.295C617.825 530.596 618.129 529.782 618.218 528.932C618.805 524.746 615.703 520.266 611.449 517.209C606.943 514.283 601.987 512.112 596.78 510.783" fill="#BDD4EC"/>
<path d="M596.234 511.704C599.739 511.267 603.104 510.064 606.089 508.178C609.074 506.293 611.605 503.773 613.503 500.797C614.584 499.106 615.331 497.223 615.703 495.25C616.106 493.287 615.77 491.245 614.76 489.514C614.264 488.817 613.597 488.258 612.822 487.891C612.048 487.525 611.193 487.363 610.338 487.421C606.147 487.567 602.228 491.419 599.986 496.129C597.909 501.072 596.643 506.317 596.234 511.662" fill="#BDD4EC"/>
<path d="M518.591 543.063C539.694 545.47 561.258 540.195 580.077 530.356C598.896 520.517 615.137 506.24 629.304 490.393C672.577 441.436 696.201 378.224 695.632 312.917C685.153 311.473 674.486 314.655 664.553 318.507C626.76 333.191 593.509 357.567 568.153 389.179C542.837 420.869 526.341 458.671 520.33 498.767C518.674 509.966 516.139 531.989 518.57 543.063" fill="#DDE8FD"/>
<path d="M682.136 326.566C660.11 352.524 640.537 380.449 621.467 408.626C602.396 436.803 583.745 465.336 563.291 492.633C551.891 507.873 539.967 522.736 527.204 536.866C526.072 538.122 523.977 536.469 525.108 535.192C547.909 509.945 568.006 482.418 587.265 454.408C606.525 426.399 625.113 397.741 645.043 370.045C656.171 354.575 667.739 339.419 680.061 324.87C681.172 323.573 683.246 325.226 682.157 326.545L682.136 326.566Z" fill="#6D89CF"/>
<path d="M554.091 501.614C564.959 499.2 575.645 496.031 586.071 492.131C596.496 488.221 606.641 483.605 616.437 478.315C622.025 475.3 627.439 472.076 632.678 468.643C634.103 467.722 635.675 469.857 634.229 470.737C624.734 476.888 614.826 482.378 604.575 487.17C594.343 491.945 583.791 496.002 572.994 499.311C566.861 501.167 560.657 502.793 554.384 504.189C554.21 504.212 554.033 504.2 553.864 504.153C553.695 504.106 553.537 504.025 553.4 503.916C553.263 503.806 553.15 503.67 553.067 503.515C552.984 503.361 552.933 503.191 552.917 503.016C552.887 502.668 552.992 502.322 553.211 502.049C553.429 501.776 553.744 501.598 554.091 501.551V501.614Z" fill="#6D89CF"/>
<path d="M574.817 471.532C573.241 460.936 573.312 450.161 575.026 439.587C576.764 428.879 579.342 418.323 582.738 408.019C584.583 402.158 586.594 396.338 588.585 390.539C589.151 388.907 591.582 389.974 591.037 391.586C587.537 401.697 584.08 411.829 581.376 422.17C578.557 432.422 576.877 442.952 576.368 453.571C576.164 459.502 576.529 465.44 577.457 471.302C577.73 472.997 575.089 473.291 574.817 471.595V471.532Z" fill="#6D89CF"/>
<path d="M609.752 421.982C623.87 417.013 637.26 410.184 649.569 401.676C653.006 399.29 656.352 396.778 659.608 394.14C660.928 393.073 662.5 395.208 661.158 396.234C649.442 405.703 636.526 413.586 622.745 419.679C618.826 421.396 614.823 422.966 610.8 424.389C609.186 424.976 608.222 422.484 609.836 421.919L609.752 421.982Z" fill="#6D89CF"/>
<path d="M632.762 386.667C633.175 367.661 638.588 349.099 648.459 332.846C648.664 332.59 648.955 332.418 649.279 332.362C649.602 332.307 649.935 332.371 650.213 332.544C650.492 332.717 650.698 332.986 650.792 333.3C650.886 333.614 650.861 333.952 650.722 334.249C643.231 346.545 638.345 360.246 636.367 374.504C635.816 378.579 635.494 382.682 635.403 386.792C635.403 387.142 635.264 387.478 635.016 387.725C634.769 387.972 634.433 388.111 634.083 388.111C633.732 388.111 633.397 387.972 633.149 387.725C632.901 387.478 632.762 387.142 632.762 386.792V386.667Z" fill="#6D89CF"/>
<path d="M555.956 646.119C559.065 646.128 562.144 645.523 565.018 644.34C567.892 643.156 570.504 641.418 572.705 639.224C574.905 637.03 576.649 634.424 577.839 631.555C579.029 628.687 579.64 625.611 579.637 622.506C579.637 619.403 579.024 616.33 577.833 613.463C576.642 610.597 574.897 607.993 572.697 605.802C570.497 603.61 567.886 601.873 565.013 600.692C562.141 599.51 559.063 598.906 555.956 598.914H265.016C264.614 598.914 264.216 598.835 263.845 598.681C263.474 598.528 263.137 598.302 262.853 598.019C262.569 597.735 262.343 597.398 262.189 597.027C262.036 596.656 261.957 596.259 261.957 595.857V595.753C261.957 594.981 262.263 594.241 262.81 593.695C263.356 593.15 264.097 592.843 264.87 592.843H560.147C568.151 592.843 575.827 596.019 581.486 601.672C587.145 607.325 590.325 614.993 590.325 622.988C590.325 630.982 587.145 638.65 581.486 644.303C575.827 649.956 568.151 653.132 560.147 653.132H265.498C264.557 653.127 263.656 652.749 262.993 652.082C262.329 651.416 261.957 650.514 261.957 649.573V649.406C261.957 648.534 262.303 647.698 262.92 647.082C263.537 646.466 264.374 646.119 265.247 646.119H555.956Z" fill="#766CFF"/>
<path d="M579.637 622.506C579.654 625.59 579.062 628.648 577.896 631.504C576.729 634.36 575.011 636.958 572.839 639.151C570.668 641.344 568.085 643.088 565.238 644.283C562.392 645.479 559.338 646.103 556.25 646.119H265.079L265.499 644.486C269.211 630.067 269.211 614.944 265.499 600.526L265.079 598.893H556.25C559.338 598.906 562.394 599.528 565.242 600.723C568.089 601.918 570.673 603.661 572.846 605.855C575.018 608.048 576.736 610.648 577.901 613.505C579.067 616.362 579.657 619.421 579.637 622.506Z" fill="#EDEDF9"/>
<path d="M572.721 627.195C572.738 624.111 572.146 621.053 570.98 618.197C569.813 615.341 568.095 612.743 565.923 610.55C563.752 608.357 561.169 606.613 558.322 605.418C555.476 604.222 552.422 603.598 549.334 603.582H266.169C265.959 602.577 265.75 601.489 265.498 600.547L265.079 598.914H556.249C559.336 598.927 562.39 599.549 565.236 600.742C568.083 601.935 570.666 603.677 572.838 605.868C575.01 608.059 576.728 610.656 577.895 613.511C579.061 616.366 579.653 619.423 579.637 622.506C579.651 627.07 578.341 631.539 575.863 635.374C573.386 639.208 569.849 642.243 565.68 644.11C567.922 641.901 569.7 639.267 570.909 636.362C572.119 633.458 572.735 630.341 572.721 627.195Z" fill="#FEFFFF"/>
<path d="M364.267 616.896H491.515V618.633H364.267V616.896Z" fill="#FEFFFF"/>
<path d="M284.275 633.475H411.523V635.213H284.275V633.475Z" fill="#FEFFFF"/>
<path d="M445.096 617.984V645.073L432.753 635.024L420.64 644.717L422.044 617.88L445.096 617.984Z" fill="#FC6681"/>
<path d="M245.59 548.317H528.545C539.425 548.317 548.244 557.127 548.244 567.995V573.165C548.244 584.033 539.425 592.843 528.545 592.843H245.59C234.71 592.843 225.891 584.033 225.891 573.165V567.995C225.891 557.127 234.71 548.317 245.59 548.317Z" fill="#06005A"/>
<path opacity="0.43" d="M270.34 548.317H275.642V592.843H270.34V548.317Z" fill="white"/>
<path opacity="0.43" d="M293.811 548.317H299.113V592.843H293.811V548.317Z" fill="white"/>
<path d="M548.244 560.752V567.032L295.843 548.191H532.904C541.412 548.317 548.244 556.146 548.244 560.752Z" fill="#000033"/>
<path opacity="0.43" d="M504.257 548.317H509.559V592.843H504.257V548.317Z" fill="white"/>
<path opacity="0.43" d="M481.812 548.317H487.114V592.843H481.812V548.317Z" fill="white"/>
<path d="M530.808 517.712C530.808 530.733 521.042 541.304 508.992 541.304H237.605L237.982 539.671C241.464 525.224 241.464 510.158 237.982 495.711L237.605 494.078H509.097C521.147 494.036 530.808 504.67 530.808 517.712Z" fill="#EDEDF9"/>
<path d="M508.888 541.304C521.042 541.304 530.913 530.837 530.913 517.712C530.913 504.67 521.042 494.099 508.888 494.099H237.647C237.259 494.085 236.877 493.995 236.524 493.834C236.171 493.673 235.852 493.444 235.588 493.161C235.323 492.877 235.117 492.544 234.981 492.18C234.846 491.817 234.783 491.43 234.797 491.042C234.783 490.671 234.842 490.301 234.972 489.953C235.101 489.604 235.298 489.285 235.551 489.013C235.804 488.741 236.108 488.521 236.446 488.366C236.784 488.212 237.15 488.125 237.521 488.112H512.806C528.335 488.112 540.93 501.614 540.93 518.256C540.93 534.898 528.356 548.401 512.806 548.401H238.108C237.2 548.368 236.342 547.977 235.722 547.314C235.101 546.651 234.769 545.77 234.797 544.863V544.695C234.769 543.849 235.077 543.027 235.654 542.407C236.231 541.787 237.031 541.421 237.878 541.388L508.888 541.304Z" fill="#766CFF"/>
<path d="M524.521 522.38C524.521 509.338 514.777 498.788 502.727 498.788H238.674C238.465 497.762 238.276 496.694 238.025 495.731L237.647 494.099H509.097C521.147 494.099 530.913 504.67 530.913 517.712C530.988 522.166 529.807 526.552 527.506 530.368C525.205 534.185 521.876 537.278 517.899 539.295C522.19 534.709 524.559 528.656 524.521 522.38Z" fill="#FEFFFF"/>
<path d="M362.548 512.143H489.796V513.881H362.548V512.143Z" fill="#FEFFFF"/>
<path d="M282.578 528.723H409.826V530.461H282.578V528.723Z" fill="#FEFFFF"/>
<path d="M301.125 362.153C295.672 362.153 290.443 359.99 286.588 356.139C282.732 352.287 280.566 347.064 280.566 341.617C280.566 336.171 282.732 330.948 286.588 327.096C290.443 323.245 295.672 321.081 301.125 321.081H554.259C554.607 321.081 554.952 321.013 555.274 320.879C555.596 320.745 555.888 320.549 556.133 320.302C556.379 320.054 556.573 319.761 556.704 319.439C556.836 319.116 556.902 318.771 556.899 318.423C556.899 317.751 556.632 317.107 556.157 316.632C555.681 316.157 555.036 315.89 554.364 315.89H297.457C294.012 315.89 290.6 316.568 287.417 317.885C284.233 319.202 281.341 321.133 278.905 323.566C276.468 326 274.536 328.889 273.217 332.069C271.898 335.249 271.22 338.657 271.22 342.099C271.217 345.542 271.894 348.953 273.211 352.135C274.528 355.317 276.46 358.209 278.897 360.645C281.334 363.081 284.227 365.013 287.412 366.332C290.596 367.65 294.01 368.329 297.457 368.329H553.861C554.678 368.329 555.461 368.005 556.039 367.428C556.617 366.85 556.941 366.068 556.941 365.252V365.105C556.944 364.729 556.872 364.357 556.73 364.009C556.588 363.661 556.379 363.345 556.114 363.078C555.849 362.812 555.534 362.6 555.187 362.456C554.84 362.311 554.467 362.237 554.091 362.237L301.125 362.153Z" fill="#FC6681"/>
<path d="M280.566 341.534C280.541 344.224 281.048 346.892 282.058 349.386C283.068 351.88 284.562 354.15 286.452 356.066C288.343 357.981 290.594 359.505 293.076 360.55C295.557 361.595 298.221 362.14 300.915 362.153H554.195L553.839 360.73C550.576 348.153 550.583 334.952 553.86 322.379L554.216 320.956H300.915C298.225 320.97 295.564 321.513 293.085 322.555C290.606 323.597 288.357 325.117 286.467 327.029C284.577 328.94 283.083 331.205 282.07 333.694C281.058 336.183 280.546 338.847 280.566 341.534Z" fill="#EDEDF9"/>
<path d="M286.539 345.595C286.517 340.18 288.647 334.977 292.463 331.13C296.278 327.284 301.467 325.107 306.888 325.08H553.232C553.441 324.18 553.609 323.3 553.84 322.421L554.196 320.998H300.915C298.229 321.011 295.572 321.553 293.096 322.593C290.619 323.632 288.372 325.149 286.483 327.056C284.593 328.963 283.098 331.223 282.083 333.707C281.068 336.191 280.552 338.851 280.566 341.534C280.547 345.513 281.686 349.412 283.844 352.756C286.001 356.101 289.086 358.747 292.721 360.374C290.751 358.451 289.188 356.151 288.126 353.612C287.064 351.073 286.524 348.346 286.539 345.595Z" fill="#FEFFFF"/>
<path d="M357.225 336.656H467.918V338.163H357.225V336.656Z" fill="#FEFFFF"/>
<path d="M326.272 350.305H436.965V351.812H326.272V350.305Z" fill="#FEFFFF"/>
<path d="M262.02 428.597H544.975C555.855 428.597 564.674 437.407 564.674 448.275V468.245C564.674 479.113 555.855 487.923 544.975 487.923H262.02C251.14 487.923 242.321 479.113 242.321 468.245V448.275C242.321 437.407 251.14 428.597 262.02 428.597Z" fill="#FC6681"/>
<path opacity="0.43" d="M286.79 428.597H292.092V487.923H286.79V428.597Z" fill="white"/>
<path opacity="0.43" d="M310.261 428.597H315.563V487.923H310.261V428.597Z" fill="white"/>
<path d="M564.674 443.795V453.571L312.274 428.555H549.418C553.464 428.555 557.345 430.161 560.206 433.019C563.067 435.877 564.674 439.753 564.674 443.795Z" fill="#EA496C"/>
<path opacity="0.43" d="M520.707 428.597H526.009V487.923H520.707V428.597Z" fill="white"/>
<path opacity="0.43" d="M498.242 428.597H503.544V487.923H498.242V428.597Z" fill="white"/>
<path d="M552.645 421.438C563.27 421.438 571.904 410.971 571.904 397.824C571.904 384.804 563.27 374.232 552.645 374.232H315.396C314.662 374.153 313.988 373.788 313.521 373.216C313.054 372.643 312.832 371.911 312.902 371.176C312.838 370.472 313.051 369.771 313.498 369.223C313.945 368.676 314.588 368.324 315.291 368.245H556.082C569.662 368.245 580.685 381.747 580.685 398.39C580.685 415.032 569.662 428.534 556.082 428.534H315.794C314.932 428.444 314.139 428.018 313.59 427.347C313.041 426.677 312.778 425.817 312.86 424.955V424.787C312.79 423.998 313.031 423.212 313.532 422.598C314.033 421.984 314.755 421.59 315.543 421.5L552.645 421.438Z" fill="#766CFF"/>
<path d="M571.904 397.741C571.904 410.782 563.375 421.354 552.834 421.354H315.438L315.794 419.721C318.815 405.223 318.815 390.259 315.794 375.76L315.438 374.128H552.834C563.375 374.232 571.904 384.804 571.904 397.741Z" fill="#EDEDF9"/>
<path d="M566.309 402.514C566.309 389.472 557.78 378.9 547.238 378.9H316.339C316.172 377.896 316.004 376.807 315.794 375.865L315.438 374.232H552.834C563.312 374.232 571.904 384.699 571.904 397.824C571.904 407.475 567.231 415.765 560.525 419.428C564.352 414.627 566.396 408.65 566.309 402.514Z" fill="#FEFFFF"/>
<path d="M396.31 392.214H500.044V393.952H396.31V392.214Z" fill="#FEFFFF"/>
<path d="M331.113 408.794H434.848V410.531H331.113V408.794Z" fill="#FEFFFF"/>
<path d="M406.264 409.757V436.845L396.225 426.797L386.334 436.51L387.487 409.652L406.264 409.757Z" fill="#06005A"/>
<path d="M347.627 81.9136C349.717 92.8347 355.476 102.716 363.952 109.923C364.274 110.136 364.511 110.454 364.623 110.823C364.627 111.014 364.593 111.203 364.52 111.38C364.448 111.556 364.34 111.716 364.203 111.849C363.08 112.903 361.688 113.627 360.18 113.942C354.608 115.667 348.808 116.549 342.974 116.559C341.883 116.69 340.782 116.423 339.873 115.805C339.322 115.213 338.926 114.494 338.72 113.712C336.543 107.752 334.765 101.654 333.397 95.4577C333.338 95.1747 333.338 94.8825 333.397 94.5995C333.397 94.0343 334.047 93.6784 334.529 93.3853C338.142 91.0962 341.35 88.2242 344.022 84.8862" fill="#FF948C"/>
<path d="M333.335 94.746C333.335 94.1808 333.985 93.8249 334.467 93.5318C338.08 91.2427 341.288 88.3707 343.96 85.0328L347.627 81.9136C347.816 82.8766 348.067 83.8395 348.298 84.7816C347.926 85.7882 347.72 86.8489 347.69 87.9216C347.501 92.2549 343.059 96.7975 341.403 100.796C339.268 105.744 339.088 111.316 340.9 116.391C340.533 116.297 340.19 116.126 339.894 115.889C339.343 115.297 338.947 114.578 338.742 113.796C336.565 107.835 334.786 101.737 333.419 95.5415C333.34 95.2842 333.311 95.0141 333.335 94.746Z" fill="#EF7E7B"/>
<path d="M303.723 110.949C305.858 106.28 306.091 100.965 304.373 96.1277C303.23 93.7187 302.311 91.2101 301.627 88.6334C301.318 84.6952 302.32 80.7653 304.478 77.4548C306.646 74.2383 308.307 70.7082 309.402 66.9879C309.879 64.4209 309.676 61.774 308.812 59.3099C307.948 56.8458 306.454 54.6503 304.478 52.9414L299.993 55.286C300.903 58.0218 301.26 60.9106 301.044 63.7853C300.828 66.66 300.043 69.4633 298.735 72.033C297.028 74.6579 295.622 77.4668 294.544 80.4064C293.245 85.5771 295.948 90.8733 298.735 95.395C301.523 99.9167 304.415 105.004 303.618 110.258" fill="#06005A"/>
<path d="M322.857 27.7162C319.624 28.0197 316.49 28.9921 313.655 30.5716C310.819 32.1511 308.343 34.3031 306.386 36.8906C304.428 39.4781 303.032 42.4444 302.285 45.6007C301.538 48.7569 301.457 52.0339 302.047 55.2232C302.655 58.426 303.912 61.5033 304.394 64.7061C304.749 66.302 304.729 67.9583 304.337 69.5454C303.944 71.1325 303.189 72.6072 302.131 73.8542C301.272 74.7334 300.538 75.3405 299.742 76.2825C298.945 77.2245 298.463 77.9572 299.155 78.9829C299.846 80.0087 301.879 80.7204 303.179 81.6624C303.85 82.2264 304.375 82.9447 304.708 83.7558C308.061 90.633 312.287 97.0498 317.282 102.847C317.526 103.181 317.851 103.447 318.225 103.622C318.839 103.752 319.479 103.655 320.028 103.35C326.559 100.894 332.846 97.8308 338.805 94.2017C344.756 90.4553 349.511 85.0878 352.51 78.7317C355.096 72.6137 355.394 65.7707 353.349 59.4518" fill="#FF948C"/>
<path d="M306.28 67.2391C306.28 68.244 306.867 69.0604 307.579 69.0604C308.292 69.0604 308.878 68.244 308.878 67.2391C308.878 66.2343 308.292 65.397 307.579 65.397C306.867 65.397 306.28 66.2134 306.28 67.2391Z" fill="#06005A"/>
<path opacity="0.51" d="M309.654 78.5433C309.633 79.6151 309.933 80.6687 310.516 81.5689C311.099 82.4691 311.937 83.1748 312.925 83.5956C313.912 84.0163 315.002 84.133 316.056 83.9305C317.11 83.728 318.079 83.2156 318.839 82.4591C319.6 81.7026 320.116 80.7364 320.323 79.6845C320.53 78.6326 320.418 77.5429 320 76.5553C319.583 75.5676 318.88 74.7271 317.981 74.1414C317.082 73.5557 316.029 73.2515 314.956 73.268C313.56 73.2895 312.227 73.8515 311.238 74.8356C310.249 75.8197 309.681 77.1491 309.654 78.5433Z" fill="#F96662"/>
<path d="M306.867 87.5867L313.154 86.2679C311.904 87.663 310.422 88.8316 308.774 89.7219C307.307 90.1616 306.867 87.5867 306.867 87.5867Z" fill="#F96662"/>
<path d="M358.965 39.5647C365.654 41.0349 372.631 40.4736 378.999 37.9528C382.248 36.6995 384.945 34.3324 386.606 31.275C388.022 28.1351 388.34 24.6106 387.508 21.2687C386.423 16.649 383.955 12.4692 380.431 9.28645C376.908 6.10372 372.498 4.0692 367.788 3.45406C365.096 3.13165 362.367 3.36277 359.769 4.13319C357.17 4.90361 354.757 6.19704 352.678 7.93388C350.615 9.71653 349.052 12.0055 348.145 14.5751C347.237 17.1447 347.015 19.9062 347.502 22.5875" fill="#06005A"/>
<path d="M298.631 32.5101C302.41 28.0897 307.052 24.486 312.273 21.9196C317.494 19.3531 323.185 17.878 328.997 17.5844C338.259 17.0191 345.636 17.9821 352.049 21.7711C358.462 25.5601 361.877 31.4006 365.692 37.6807C370.218 45.3425 373.089 50.3666 372.796 59.2843C372.666 63.649 371.582 67.9324 369.62 71.8344C367.658 75.7363 364.865 79.1622 361.437 81.8718C359.551 83.3581 354.668 87.2936 352.3 87.5658C349.345 87.9007 349.387 88.5497 347.187 86.561C345.044 84.4748 343.397 81.9354 342.367 79.1295C341.151 76.0941 340.062 72.5563 337.086 71.1538C334.634 70.0233 331.993 70.7979 329.29 71.5096C329.332 72.1579 329.332 72.8082 329.29 73.4565C328.871 78.1665 326.608 82.4789 324.763 86.8122C322.919 91.1454 321.431 96.0021 322.668 100.566C323.784 103.589 325.187 106.498 326.859 109.253C329.528 114.877 329.911 121.315 327.928 127.214L327.614 126.565C327.907 120.118 323.716 114.445 319.86 109.253C316.004 104.062 312.085 98.0954 313.028 91.7107C313.573 87.9426 315.752 84.6351 317.219 81.0973C318.506 77.7629 319.098 74.2013 318.959 70.6304L317.68 70.0024C310.513 66.3181 303.409 61.8173 299.029 55.0557C294.649 48.2941 293.643 38.8321 298.631 32.5101Z" fill="#06005A"/>
<path d="M367.599 44.0655C367.599 44.0655 370.344 44.0655 365.692 37.7854C360.221 31.1515 354.416 24.8004 348.298 18.7566C348.298 18.7566 346.202 17.5215 349.912 25.4345C353.621 33.3474 362.15 40.6323 367.599 44.0655Z" fill="#FC6681"/>
<path d="M347.732 18.945C347.732 18.945 345.951 18.1286 343.289 21.8548C340.901 25.7715 338.847 29.882 337.149 34.1429C337.149 34.1429 336.835 35.5036 340.565 32.0495C344.027 28.3589 346.494 23.8495 347.732 18.945Z" fill="#FC6681"/>
<path d="M347.732 19.4265C347.732 19.4265 347.732 17.7518 344.085 16.3702C340.495 15.2658 336.813 14.4812 333.083 14.0256C333.083 14.0256 331.952 14.0256 335.682 16.3702C339.379 18.3803 343.522 19.4312 347.732 19.4265Z" fill="#FC6681"/>
<path d="M345.155 19.2799C345.146 19.7909 345.29 20.2928 345.568 20.7217C345.847 21.1506 346.246 21.4871 346.716 21.6884C347.187 21.8897 347.706 21.9467 348.209 21.8522C348.712 21.7576 349.175 21.5157 349.54 21.1574C349.904 20.799 350.154 20.3403 350.257 19.8397C350.36 19.3391 350.311 18.8193 350.117 18.3464C349.924 17.8734 349.593 17.4688 349.169 17.184C348.744 16.8991 348.244 16.747 347.732 16.7469C347.056 16.7469 346.406 17.0124 345.924 17.4862C345.442 17.9601 345.166 18.6043 345.155 19.2799Z" fill="#FC6681"/>
<path d="M333.167 70.9025C332.119 73.4355 332.056 79.7993 334.718 80.4273C335.606 80.5968 336.521 80.5604 337.393 80.3208C338.265 80.0813 339.071 79.6451 339.747 79.0457C341.102 77.8561 342.158 76.3645 342.828 74.6915C343.897 72.6317 344.251 70.2753 343.834 67.9927C343.588 66.8678 342.975 65.8562 342.092 65.1173C341.208 64.3783 340.103 63.9539 338.951 63.9106C338.146 64.0106 337.374 64.2902 336.692 64.7287C336.01 65.1672 335.436 65.7533 335.011 66.4436C334.175 67.8287 333.553 69.3319 333.167 70.9025Z" fill="#FF948C"/>
<path d="M333.817 77.0151C340.649 77.0151 343.583 70.9653 342.598 65.7737C343.125 66.4267 343.511 67.1824 343.729 67.9927C344.147 70.2753 343.793 72.6317 342.724 74.6915C342.053 76.3644 340.998 77.8561 339.643 79.0457C338.966 79.6451 338.161 80.0813 337.289 80.3208C336.417 80.5604 335.502 80.5968 334.613 80.4273C333.419 80.1552 332.769 78.6898 332.518 76.9314C332.949 76.9815 333.383 77.0094 333.817 77.0151Z" fill="#EF7E7B"/>
<path d="M239.512 403.393C238.444 412.834 236.285 422.966 244.689 437.682C245.855 439.161 246.704 440.864 247.183 442.685C247.497 446.035 244.312 448.756 241.105 449.824C237.899 450.891 234.378 451.038 231.381 452.587C227.756 454.45 225.43 458.051 222.538 460.961C218.675 464.798 213.72 467.35 208.35 468.266C207.742 468.266 206.925 468.266 206.716 467.764C206.656 467.467 206.693 467.159 206.82 466.885C208.182 463.494 211.682 461.526 214.008 458.7C216.335 455.874 217.34 452.42 219.08 449.238C220.505 446.684 222.852 441.869 223.984 439.169C225.765 434.793 225.011 430.104 223.984 425.478C222.643 418.528 220.944 411.653 218.891 404.879" fill="#FF948C"/>
<path d="M354.291 254.701C328.162 246.126 300.715 242.256 273.231 243.271C252.903 244.045 230.794 248.525 217.843 264.204C208.517 275.509 207.511 280.951 206.631 295.605C205.835 308.877 207.616 331.067 208.727 344.318C210.718 366.822 211.2 390.205 216.25 412.227C216.349 412.988 216.645 413.709 217.109 414.32C217.697 414.853 218.423 415.209 219.205 415.346C225.498 417.001 232.088 417.187 238.464 415.89C239.396 415.784 240.273 415.397 240.979 414.781C241.593 413.996 241.938 413.034 241.964 412.038C244.06 396.443 245.799 372.139 247.14 356.459C248.209 343.899 248.02 339.712 252.17 327.759C253.087 324.474 254.702 321.425 256.906 318.821C261.684 313.796 269.48 313.399 276.396 313.755C299.825 314.99 323.506 320.956 346.453 316.12" fill="#00001E"/>
<path d="M269.689 313.231C271.294 322.675 276.258 331.224 283.667 337.305C285.258 338.36 286.556 339.801 287.44 341.492C288.676 344.632 286.35 348.107 283.563 350.033C280.775 351.959 277.401 353.026 274.928 355.329C271.953 358.113 270.737 362.216 268.641 365.796C265.97 370.539 261.902 374.347 256.99 376.702C256.424 376.974 255.627 377.163 255.271 376.702C255.135 376.438 255.091 376.136 255.145 375.844C255.523 372.202 258.352 369.355 259.819 366.005C261.286 362.656 261.286 358.992 262.103 355.538C262.941 351.904 263.591 348.228 264.052 344.527C264.597 339.817 263.088 337.682 260.867 333.516C257.402 328.109 253.652 322.889 249.634 317.879" fill="#FF948C"/>
<path d="M403.749 269.815C404.859 280.826 405.195 293.574 398.593 302.723C388.932 316.12 369.527 318.548 353.013 319.469C336.499 320.391 319.944 318.821 305.651 310.531C291.359 302.241 278.932 291.062 267.196 279.423C250.137 262.488 234.252 244.359 218.828 225.917C243.976 250.618 267.573 278.9 275.956 313.085C276.141 313.493 276.233 313.938 276.224 314.386C276.215 314.835 276.107 315.275 275.906 315.677C275.705 316.078 275.417 316.429 275.063 316.705C274.71 316.981 274.298 317.174 273.86 317.271L252.904 328.576C252 329.2 250.921 329.523 249.823 329.497C248.533 329.178 247.411 328.386 246.679 327.278C235.537 313.667 225.155 299.452 215.58 284.699C201.434 263.576 187.561 240.738 185.843 215.45C185.423 209.002 186.031 201.906 190.411 197.154C195.273 191.899 203.236 191.104 210.404 191.167C239.743 191.397 271.178 209.861 297.31 222.965C323.443 236.07 353.893 271.113 372.544 231.715" fill="#080866"/>
<path d="M190.16 144.903L153.947 98.1164C153.739 97.8451 153.454 97.6429 153.129 97.5362C152.804 97.4295 152.455 97.4232 152.127 97.5182C151.798 97.6133 151.506 97.8051 151.289 98.0688C151.071 98.3324 150.939 98.6554 150.908 98.9956L147.953 133.976L170.146 168.789L190.16 144.903Z" fill="#FC6681"/>
<path d="M207.239 154.219L157.174 96.5045L149.148 133.222L207.239 154.219Z" fill="#ECEBF2"/>
<path d="M212.813 154.219L186.827 106.992L147.953 134.06L212.813 154.219Z" fill="white"/>
<path d="M235.992 174.985C229.432 164.372 206.883 128.701 200.68 118.904C200.229 118.187 199.549 117.644 198.75 117.362C197.951 117.081 197.08 117.078 196.279 117.354L147.953 134.101L184.103 190.622C184.361 191.033 184.746 191.349 185.2 191.523C185.653 191.697 186.151 191.719 186.618 191.585L234.462 178.837C234.849 178.73 235.207 178.535 235.506 178.267C235.806 177.999 236.039 177.665 236.187 177.291C236.335 176.918 236.395 176.515 236.361 176.115C236.327 175.715 236.201 175.328 235.992 174.985Z" fill="#FC6681"/>
<path d="M149.022 133.683C149.33 134.804 149.859 135.851 150.579 136.765C151.299 137.678 152.195 138.438 153.213 139C159.5 142.705 163.985 149.467 169.769 154.135C175.722 158.92 182.09 163.166 188.797 166.821C202.293 174.064 219.352 177.958 234.608 178.795H234.462L186.618 191.544C186.151 191.677 185.653 191.655 185.2 191.481C184.746 191.308 184.361 190.992 184.103 190.581L147.953 134.06L149.022 133.683Z" fill="#F25375"/>
<path d="M357.833 103.182C375.73 114.34 388.095 133.034 394.884 153.026C401.674 173.017 403.414 194.37 403.875 215.492C404.336 236.614 403.581 257.757 405.656 278.774C405.803 280.219 405.656 282.145 404.231 282.501C403.309 282.731 402.408 282.061 401.653 281.454C380.508 264.121 353.139 256.689 328.934 243.962C327.443 243.319 326.143 242.303 325.162 241.01C324.663 240.125 324.316 239.163 324.135 238.163L321.306 226.67C317.115 209.923 313.028 192.946 312.399 175.676C311.474 159.597 315.894 143.664 324.973 130.354C326.755 127.612 333.356 115.973 335.619 113.607C341.571 107.788 348.927 111.514 357.791 103.141" fill="#90AEE4"/>
<path d="M321.117 131.38C321.763 133.006 322.903 134.39 324.376 135.336C325.85 136.282 327.583 136.744 329.332 136.655C343.792 135.797 359.321 135.776 373.823 133.578C375.332 150.325 372.209 167.972 362.737 182.102C352.112 197.886 335.493 207.872 318.728 216.078C315.324 202.846 313.218 189.315 312.441 175.676C311.834 160.478 314.16 144.819 321.117 131.38Z" fill="#6C97D3"/>
<path d="M209.209 178.355C206.505 179.883 202.922 178.355 200.826 176.262C198.836 174.003 196.975 171.634 195.252 169.165C192.926 166.193 188.064 163.974 183.432 160.792C183.314 160.705 183.171 160.657 183.024 160.654C182.877 160.652 182.732 160.695 182.611 160.777C182.489 160.86 182.396 160.978 182.344 161.116C182.292 161.253 182.284 161.403 182.322 161.546C183.076 164.309 187.267 168.81 187.938 171.363C188.006 171.5 188.042 171.65 188.042 171.803C188.042 171.956 188.006 172.106 187.938 172.243C187.824 172.34 187.689 172.41 187.544 172.446C187.398 172.483 187.246 172.485 187.1 172.452C181.944 171.929 178.047 167.533 173.185 165.69C172.496 165.353 171.713 165.257 170.963 165.418C169.391 165.9 170.586 169.082 170.963 170.673C172.051 174.241 174.12 177.433 176.936 179.883C186.178 187.964 197.264 189.764 209.418 188.069" fill="#FF948C"/>
<path d="M372.964 123.237C366.3 118.443 357.687 118.15 349.807 119.553C334.676 122.19 320.761 130.292 308.062 139.649C296.242 148.357 285.009 158.301 272.289 165.104C255.104 174.21 235.594 177.204 216.502 176.618C212.877 176.513 209.042 176.325 205.815 178.146C202.587 179.967 200.366 184.615 202.231 188.006C203.542 189.898 205.467 191.28 207.68 191.92C222.81 198.201 238.025 204.481 253.784 208.039C269.543 211.598 286.225 212.603 301.879 208.186C323.444 202.094 341.697 186.436 357.791 169.71C362.809 164.907 367.05 159.356 370.365 153.256C373.509 146.976 380.089 132.322 372.817 123.237" fill="#90AEE4"/>
<g opacity="0.46">
<path opacity="0.46" d="M349.744 137.283C349.188 137.283 348.655 137.063 348.262 136.67C347.869 136.278 347.648 135.745 347.648 135.19C347.648 134.635 347.869 134.102 348.262 133.71C348.655 133.317 349.188 133.097 349.744 133.097C350.3 133.097 350.833 133.317 351.226 133.71C351.619 134.102 351.839 134.635 351.839 135.19C351.839 135.745 351.619 136.278 351.226 136.67C350.833 137.063 350.3 137.283 349.744 137.283Z" fill="white"/>
</g>
<g opacity="0.46">
<path opacity="0.46" d="M315.333 183.003C314.777 183.003 314.244 182.782 313.851 182.389C313.458 181.997 313.237 181.464 313.237 180.909C313.237 180.354 313.458 179.822 313.851 179.429C314.244 179.036 314.777 178.816 315.333 178.816C315.889 178.816 316.422 179.036 316.815 179.429C317.208 179.822 317.429 180.354 317.429 180.909C317.429 181.464 317.208 181.997 316.815 182.389C316.422 182.782 315.889 183.003 315.333 183.003Z" fill="white"/>
</g>
<g opacity="0.46">
<path opacity="0.46" d="M310.66 149.299C310.104 149.299 309.571 149.079 309.178 148.686C308.785 148.294 308.564 147.761 308.564 147.206C308.564 146.651 308.785 146.118 309.178 145.726C309.571 145.333 310.104 145.113 310.66 145.113C311.216 145.113 311.749 145.333 312.142 145.726C312.535 146.118 312.755 146.651 312.755 147.206C312.755 147.761 312.535 148.294 312.142 148.686C311.749 149.079 311.216 149.299 310.66 149.299Z" fill="white"/>
</g>
<g opacity="0.46">
<path opacity="0.46" d="M341.047 168.328C340.491 168.328 339.958 168.107 339.565 167.715C339.172 167.322 338.951 166.79 338.951 166.235C338.951 165.679 339.172 165.147 339.565 164.754C339.958 164.362 340.491 164.141 341.047 164.141C341.603 164.141 342.136 164.362 342.529 164.754C342.922 165.147 343.143 165.679 343.143 166.235C343.143 166.79 342.922 167.322 342.529 167.715C342.136 168.107 341.603 168.328 341.047 168.328Z" fill="white"/>
</g>
<g opacity="0.46">
<path opacity="0.46" d="M275.138 180.344C274.582 180.344 274.049 180.123 273.656 179.731C273.263 179.338 273.043 178.806 273.043 178.251C273.043 177.695 273.263 177.163 273.656 176.77C274.049 176.378 274.582 176.157 275.138 176.157C275.694 176.157 276.227 176.378 276.62 176.77C277.013 177.163 277.234 177.695 277.234 178.251C277.234 178.806 277.013 179.338 276.62 179.731C276.227 180.123 275.694 180.344 275.138 180.344Z" fill="white"/>
</g>
<g opacity="0.46">
<path opacity="0.46" d="M282.536 205.025C281.98 205.025 281.447 204.804 281.054 204.412C280.661 204.019 280.441 203.487 280.441 202.932C280.441 202.376 280.661 201.844 281.054 201.451C281.447 201.059 281.98 200.838 282.536 200.838C283.092 200.838 283.625 201.059 284.018 201.451C284.411 201.844 284.632 202.376 284.632 202.932C284.632 203.487 284.411 204.019 284.018 204.412C283.625 204.804 283.092 205.025 282.536 205.025Z" fill="white"/>
</g>
<g opacity="0.46">
<path opacity="0.46" d="M233.498 189.68C232.942 189.68 232.409 189.46 232.016 189.067C231.623 188.675 231.402 188.142 231.402 187.587C231.402 187.032 231.623 186.499 232.016 186.107C232.409 185.714 232.942 185.494 233.498 185.494C234.053 185.494 234.586 185.714 234.979 186.107C235.372 186.499 235.593 187.032 235.593 187.587C235.593 188.142 235.372 188.675 234.979 189.067C234.586 189.46 234.053 189.68 233.498 189.68Z" fill="white"/>
</g>
<g opacity="0.46">
<path opacity="0.46" d="M333.712 233.055C333.156 233.055 332.623 232.835 332.23 232.442C331.837 232.049 331.616 231.517 331.616 230.962C331.616 230.407 331.837 229.874 332.23 229.482C332.623 229.089 333.156 228.868 333.712 228.868C334.268 228.868 334.801 229.089 335.194 229.482C335.587 229.874 335.808 230.407 335.808 230.962C335.808 231.517 335.587 232.049 335.194 232.442C334.801 232.835 334.268 233.055 333.712 233.055Z" fill="white"/>
</g>
<g opacity="0.46">
<path opacity="0.46" d="M360.432 200.022C359.876 200.022 359.343 199.801 358.95 199.409C358.557 199.016 358.336 198.484 358.336 197.928C358.336 197.373 358.557 196.841 358.95 196.448C359.343 196.056 359.876 195.835 360.432 195.835C360.988 195.835 361.521 196.056 361.914 196.448C362.307 196.841 362.527 197.373 362.527 197.928C362.527 198.484 362.307 199.016 361.914 199.409C361.521 199.801 360.988 200.022 360.432 200.022Z" fill="white"/>
</g>
<g opacity="0.46">
<path opacity="0.46" d="M367.787 243.061C367.231 243.061 366.698 242.841 366.305 242.448C365.912 242.056 365.691 241.523 365.691 240.968C365.691 240.413 365.912 239.88 366.305 239.488C366.698 239.095 367.231 238.875 367.787 238.875C368.343 238.875 368.876 239.095 369.269 239.488C369.662 239.88 369.883 240.413 369.883 240.968C369.883 241.523 369.662 242.056 369.269 242.448C368.876 242.841 368.343 243.061 367.787 243.061Z" fill="white"/>
</g>
<g opacity="0.46">
<path opacity="0.46" d="M393.501 266.758C392.945 266.758 392.412 266.538 392.019 266.145C391.626 265.753 391.405 265.22 391.405 264.665C391.405 264.11 391.626 263.577 392.019 263.185C392.412 262.792 392.945 262.572 393.501 262.572C394.057 262.572 394.59 262.792 394.983 263.185C395.376 263.577 395.597 264.11 395.597 264.665C395.597 265.22 395.376 265.753 394.983 266.145C394.59 266.538 394.057 266.758 393.501 266.758Z" fill="white"/>
</g>
<g opacity="0.46">
<path opacity="0.46" d="M392.495 213.712C391.939 213.712 391.406 213.492 391.013 213.099C390.62 212.707 390.4 212.174 390.4 211.619C390.4 211.064 390.62 210.531 391.013 210.139C391.406 209.746 391.939 209.526 392.495 209.526C393.051 209.526 393.584 209.746 393.977 210.139C394.37 210.531 394.591 211.064 394.591 211.619C394.591 212.174 394.37 212.707 393.977 213.099C393.584 213.492 393.051 213.712 392.495 213.712Z" fill="white"/>
</g>
<g opacity="0.46">
<path opacity="0.46" d="M377.825 172.326C377.269 172.326 376.736 172.106 376.343 171.713C375.95 171.321 375.73 170.788 375.73 170.233C375.73 169.678 375.95 169.145 376.343 168.753C376.736 168.36 377.269 168.14 377.825 168.14C378.381 168.14 378.914 168.36 379.307 168.753C379.7 169.145 379.921 169.678 379.921 170.233C379.921 170.788 379.7 171.321 379.307 171.713C378.914 172.106 378.381 172.326 377.825 172.326Z" fill="white"/>
</g>
<g opacity="0.46">
<path opacity="0.46" d="M377.825 140.256C377.269 140.256 376.736 140.035 376.343 139.643C375.95 139.25 375.73 138.718 375.73 138.163C375.73 137.607 375.95 137.075 376.343 136.682C376.736 136.29 377.269 136.069 377.825 136.069C378.381 136.069 378.914 136.29 379.307 136.682C379.7 137.075 379.921 137.607 379.921 138.163C379.921 138.718 379.7 139.25 379.307 139.643C378.914 140.035 378.381 140.256 377.825 140.256Z" fill="white"/>
</g>
<g opacity="0.46">
<path opacity="0.46" d="M325.686 208.039C325.13 208.039 324.597 207.819 324.204 207.426C323.811 207.034 323.59 206.501 323.59 205.946C323.59 205.391 323.811 204.858 324.204 204.466C324.597 204.073 325.13 203.853 325.686 203.853C326.241 203.853 326.774 204.073 327.167 204.466C327.56 204.858 327.781 205.391 327.781 205.946C327.781 206.501 327.56 207.034 327.167 207.426C326.774 207.819 326.241 208.039 325.686 208.039Z" fill="white"/>
</g>
<g opacity="0.46">
<path opacity="0.46" d="M397.504 180.344C396.948 180.344 396.415 180.123 396.022 179.731C395.629 179.338 395.408 178.806 395.408 178.251C395.408 177.695 395.629 177.163 396.022 176.77C396.415 176.378 396.948 176.157 397.504 176.157C398.06 176.157 398.593 176.378 398.986 176.77C399.379 177.163 399.6 177.695 399.6 178.251C399.6 178.806 399.379 179.338 398.986 179.731C398.593 180.123 398.06 180.344 397.504 180.344Z" fill="white"/>
</g>
</g>
<defs>
<clipPath id="clip0">
<rect width="776" height="656" fill="white" transform="matrix(-1 0 0 1 776 0)"/>
</clipPath>
</defs>
</svg>
