<svg width="747" height="649" viewBox="0 0 747 649" fill="none" xmlns="http://www.w3.org/2000/svg">
<path d="M471.395 170.374C471.395 170.374 366.905 144.182 317.562 50.6134C268.219 -42.9549 126 81.7433 113.128 92.2258C104.81 99 48.9397 144 27.5491 170.374C5.14161 198.002 -31.1114 284.162 48.9397 309.525C128.991 334.888 104.741 362.333 72.0526 432.061C39.3639 501.789 27.5319 559.452 131.764 618.351C196.022 654.662 301.717 665.186 412.683 613.8C523.649 562.413 573.629 601.6 664.737 594.122C755.845 586.643 783.694 486.679 684.027 388.762C584.359 290.845 594.865 274.382 613.207 225.821C631.549 177.261 606.524 58.0244 471.395 170.374Z" fill="#BED2FA"/>
<path d="M630.404 511.799C630.404 511.799 666.928 519.091 671.262 523.248C675.595 527.404 666.509 531.397 614.636 543.046C562.763 554.695 462.238 580.053 445.433 579.069C428.627 578.084 378.065 571.777 369.307 571.777C360.549 571.777 330.488 580.418 310.096 571.777C289.703 563.136 242.728 581.475 224.721 583.262C206.713 585.048 213.05 589.661 209.026 594.2C205.002 598.739 139.582 612.23 118.17 610.935C96.7577 609.641 115.366 600.544 132.226 595.786C149.086 591.028 214.779 572.852 233.369 564.631C251.959 556.409 243.402 550.447 229.309 551.468C215.216 552.489 130.496 561.641 101.528 568.331C72.5599 575.022 67.3889 580.874 37.1279 579.032C6.86694 577.191 -15.8561 564.229 16.6808 561.386C49.2178 558.542 54.9167 559.107 95.9202 551.468C136.924 543.83 194.441 534.113 224.721 530.759C255 527.404 286.39 526.785 293.436 525.964C300.482 525.144 630.404 511.799 630.404 511.799Z" fill="#EFC484"/>
<path d="M363.262 48.5143C349.551 67.3061 341.715 89.7474 340.745 112.999C339.775 136.251 345.715 159.268 357.813 179.139C369.911 199.01 387.623 214.842 408.71 224.632C429.796 234.422 453.309 237.73 476.273 234.138C499.238 230.546 520.622 220.214 537.721 204.451C554.82 188.688 566.865 168.201 572.333 145.582C577.8 122.963 576.445 99.2284 568.437 77.3811C560.43 55.5337 546.131 36.5551 527.349 22.8462C502.184 4.47915 470.767 -3.13428 440 1.6787C409.232 6.49167 381.631 23.3373 363.262 48.5143V48.5143Z" fill="#DDCFC7"/>
<g style="mix-blend-mode:multiply">
<g style="mix-blend-mode:multiply">
<path d="M444.304 186.317C444.379 186.106 444.476 185.904 444.596 185.715H444.723L444.304 186.317Z" fill="#C4C4C3"/>
</g>
</g>
<path d="M553.568 55.4965C552.621 54.6397 551.638 54.5121 550.636 53.6735C548.415 51.9598 547.468 49.7175 545.775 47.4752C544.792 46.1991 541.842 42.1155 539.948 43.3187C539.948 43.9203 540.95 45.5792 540.385 46.1626C539.821 46.746 538.455 45.6886 537.873 45.5792C538 46.9127 537.932 48.2576 537.672 49.5717C535.852 49.8269 535.852 47.7486 535.615 46.3996C535.48 44.9789 535.039 43.6044 534.322 42.3707C533.652 41.4299 533.119 40.3987 532.738 39.308C532.561 38.0155 532.231 36.7487 531.755 35.5344C530.339 33.4068 528.75 31.4007 527.003 29.5366C526.129 28.4975 524.945 27.7136 524.035 26.7656C523.124 25.8177 522.214 24.3957 521.286 23.2837C519.865 21.6612 517.116 18.1974 514.622 18.562C515.532 20.0934 517.826 20.9867 518.627 22.5909C519.155 23.6665 518.627 23.8306 519.756 24.6692C520.885 25.5078 522.032 25.6718 521.832 27.0209C521.195 27.0209 520.594 26.8933 520.284 27.4402C519.082 27.4402 518.136 25.6171 517.243 26.6198C516.351 27.6225 518.299 28.8621 518.099 29.8283C517.808 31.1591 515.878 28.7345 515.605 28.1511C515.301 26.952 514.88 25.7857 514.348 24.6692C513.241 23.5357 512.061 22.4761 510.816 21.4971C509.963 20.5932 508.935 19.8735 507.794 19.3824C506.39 18.8167 505.016 18.1777 503.679 17.4682C502.841 16.9578 501.858 15.864 500.893 15.9916L500.747 16.265C500.128 15.7728 499.273 15.2988 498.654 14.8613C498.034 14.4238 497.324 13.6399 496.833 13.33C494.814 12.2775 492.735 11.3461 490.606 10.5407C489.404 10.0121 488.785 8.82709 487.638 8.71771C487.146 8.71771 486.946 8.95471 486.254 8.71771C485.562 8.48072 485.289 7.86089 484.87 7.58744C483.978 7.0223 478.261 6.20194 479.008 4.87113C479.754 3.54033 485.854 4.87113 487.019 4.87113C489.094 4.99097 491.161 5.22834 493.209 5.58211C505.454 9.43308 516.986 15.2649 527.349 22.8461C532.354 26.5072 537.066 30.5545 541.441 34.951C545.577 39.399 549.455 44.0796 553.058 48.9701C554.041 50.3191 555.079 51.6134 556.062 52.9078C557.276 54.67 558.387 56.4566 559.394 58.2675C559.896 59.3533 560.257 60.499 560.468 61.6765C558.993 60.3457 557.355 59.1425 555.844 57.8846C555.079 57.1919 554.405 56.2439 553.568 55.4965Z" fill="#4A725F"/>
<path d="M489.677 27.6226C491.098 27.185 491.498 28.4612 492.536 28.8258C492.536 28.5705 492.536 28.2971 492.536 28.0419C493.217 28.0408 493.898 28.0773 494.575 28.1512C494.629 27.691 494.629 27.226 494.575 26.7657C494.393 26.6574 494.204 26.56 494.011 26.4741C494.011 26.2553 494.229 26.1459 494.175 25.9271C493.519 25.4167 493.683 25.1979 493.61 24.4687C493.736 24.3157 493.876 24.1752 494.029 24.0494C494.712 24.2752 495.381 24.5431 496.032 24.8516C496.487 25.1068 497.397 24.6146 497.361 25.7631C498.361 25.961 499.333 26.2793 500.256 26.711C501.276 28.5341 498.69 27.7319 499.455 29.1904C499.879 28.921 500.361 28.7559 500.86 28.7083C501.36 28.6608 501.864 28.7323 502.332 28.9169C502.981 29.2154 503.677 29.4004 504.389 29.4638C503.934 31.0863 504.389 30.8858 504.99 31.9978C505.19 32.2895 505.773 32.2348 506.046 32.6176C506.319 33.0005 505.846 33.8026 506.137 34.2037C507.12 35.5527 510.962 35.7715 509.596 38.1961C508.413 37.1205 507.12 38.7248 506.082 37.3575C505.336 37.7768 502.805 35.5345 502.277 34.9329C501.749 34.3313 501.767 33.3104 500.875 32.7817C500.62 32.6176 499.291 32.7817 498.818 32.6176C499.2 34.2401 502.004 35.4616 502.186 36.9564C502.423 38.7795 501.13 37.795 500.456 37.394C500.092 37.1752 499.91 34.8417 498.963 36.7377C497.725 36.3001 495.813 35.3704 495.449 34.0578C495.254 34.3506 494.978 34.5805 494.655 34.7196C494.332 34.8587 493.975 34.9011 493.628 34.8417C493.337 33.675 491.917 33.5109 492.117 31.9796C491.836 32.0908 491.568 32.2313 491.316 32.3989C491.07 32.0971 490.951 31.7109 490.985 31.3227C491.019 30.9345 491.203 30.5749 491.498 30.3206C490.133 30.0654 489.841 28.7346 489.677 27.6226Z" fill="#4A725F"/>
<path d="M444.996 185.332C445.071 185.127 445.168 184.932 445.287 184.749H445.415L444.996 185.332Z" fill="url(#paint0_radial)"/>
<path d="M347.604 77.9926C355.882 55.0438 371.074 35.2355 391.08 21.3042C411.087 7.37293 434.921 0.00641142 459.289 0.22239C460.166 0.609086 460.913 1.24237 461.438 2.04541C462.093 3.21215 462.02 2.77462 461.438 3.6679C460.855 4.56119 457.887 4.41534 457.395 5.07163C455.575 7.42333 459.872 6.54828 459.216 8.28015C459.945 8.6083 462.858 7.87909 461.037 9.86619C461.211 9.91593 461.381 9.97682 461.547 10.0485C461.292 12.1267 459.726 11.434 458.033 11.671C456.03 11.9809 454.992 13.2752 457.013 14.606C456.285 15.6087 455.975 17.3041 457.578 17.5047C458.251 15.6816 458.779 17.7416 459.398 17.5047C460.017 17.2677 460.818 16.7754 459.945 15.6816C460.922 15.8006 461.914 15.6624 462.821 15.2806C462.603 15.1712 462.184 14.8066 461.984 14.6972C462.639 14.6972 464.059 15.1347 464.515 14.6972C465.352 13.9133 464.333 13.3664 463.641 13.2206C464.516 13.1376 465.371 12.9096 466.172 12.546C465.534 11.9262 464.569 11.671 464.023 10.8688C464.733 10.012 466.736 10.2673 467.665 10.1943C468.977 9.86493 470.319 9.66948 471.67 9.61096C474.747 10.0667 477.26 10.8324 478.953 13.1659C480.647 15.4993 483.469 15.6452 486.054 17.3953C487.748 18.562 490.679 21.2054 490.388 23.3748C490.242 23.5936 490.042 23.2654 489.987 23.3748C490.606 25.8723 486.782 24.3957 487.893 22.281C487.456 22.4997 487.147 22.281 486.655 22.682C486.182 22.0804 484.215 18.4344 483.705 21.3877C482.595 21.3877 482.504 20.2027 481.266 20.4033C481.449 22.1165 481.498 23.8415 481.411 25.5624C479.591 26.0364 476.896 23.7394 477.679 21.9164C475.476 21.4059 477.315 19.273 476.695 17.851C476.266 17.1901 475.766 16.5788 475.202 16.028C474.529 15.4993 474.438 14.7883 473.127 15.0253C472.927 16.4108 474.347 17.0854 474.11 18.5073C471.779 18.7261 472.034 20.1116 469.54 18.9995C468.065 18.3432 466.517 17.5229 466.609 20.1663C465.207 20.6767 463.586 19.9657 462.239 20.4033C461.692 20.5856 461.565 21.2419 461.164 21.4242C460.764 21.6065 459.453 21.8252 459.344 21.9164C456.267 25.5624 463.513 23.7394 463.841 23.9582C464.587 22.445 467.482 23.6118 468.065 24.7603C468.903 26.4192 466.736 27.112 469.358 27.1667C470.123 27.1667 470.359 26.6562 471.452 27.0573C472.144 27.3125 472.49 28.0417 473.272 28.3699C474.055 28.698 475.093 28.5886 475.785 28.7892C476.596 29.1664 477.429 29.4951 478.28 29.7736C479.645 29.7736 480.683 28.2787 482.449 28.7709C483.742 29.1355 483.596 29.7007 484.543 30.3934C485.49 31.0862 486.364 30.6669 487.001 31.1226C488.676 32.18 487.857 34.1853 488.822 35.5161C489.241 36.0995 490.096 36.0813 490.642 36.6646C491.189 37.248 491.079 38.1595 491.662 38.7793C492.484 38.7955 493.303 38.6722 494.084 38.4147C495.14 39.8914 497.998 37.959 498.891 40.2378C498.63 40.2206 498.368 40.2206 498.108 40.2378C498.417 40.5477 498.49 41.131 498.69 41.4045C495.049 41.2951 496.869 45.3969 498.927 46.4907C499.637 45.7433 501.276 47.0376 502.259 47.2929C502.659 47.384 502.769 47.9127 503.096 47.9491C503.424 47.9856 503.606 47.4569 503.934 47.4934C504.935 47.621 505.646 47.9491 506.356 47.2564C507.162 48.025 507.784 48.966 508.176 50.0092C508.663 51.169 508.959 52.4004 509.05 53.6552C509.36 55.7517 512.801 60.291 508.231 59.5071C507.127 59.0518 506.066 58.4965 505.063 57.8482C504.626 57.6476 504.571 57.0278 504.225 56.8637C503.879 56.6997 503.315 57.0096 502.969 56.8637C502.211 56.6456 501.501 56.2869 500.875 55.8064C500.019 55.0225 499.455 54.111 498.636 53.2541C497.768 52.3939 497.097 51.3551 496.669 50.2097C492.245 50.4102 495.686 47.1106 492.9 46.035C491.462 45.4881 490.679 46.8553 489.259 45.9438C488.585 45.5428 488.767 44.6859 488.221 44.2666C487.675 43.8473 487.128 44.1208 486.528 43.8656C485.107 43.2457 485.071 42.79 483.359 43.2822C482.922 43.4098 482.595 43.902 482.103 44.1026C481.612 44.3031 480.992 44.1026 480.392 44.2666C479.154 44.6677 474.929 47.9127 474.62 44.5583C476.35 44.5583 479.864 43.8656 479.154 41.4227C475.13 39.7273 472.835 42.7535 470.05 44.5219C468.661 45.2205 467.49 46.2859 466.663 47.6028C465.917 49.2253 466.663 51.2488 464.023 50.7566C463.868 50.3044 463.746 49.8413 463.659 49.3711C463.659 49.2617 463.914 49.0794 463.968 48.97C462.148 48.1679 463.877 47.8033 463.968 47.0376C463.968 46.6001 464.679 46.8371 464.46 45.9256C464.369 45.561 463.131 45.6157 462.985 45.1052C462.603 43.8656 464.697 43.8291 462.73 43.027C461.638 42.5712 460.218 42.9176 460.91 44.2666C460.581 44.3904 460.312 44.6343 460.157 44.949C460.001 45.2637 459.971 45.6258 460.072 45.9621H459.307C458.98 47.3111 459.817 49.7175 458.269 50.3555C458.288 50.6834 458.288 51.0121 458.269 51.34C456.449 51.5952 455.356 50.629 453.699 50.1185C452.325 49.4872 450.84 49.1341 449.33 49.0794C448.419 49.2617 448.638 50.155 447.654 50.0821C447.017 50.0821 446.362 48.8424 445.834 48.5872C443.248 47.3293 444.486 49.1523 443.558 50.7566C443.85 50.7246 444.137 50.6573 444.413 50.5561C443.794 51.0847 443.011 51.504 442.465 51.9598C443.511 51.9597 444.557 51.9049 445.597 51.7957C444.832 51.978 442.738 52.5614 442.829 54.0563C442.417 54.0835 442.004 54.0835 441.591 54.0563V54.6579C441.745 54.8571 441.879 55.0707 441.992 55.2959C442.301 55.2959 442.666 55.2959 442.975 55.2959C442.975 56.2257 443.594 56.5538 444.432 56.4809C444.541 56.3168 444.614 56.0981 444.723 55.9158C445.688 56.6085 450.295 58.6138 450.549 56.9731C451.223 56.9731 451.496 56.6085 452.133 56.9731C452.299 56.5989 452.573 56.2835 452.921 56.0687C453.269 55.8539 453.674 55.7498 454.082 55.7699C454.683 56.5721 454.227 57.5018 454.628 58.1216C455.028 58.7415 456.103 58.9238 456.54 59.9446C456.316 60.1953 456.192 60.5198 456.192 60.8562C456.192 61.1925 456.316 61.517 456.54 61.7677C458.124 61.7677 457.632 60.1452 458.634 59.5436C459.052 59.2884 459.58 59.6712 460.054 59.5436C460.708 59.1952 461.39 58.9025 462.093 58.6685C466.19 58.0852 462.239 62.9344 465.207 63.2808C465.625 62.9526 472.927 66.5987 472.18 63.773C474.383 63.5178 472.38 62.4969 472.927 61.6401C473.473 60.7832 474.948 61.1843 475.894 61.2208C476.841 61.2572 482.358 61.4942 480.519 58.5591C480.774 58.5591 481.029 58.3221 481.302 58.2675C480.938 56.572 481.703 56.0434 482.413 54.7855C483.56 54.2386 484.07 55.2412 485.089 55.5876C486.202 55.8219 487.341 55.9077 488.476 55.8428C489.896 55.8428 493.446 55.6058 494.302 57.4289C496.87 57.6659 497.944 58.9237 499.91 60.3822C501.33 61.4395 501.094 61.5307 502.66 61.0567C503.625 60.765 504.972 59.2337 505.573 61.0567C506.793 60.8015 507.12 61.476 507.83 62.1323C508.557 62.7249 509.239 63.3708 509.87 64.0647C510.744 65.4866 510.853 68.4946 512.601 69.2785C512.473 70.427 513.912 71.5573 514.513 72.3594C515.319 73.5332 516.471 74.4255 517.808 74.9117C517.717 76.0237 519.501 77.6462 520.339 78.3754C520.066 78.3754 519.829 78.6124 519.538 78.6671C519.829 80.2896 522.251 81.7298 522.833 83.407C522.488 83.407 521.996 83.5163 521.632 83.407C521.777 84.6101 520.812 85.5764 521.432 86.6702C522.979 86.6702 523.38 88.165 524.709 88.4932C524.454 89.1677 524.855 89.1312 524.144 89.5505C524.799 90.6548 525.151 91.9126 525.164 93.1966C524.873 95.0196 524.017 94.8555 524.691 96.8426C525.565 99.322 527.549 100.944 527.622 103.478C527.367 103.478 527.094 103.478 526.857 103.478C526.604 103.746 526.411 104.066 526.291 104.415C526.172 104.764 526.129 105.135 526.165 105.502C525.874 105.502 525.474 105.611 525.182 105.502C524.99 105.883 524.902 106.308 524.927 106.734C524.953 107.16 525.091 107.572 525.328 107.927C525.162 108.519 524.803 109.039 524.308 109.403C524.217 109.185 523.981 108.856 523.871 108.638C521.777 108.328 521.122 111.646 520.102 112.976C519.497 113.771 518.955 114.612 518.482 115.492C517.99 116.313 517.845 117.534 517.444 118.208C516.843 119.193 515.915 119.266 515.168 120.032C514.167 121.144 514.676 122.055 512.838 122.347C510.999 122.638 507.958 121.763 508.013 119.667C506.774 119.339 506.428 120.433 505.518 120.469C504.608 120.505 504.225 120.05 503.224 120.05C501.786 120.05 499.928 121.672 499.455 118.828C498.18 118.828 497.634 117.698 496.76 117.005C495.886 116.313 494.302 116.13 493.483 115.437C492.063 114.234 491.808 109.677 489.714 112.393C489.714 112.575 489.714 112.758 489.714 112.958C487.565 112.685 486.71 115.62 486.072 117.005C485.817 117.516 485.544 119.795 485.399 119.886C484.288 120.597 482.886 119.339 482.85 118.245C481.939 117.99 481.648 118.792 480.829 118.573C480.009 118.354 479.827 117.589 479.008 117.37C478.229 117.23 477.428 117.286 476.677 117.534C475.33 118.136 476.186 118.026 475.476 119.047C474.524 120.177 473.895 121.544 473.655 123.003C473.473 124.826 474.82 126.43 474.911 128.235C474.97 129.019 474.793 129.802 474.404 130.484C474.015 131.166 473.43 131.716 472.726 132.063C471.597 133.03 471.106 133.886 469.868 134.889C468.63 135.892 461.456 136.712 464.205 139.155C461.31 139.283 463.55 140.978 462.821 142.418C462.776 142.519 462.714 142.611 462.639 142.692C463.386 144.059 463.495 145.827 461.328 146.155C461.383 146.908 461.383 147.663 461.328 148.416C461.328 148.744 462.038 148.981 461.984 149.236C461.929 149.492 460.982 150.075 460.964 150.348C460.947 151.025 461.07 151.698 461.324 152.325C461.577 152.952 461.957 153.52 462.439 153.994C463.55 155.453 464.496 155.817 465.043 157.64C465.334 158.203 465.478 158.83 465.461 159.463C465.461 159.463 465.097 162.034 465.097 162.034C464.587 163.201 462.148 163.857 460.964 164.367C459.234 165.06 458.816 166.19 457.632 166.883C456.94 167.248 456.066 166.883 455.283 167.047C454.5 167.211 453.972 167.722 453.19 167.868C451.15 168.287 449.657 167.74 451.533 169.691C452.115 170.31 453.19 170.11 453.153 171.313C450.986 172.334 455.575 174.613 453.663 176.418C452.916 177.11 451.442 176.673 450.731 177.402C450.021 178.131 450.731 179.863 449.257 180.592C449.238 180.914 449.238 181.237 449.257 181.559C448.565 181.978 448.893 181.777 448.419 182.397C447.152 182.774 446.077 183.622 445.415 184.767C444.978 184.931 445.196 185.186 444.905 185.77C444.796 185.952 445.178 186.444 445.069 186.772C444.96 187.101 444.341 186.936 444.268 187.173C443.89 188.255 443.741 189.404 443.831 190.546C442.174 190.765 440.444 191.056 440.499 193.044C438.824 193.262 439.17 191.403 438.678 190.364C438.196 189.425 437.583 188.56 436.857 187.793C435.656 186.353 436.457 186.718 434.509 186.189C433.27 185.843 432.051 185.788 431.978 184.129C429.507 183.818 427.134 182.972 425.022 181.65C423.719 181.302 422.567 180.533 421.745 179.462C420.689 177.84 421.581 177.639 421.344 176.199C423.347 175.47 421.035 173.009 423.384 172.553C422.692 170.146 418.468 171.714 418.158 169.508C416.84 169.198 415.639 168.515 414.699 167.539C414.215 167.105 413.888 166.524 413.766 165.885C413.644 165.246 413.735 164.585 414.025 164.003C414.353 163.328 414.935 162.836 415.281 162.18C415.627 161.524 415.008 161.578 415.846 160.685C416.683 159.792 418.522 160.01 418.85 158.443C419.305 156.364 416.884 156.62 415.463 156.146C413.169 155.435 413.643 154.323 412.186 152.791C411.658 152.208 410.62 152.208 410.238 151.716C409.855 151.223 410.074 149.893 409.655 149.054C409.236 148.215 408.526 148.325 408.18 147.359C407.952 146.777 407.823 146.16 407.798 145.536C408.144 145.171 407.598 143.147 407.798 142.163C408.035 140.632 408.963 139.501 408.472 138.025C408.763 138.025 408.945 137.806 409.236 137.733C408.381 135.436 410.711 135.272 412.186 134.853C412.233 134.74 412.288 134.63 412.35 134.525C412.858 133.685 413.47 132.914 414.171 132.228C414.935 131.425 415.991 131.28 416.283 130.113C417.412 129.748 422.546 130.733 420.379 127.834C419.669 126.868 418.195 127.378 417.302 126.941C415.919 126.266 416.265 126.321 415.809 124.68C415.372 124.863 414.681 124.68 414.207 124.826C413.624 123.568 414.298 121.8 413.715 120.67C413.442 120.123 412.332 119.703 411.895 119.211C411.395 118.702 411.031 118.075 410.839 117.388C410.433 116.049 409.708 114.829 408.727 113.833C408.147 113.467 407.682 112.944 407.385 112.325C407.089 111.706 406.973 111.015 407.052 110.333C407.373 110.315 407.695 110.315 408.017 110.333C408.162 109.203 407.088 108.747 406.979 107.69C404.229 107.124 405.813 104.992 404.939 103.46C404.502 102.695 403.119 102.622 402.882 101.965C402.645 101.309 403.519 100.015 403.228 98.9209C402.082 98.764 401.024 98.2158 400.235 97.3688C399.445 96.5219 398.972 95.4281 398.895 94.2722L399.477 94.0352C399.477 91.9569 397.784 90.1521 397.365 88.0192C396.983 86.1962 395.69 82.9877 396.619 81.3652C398.694 81.037 397.875 83.5528 398.712 84.4096C399.55 85.2664 401.99 84.1179 402.026 86.0868C403.847 86.3056 404.32 88.8213 406.014 89.4229C407.707 90.0245 410.347 88.7666 410.384 91.7382C412.368 91.4829 417.667 94.655 418.449 91.5923C417.503 91.173 413.242 88.876 416.793 88.6026C416.648 88.2387 416.597 87.8442 416.645 87.4556C416.693 87.0669 416.837 86.6965 417.066 86.3785C419.469 86.0321 420.07 89.2771 421.436 85.9592C422.255 85.9592 422.874 86.0686 423.675 86.105C423.566 84.1179 424.039 84.045 425.168 82.8236C425.896 82.0397 425.714 82.8236 426.206 81.4928C426.426 80.4833 426.578 79.4601 426.661 78.4301C427.81 78.3522 428.909 77.9262 429.811 77.2087C430.212 76.7165 429.811 75.7867 430.212 75.3857C430.612 74.9846 431.486 75.0393 432.032 74.7841C433.999 73.8179 436.002 73.4532 438.059 72.4324C437.221 70.2812 440.644 70.9375 441.591 70.3541C443.667 69.078 442.702 67.8748 441.209 67.255C440.025 66.7627 437.567 67.4737 438.132 66.2705C439.097 64.4475 440.79 65.8877 442.229 65.5595C443.048 64.0464 441.063 63.1167 439.06 62.187C438.004 62.6974 437.24 64.3017 436.621 64.958C436.002 65.6143 434.326 66.5258 434.509 67.8566C433.987 67.779 433.454 67.8811 432.998 68.146C432.541 68.4109 432.188 68.823 431.996 69.315C429.228 69.0962 426.734 70.9739 424.312 72.0677C423.02 72.6511 417.029 74.7658 417.029 75.568C414.298 75.8779 414.954 78.0837 415.354 79.9614C413.26 80.0708 415.991 83.2611 413.315 84.1726C411.244 84.6865 409.055 84.4069 407.179 83.3887C405.993 82.9463 404.776 82.5928 403.537 82.3314C402.955 82.1855 402.19 82.3314 401.717 81.8574C400.752 81.1099 401.516 81.0188 401.116 80.4537C399.987 78.9223 397.911 78.029 396.491 76.4795C397.747 75.2034 395.453 73.6538 395.071 72.2865C397.383 72.2865 396.892 69.6978 396.546 68.1665C396.892 68.2759 397.602 68.1665 397.948 68.3123C397.948 67.5649 395.945 61.7312 398.986 64.5569C398.858 62.7339 399.969 63.536 400.897 63.3172C402.481 62.9344 401.935 63.6454 402.554 61.8588C402.991 60.528 403.592 57.5565 405.65 58.2128C406.25 59.7076 405.923 62.4786 408.617 62.1505C409.51 62.0411 409.473 61.0567 410.274 60.8744C411.349 60.6374 411.585 61.3848 412.623 60.8744C413.661 60.3639 414.681 58.1398 415.5 57.2283C416.319 56.3168 419.05 55.8975 418.104 53.6734C420.252 53.4 419.05 49.7539 416.811 50.4832C415.3 50.9754 415.627 53.6005 413.169 52.6343C413.078 54.2203 413.169 54.4573 412.295 55.3142C411.421 56.171 410.729 55.3142 410.183 56.7361C408.617 57.2101 407.834 55.46 406.287 55.5512C405.508 56.4779 404.563 57.2508 403.501 57.8299C402.079 58.0756 400.626 58.0756 399.204 57.8299C398.439 57.52 398.731 56.5903 398.057 56.2439C397.383 55.8975 396.819 56.2439 396.236 56.2439C394.962 55.9705 392.74 54.9313 393.287 57.6476C392.22 57.6885 391.162 57.86 390.137 58.1581C388.207 58.2857 388.644 57.757 387.296 59.179C387.533 61.3119 381.324 61.713 379.795 61.476C378.884 62.4969 377.1 62.1505 377.428 63.9188C375.989 64.5204 377.246 65.2679 376.882 66.2523C376.517 67.2367 375.862 67.0544 374.788 67.9842C374.515 68.2029 374.424 68.9139 374.351 68.9686C373.941 69.2056 373.515 69.4128 373.076 69.5884C372.74 69.9861 372.49 70.4485 372.339 70.9471C372.189 71.4456 372.142 71.9697 372.202 72.487C371.229 72.7298 370.37 73.3013 369.77 74.1052C369.169 74.909 368.864 75.8958 368.907 76.8988C368.907 77.8285 369.544 78.7218 369.162 79.4692C368.561 80.7271 367.723 80.0526 366.867 80.7089C365.047 82.0944 365.83 83.6622 364.3 84.7195V68.6952C366.121 68.0753 363.918 66.1065 364.974 64.8304C365.72 63.9371 368.342 63.8459 369.271 63.0073C369.729 62.4646 370.092 61.8482 370.345 61.1843C370.746 60.5098 371.911 60.4004 371.365 59.1243C371.055 58.4315 369.944 58.7597 369.544 58.0487C369.143 57.3377 369.544 56.2257 369.307 55.3689C369.016 55.3689 368.615 55.2595 368.324 55.3689C368.324 54.1474 368.761 52.1603 366.867 52.7255C367.086 54.2568 366.631 56.7908 364.774 56.6997C363.954 58.3586 365.902 59.2519 364.391 60.6738C363.772 61.2572 362.734 60.6738 362.188 61.4031C361.642 62.1323 362.006 63.2261 361.988 63.7183C359.93 64.5934 359.803 67.3644 357.272 66.8539C357.418 66.1976 357.272 65.7601 357.873 65.2314C356.453 63.7548 356.78 66.1065 356.562 66.4893C356.161 67.1638 355.433 67.656 355.142 68.5493C355.039 69.4754 354.99 70.4068 354.996 71.3385C354.814 72.1954 354.086 72.56 354.268 73.7449C353.175 74.1825 349.224 77.7373 347.604 77.9926Z" fill="#4A725F"/>
<path d="M406.086 173.993C405.506 174.248 404.857 174.305 404.242 174.153C403.626 174.001 403.078 173.65 402.682 173.154C402.281 172.735 402.19 171.951 401.844 171.623C401.498 171.295 400.497 171.24 400.169 170.803C399.841 170.365 400.169 169.399 399.768 168.98C399.368 168.56 398.385 168.706 397.82 168.196C396.637 167.12 397.292 166.154 397.037 164.641C396.618 162.161 394.015 161.979 391.83 160.776C390.883 160.247 389.427 159.737 390.118 158.534C390.81 157.33 392.194 158.406 393.414 158.096C393.177 156.273 392.686 155.963 395.089 155.58C395.132 155.291 395.11 154.995 395.027 154.714C394.943 154.433 394.799 154.175 394.605 153.956C394.41 153.737 394.17 153.563 393.902 153.447C393.633 153.331 393.342 153.275 393.05 153.283C393.323 152.736 393.05 152.208 393.214 151.679C391.12 151.679 391.557 148.89 391.393 147.668C391.132 146.917 390.919 146.15 390.756 145.371C390.756 144.569 391.083 143.694 391.011 143.129C390.847 141.634 389.645 135.29 392.595 134.47C392.92 134.035 393.279 133.626 393.669 133.248L394.925 133.467C393.104 135.746 394.124 135.873 395.144 137.861C395.817 139.173 395.016 141.288 395.908 142.509C396.436 143.202 397.729 143.33 398.275 143.913C398.884 144.604 399.393 145.377 399.787 146.21C400.02 146.989 400.294 147.756 400.606 148.507C401.28 149.491 402.299 149.564 403.064 150.33C404.776 151.934 404.156 153.101 403.738 154.888C403.407 156.456 403.407 158.077 403.738 159.646C403.902 160.466 404.357 161.323 404.575 162.143C404.575 162.143 405.121 163.51 405.176 163.237C405.176 163.675 404.375 164.203 404.357 164.386C404.387 166.043 404.676 167.685 405.212 169.253C405.504 170.657 405.231 172.899 406.086 173.993Z" fill="#20754A"/>
<path d="M529.169 209.998C529.661 209.433 530.043 208.339 530.517 207.646C531.5 206.261 532.447 204.839 533.539 203.563C534.631 202.286 536.762 201.065 537.508 199.333C538.255 197.601 538.146 195.304 540.13 194.703C539.894 193.117 541.314 192.424 541.041 190.801C542.005 190.473 542.861 189.886 543.517 189.106C544.086 188.238 544.453 187.254 544.591 186.226C544.719 185.825 545.392 185.569 545.556 184.968C545.556 184.968 545.21 183.746 545.174 183.655C544.828 182.397 545.083 182.197 543.717 181.559C542.352 180.921 542.024 182.124 541.423 180.538C541.434 179.604 541.665 178.686 542.097 177.858C542.989 175.834 543.007 174.558 545.392 174.376C546.394 173.701 545.92 173.1 546.266 172.17C546.818 170.807 547.292 169.413 547.686 167.995C547.868 167.266 547.686 165.899 548.087 165.261C548.487 164.623 549.361 164.805 549.908 164.295C551.546 162.472 550.436 162.472 549.434 161.305C548.954 160.87 548.607 160.307 548.433 159.682C548.433 159.682 548.888 159.117 548.779 158.789C548.67 158.461 547.941 158.388 547.814 158.133C546.907 156.852 546.286 155.391 545.993 153.849C545.884 152.171 546.94 151.169 547.104 149.601C547.268 148.033 546.412 147.158 548.396 145.7C549.361 144.971 551.91 144.642 552.147 143.585C553.586 143.257 555.661 145.28 555.679 142.746C557.992 142.054 557.773 145.025 559.794 144.569C560.268 143.293 561.706 140.103 563.126 139.757C563.381 138.389 561.597 134.816 564.383 135.363C564.383 134.634 564.383 133.868 564.383 133.139C564.965 132.775 564.838 132.975 564.965 132.264C565.457 129.73 563.727 125.628 566.586 123.86C567.824 123.094 569.244 124.297 570.555 123.24C571.866 122.183 571.593 119.795 571.393 118.518C571.064 116.872 571.302 115.163 572.066 113.669C572.74 111.846 572.23 110.661 572.685 108.875C573.395 106.104 573.741 103.406 574.36 100.489C577.462 121.362 574.904 142.686 566.953 162.23C559.003 181.774 545.953 198.82 529.169 211.584C528.368 211.584 527.567 211.584 526.839 211.584C527.567 210.928 528.477 210.763 529.169 209.998Z" fill="#4A725F"/>
<path d="M387.041 205.531V205.258C387.264 206.133 387.688 206.945 388.279 207.628C388.864 208.139 389.262 208.832 389.408 209.597C389.546 210.031 389.735 210.447 389.972 210.836C389.972 210.836 390.737 211.875 390.664 211.821C391.192 212.222 391.957 212.313 392.485 212.805C393.286 213.607 393.122 213.954 394.306 214.482C395.091 214.936 395.928 215.291 396.8 215.54C399.003 215.868 398.73 213.042 400.678 213.352C400.951 213.972 401.753 213.99 402.335 214.3C402.936 213.297 403.719 213.753 404.575 213.917C404.953 214.73 405.496 215.455 406.17 216.045C406.845 216.635 407.634 217.078 408.489 217.344C409.855 217.654 409.637 217.144 410.856 216.962C411.383 216.946 411.906 217.052 412.386 217.272C412.969 217.654 412.768 218.037 413.223 218.365C413.988 218.894 414.789 218.93 415.59 219.441C416.323 220.079 417.122 220.636 417.976 221.1C419.214 221.556 420.379 221.464 421.617 222.011C422.709 222.265 423.776 222.619 424.803 223.069C425.229 222.722 425.766 222.54 426.315 222.558C426.315 222.777 426.315 223.123 426.315 223.342C427.061 223.342 427.389 223.962 427.972 224.345C428.554 224.728 428.627 224.454 428.973 224.728C429.263 224.938 429.485 225.23 429.61 225.566C428.718 225.749 429.119 226.077 429.246 226.678C429.246 226.678 430.12 227.954 430.084 227.936C431.012 228.593 433.234 228.465 433.725 227.28C434.271 227.845 435.327 227.973 435.655 228.647C436.371 228.325 437.107 228.051 437.858 227.827C439.206 227.608 439.497 228.283 440.498 228.629C442.082 229.176 443.703 228.137 445.214 228.501C445.342 227.243 446.562 227.408 446.361 228.647C446.982 228.554 447.616 228.649 448.182 228.921C448.492 228.741 448.844 228.647 449.202 228.647C449.56 228.647 449.911 228.741 450.221 228.921C451.641 227.517 455.684 230.744 456.903 231.673C457.177 231.91 457.158 232.439 457.45 232.713C457.741 232.986 458.142 233.004 458.433 233.259C458.724 233.515 459.289 234.116 459.78 234.499C460.272 234.882 460.545 235.119 460.982 235.429C435.151 236.072 409.833 228.143 388.971 212.878L388.37 212.422C388.341 211.807 388.249 211.196 388.097 210.599C387.951 210.089 386.167 208.776 387.806 208.776C386.968 208.175 387.496 207.865 387.369 207.263C387.241 206.662 386.75 206.151 387.041 205.531Z" fill="#6A897B"/>
<path d="M504.863 25.2525C504.863 25.2525 502.131 23.9764 501.949 23.8488C501.039 23.1378 501.694 21.6429 499.91 21.9164C498.909 20.0934 497.853 19.1089 496.906 17.3953C496.396 17.3041 496.232 16.9578 495.904 16.739L494.867 15.6816C496.482 16.717 498.219 17.5497 500.038 18.161C500.966 18.3615 501.658 18.161 502.532 18.4162C504.608 18.9631 503.57 19.0725 504.353 20.4944C504.99 21.4059 507.758 24.9244 504.863 25.2525Z" fill="#4A725F"/>
<g style="mix-blend-mode:overlay" opacity="0.47">
<path d="M363.262 48.5143C364.901 46.2538 366.606 44.0783 368.378 41.9879C379.03 33.9666 397.128 25.3984 426.515 24.0858C483.76 21.5153 523.015 46.4178 532.538 98.4105C542.061 150.403 494.156 205.768 417.703 193.044C362.352 183.928 348.623 151.442 341.231 129.912C338.231 100.982 346.084 71.9693 363.262 48.5143V48.5143Z" fill="white"/>
</g>
<path d="M353.649 227.736L353.74 283.885C353.74 283.885 419.706 288.953 433.999 284.432C448.292 279.911 441.591 260.933 441.591 251.891C441.591 242.849 441.355 220.899 439.042 215.631C436.73 210.362 425.86 213.151 412.496 214.81C399.131 216.469 353.649 227.736 353.649 227.736Z" fill="#EEE6DE"/>
<path d="M441.591 251.891C441.591 242.776 441.354 220.899 439.042 215.631C436.73 210.362 425.86 213.151 412.495 214.81C399.131 216.469 353.648 227.736 353.648 227.736V237.142C365.884 234.171 397.656 228.027 408.271 226.733C421.636 225.056 431.067 223.287 433.361 228.465C435.655 233.642 436.457 253.495 436.475 262.555C436.475 267.532 438.514 275.499 437.95 282.426C446.908 275.827 441.591 259.948 441.591 251.891Z" fill="#EFD5BF"/>
<g opacity="0.58">
<g style="mix-blend-mode:multiply" opacity="0.58">
<path d="M441.19 216.415L354.377 232.33C354.377 232.33 424.021 216.925 441.19 216.415Z" fill="#E8D3C1"/>
</g>
<g style="mix-blend-mode:multiply" opacity="0.58">
<path d="M443.503 248.737L355.833 255.573C355.833 255.573 426.424 247.479 443.503 248.737Z" fill="#E8D3C1"/>
</g>
<g style="mix-blend-mode:multiply" opacity="0.58">
<path d="M443.503 245.091L355.87 254.206C355.87 254.206 426.388 244.216 443.503 245.091Z" fill="#E8D3C1"/>
</g>
<g style="mix-blend-mode:multiply" opacity="0.58">
<path d="M443.484 242.885L355.87 252C355.87 252 426.387 242.047 443.484 242.885Z" fill="#E8D3C1"/>
</g>
<g style="mix-blend-mode:multiply" opacity="0.58">
<path d="M443.448 240.023L355.906 249.995C355.906 249.995 426.351 239.367 443.448 240.023Z" fill="#E8D3C1"/>
</g>
<g style="mix-blend-mode:multiply" opacity="0.58">
<path d="M443.375 236.231L355.979 248.026C355.979 248.026 426.242 235.976 443.375 236.231Z" fill="#E8D3C1"/>
</g>
<g style="mix-blend-mode:multiply" opacity="0.58">
<path d="M443.375 233.515L355.979 245.292C355.979 245.292 426.223 233.205 443.375 233.515Z" fill="#E8D3C1"/>
</g>
<g style="mix-blend-mode:multiply" opacity="0.58">
<path d="M443.321 230.16L356.015 242.794C356.015 242.794 426.169 230.033 443.321 230.16Z" fill="#E8D3C1"/>
</g>
<g style="mix-blend-mode:multiply" opacity="0.58">
<path d="M443.321 227.043L356.015 239.622C356.015 239.622 426.169 226.861 443.321 227.043Z" fill="#E8D3C1"/>
</g>
<g style="mix-blend-mode:multiply" opacity="0.58">
<path d="M443.266 223.853L356.052 237.416C356.052 237.416 426.096 223.907 443.266 223.853Z" fill="#E8D3C1"/>
</g>
<g style="mix-blend-mode:multiply" opacity="0.58">
<path d="M443.594 220.28L356.398 233.861C356.398 233.861 426.479 220.334 443.594 220.28Z" fill="#E8D3C1"/>
</g>
<g style="mix-blend-mode:multiply" opacity="0.58">
<path d="M440.99 278.379L356.434 278.27C356.434 278.27 423.947 280.822 440.99 278.379Z" fill="#E8D3C1"/>
</g>
<g style="mix-blend-mode:multiply" opacity="0.58">
<path d="M443.157 251.326L356.197 257.214C356.197 257.214 426.023 254.48 443.157 251.326Z" fill="#E8D3C1"/>
</g>
<g style="mix-blend-mode:multiply" opacity="0.58">
<path d="M443.139 254.206L356.197 259.201C356.197 259.201 426.151 257.852 443.139 254.206Z" fill="#E8D3C1"/>
</g>
<g style="mix-blend-mode:multiply" opacity="0.58">
<path d="M443.066 258.053L356.307 261.17C356.307 261.17 426.06 261.298 443.066 258.053Z" fill="#E8D3C1"/>
</g>
<g style="mix-blend-mode:multiply" opacity="0.58">
<path d="M443.066 260.805L356.307 263.923C356.307 263.923 426.078 264.05 443.066 260.805Z" fill="#E8D3C1"/>
</g>
<g style="mix-blend-mode:multiply" opacity="0.58">
<path d="M443.048 264.178L356.362 266.439C356.362 266.439 426.024 267.259 443.048 264.178Z" fill="#E8D3C1"/>
</g>
<g style="mix-blend-mode:multiply" opacity="0.58">
<path d="M443.048 267.314L356.38 269.574C356.38 269.574 426.042 270.395 443.048 267.314Z" fill="#E8D3C1"/>
</g>
<g style="mix-blend-mode:multiply" opacity="0.58">
<path d="M443.011 270.613L356.434 271.908C356.434 271.908 425.987 273.439 443.011 270.613Z" fill="#E8D3C1"/>
</g>
<g style="mix-blend-mode:multiply" opacity="0.58">
<path d="M443.394 274.059L356.816 275.353C356.816 275.353 426.369 276.957 443.394 274.059Z" fill="#E8D3C1"/>
</g>
<g style="mix-blend-mode:multiply" opacity="0.58">
<path d="M441.682 281.005L354.705 282.026C354.705 282.026 424.622 283.52 441.682 281.005Z" fill="#E8D3C1"/>
</g>
</g>
<path d="M432.56 207.828C432.56 207.828 576.4 223.342 588.089 226.843C599.778 230.343 597.193 265.126 595.154 276.064C593.114 287.002 585.231 290.047 576.819 290.375C568.407 290.703 420.142 290.101 420.142 290.101C420.142 290.101 440.171 286.455 442.265 271.215C444.359 255.974 440.899 225.767 440.225 220.644C439.552 215.522 432.56 207.828 432.56 207.828Z" fill="#94B228"/>
<path d="M445.997 248.172C445.87 245.875 445.761 243.669 445.688 241.591C445.688 240.223 445.688 238.82 445.579 237.416C445.287 226.478 445.014 215.321 438.66 210.271C437.096 209.113 435.296 208.315 433.389 207.934C431.482 207.553 429.514 207.598 427.626 208.065C414.881 210.399 360.731 221.939 349.06 224.473V232.129C356.671 230.489 415.591 217.91 428.7 215.522C429.536 215.25 430.423 215.176 431.292 215.306C432.16 215.436 432.987 215.765 433.707 216.269C437.349 219.222 437.695 229.158 437.913 237.945C437.913 239.367 437.913 240.789 438.041 242.192C438.041 244.289 438.314 247.971 438.35 248.883C438.35 250.815 439.406 278.051 434.818 281.041C429.72 283.539 387.478 285.69 349.133 283.812V291.378C364.045 292.107 398.385 290.94 420.143 290.065C429.083 289.7 435.91 288.953 438.35 287.604C447.709 282.39 446.835 264.998 445.997 248.172Z" fill="#A8C430"/>
<g style="mix-blend-mode:multiply">
<path d="M433.816 258.399C433.816 258.399 432.487 277.048 432.633 289.044C425.496 289.81 417.812 290.12 417.812 290.12C417.812 290.12 420.998 259.256 433.816 258.399Z" fill="#EFD5BF"/>
</g>
<path d="M586.05 228.884C586.05 228.884 488.767 217.509 472.835 216.014C456.904 214.519 451.514 213.097 449.329 214.61C447.144 216.123 448.091 230.215 449.329 232.293C450.567 234.372 460.254 234.262 471.033 234.536C481.812 234.809 586.232 239.622 589.255 239.622C592.277 239.622 591.713 234.827 590.638 232.877C589.564 230.926 588.253 229.14 586.05 228.884Z" fill="#A8C430"/>
<path d="M349.061 346.889C349.061 346.889 341.778 366.45 342.032 382.583C340.091 379.725 338.31 376.761 336.698 373.705L328.031 381.471C328.031 381.471 333.384 345.521 340.248 334.601C347.112 323.681 349.061 346.889 349.061 346.889Z" fill="#EE6D4A"/>
<path d="M609.702 347.472L583.556 364.335H364.482L340.248 347.472C340.248 347.472 446.034 343.826 480.701 341.292C515.368 338.758 609.702 347.472 609.702 347.472Z" fill="#E0BA1B"/>
<path d="M609.701 288.935C609.701 288.935 350.626 290.028 341.158 291.122C335.331 292.945 335.695 307.876 335.331 320.619C334.967 333.362 334.603 345.558 340.247 347.472C345.892 349.386 605.459 347.618 609.72 347.472C613.98 347.326 616.893 339.086 617.367 325.723C617.84 312.36 619.297 288.843 609.701 288.935Z" fill="#EACC4B"/>
<path d="M609.701 292.945H347.221C341.158 292.945 339.1 295.662 338.609 300.511C338.117 305.36 340.065 306.18 352.192 305.98C364.318 305.779 601.636 305.98 609.701 305.98C617.767 305.98 615.71 292.945 609.701 292.945Z" fill="#F9DC62"/>
<g opacity="0.72">
<path opacity="0.72" d="M335.331 320.619C335.696 307.858 335.331 292.945 341.158 291.122C343.161 290.885 356.416 290.648 376.025 290.429C373.986 296.664 374.623 303.592 379.048 308.003C393.068 324.611 414.607 332.742 428.427 348.365C381.087 348.365 342.396 348.219 340.247 347.472C334.603 345.558 334.967 333.38 335.331 320.619Z" fill="#E0BA1B"/>
</g>
<path d="M465.934 551.359C465.934 551.359 635.119 517.706 647.719 513.859C660.319 510.013 664.106 472.677 649.922 468.01C635.738 463.343 474.419 453.426 474.419 453.426L286.717 464.2L465.934 551.359Z" fill="#D5554A"/>
<path d="M647.719 513.877C635.119 517.724 465.934 551.377 465.934 551.377L369.307 502.137L655.166 472.294C662.795 483.323 658.443 510.614 647.719 513.877Z" fill="#C4413B"/>
<path d="M291.233 468.758C326.064 471.638 450.349 482.485 467.3 491.91C487.037 502.848 480.446 546.273 464.005 547.366C450.677 548.26 334.731 523.576 291.233 514.151V468.758Z" fill="#EEE6DE"/>
<path d="M458.16 505.51C453.808 503.085 442.319 500.551 427.098 498.108C425.678 497.871 411.676 534.842 410.201 534.569C370.381 528.462 317.798 508.026 287.519 505.4L291.16 468.648C325.991 471.529 450.276 482.376 467.227 491.801C485.144 501.773 481.375 538.452 468.211 545.944C472.58 532.089 470.578 512.401 458.16 505.51Z" fill="#EFD5BF"/>
<path d="M286.718 508.973C339.738 520.495 447.891 543.283 463.022 543.283H463.732C468.083 542.991 472.326 536.939 474.274 528.243C477.023 515.992 474.82 500.897 465.298 495.538C450.258 487.17 335.678 476.469 286.718 472.531V464.273C316.287 466.643 450.477 477.873 469.285 488.337C482.941 495.921 485.672 515.281 482.304 530.029C479.463 542.791 473.528 550.903 465.225 551.45H463.404C445.451 551.45 328.14 526.329 286.791 517.341L286.718 508.973Z" fill="#E5544C"/>
<path d="M286.717 517.396V508.974C318.927 515.974 371.455 527.204 411.148 534.806C410.784 537.559 410.511 540.275 410.31 543.046C367.941 534.952 312.499 523.011 286.717 517.396Z" fill="#C4413B"/>
<path d="M430.193 487.735C388.316 481.428 321.221 475.284 286.717 472.513V464.255C308.985 466.078 390.5 472.841 437.549 480.571C434.9 482.748 432.439 485.144 430.193 487.735Z" fill="#C4413B"/>
<g style="mix-blend-mode:multiply">
<path d="M464.005 498.783L293.436 475.448C293.436 475.448 431.377 490.561 464.005 498.783Z" fill="#E8D3C1"/>
</g>
<g style="mix-blend-mode:multiply">
<path d="M466.044 503.559L295.494 480.261C295.494 480.261 433.416 495.319 466.044 503.559Z" fill="#E8D3C1"/>
</g>
<g style="mix-blend-mode:multiply">
<path d="M470.432 508.901L296.859 484.509C296.859 484.509 437.804 500.661 470.432 508.901Z" fill="#E8D3C1"/>
</g>
<g style="mix-blend-mode:multiply">
<path d="M470.632 514.297L297.132 488.136C297.132 488.136 438.004 506.057 470.632 514.297Z" fill="#E8D3C1"/>
</g>
<g style="mix-blend-mode:multiply">
<path d="M470.632 519.128L297.132 491.874C297.132 491.874 438.004 510.888 470.632 519.128Z" fill="#E8D3C1"/>
</g>
<g style="mix-blend-mode:multiply">
<path d="M470.632 523.667L297.132 495.009C297.132 495.009 438.004 515.427 470.632 523.667Z" fill="#E8D3C1"/>
</g>
<g style="mix-blend-mode:multiply">
<path d="M469.303 526.894L296.859 498.491C296.859 498.491 436.675 518.654 469.303 526.894Z" fill="#E8D3C1"/>
</g>
<g style="mix-blend-mode:multiply">
<path d="M469.303 530.795L297.132 502.137C297.132 502.137 436.675 522.555 469.303 530.795Z" fill="#E8D3C1"/>
</g>
<g style="mix-blend-mode:multiply">
<path d="M466.863 535.334L296.459 504.471C296.459 504.471 434.235 527.094 466.863 535.334Z" fill="#E8D3C1"/>
</g>
<g style="mix-blend-mode:multiply">
<path d="M464.005 539.327L295.494 507.46C295.494 507.46 431.377 531.087 464.005 539.327Z" fill="#E8D3C1"/>
</g>
<path d="M652.981 474.61L514.603 495.009C490.751 498.509 484.998 497.47 485.817 507.461C486.636 517.451 489.932 517.414 523.871 512.693C557.81 507.971 646.626 490.67 652.981 489.65C659.335 488.629 656.622 474.099 652.981 474.61Z" fill="#E5544C"/>
<g style="mix-blend-mode:multiply">
<path d="M462.311 517.341C462.311 517.341 460.836 538.27 460.982 551.377C457.177 551.086 445.433 549.372 445.433 549.372C445.433 549.372 448.51 517.706 462.311 517.341Z" fill="#EFD5BF"/>
</g>
<path d="M462.311 517.268C462.311 517.268 448.255 526.201 447.417 568.313C440.844 561.458 436.311 557.12 436.311 557.12L424.421 564.065C424.421 564.065 432.25 519.456 441.463 513.203C448.53 513.861 455.514 515.223 462.311 517.268V517.268Z" fill="#94B228"/>
<path d="M486.364 484.527C486.364 484.527 338.664 466.588 327.757 462.65C316.851 458.713 313.555 426.281 325.937 422.963C338.318 419.645 477.442 412.39 477.442 412.39L639.489 417.95L486.364 484.527Z" fill="#275B4B"/>
<path d="M327.757 462.632C338.682 466.588 486.363 484.509 486.363 484.509L558.21 442.087L486.036 427.977L321.312 426.281C314.757 435.506 318.544 459.278 327.757 462.632Z" fill="#2F6858"/>
<path d="M321.312 426.299L461.947 427.758C458.183 436.171 456.16 445.261 456 454.479C455.841 463.697 457.548 472.852 461.019 481.391C418.304 476.086 335.805 465.549 327.757 462.632C318.544 459.278 314.757 435.506 321.312 426.299Z" fill="#29554A"/>
<path d="M635.502 421.596C605.441 422.325 498.162 425.406 483.523 432.68C466.481 441.175 472.162 478.948 486.364 480.735C497.871 482.175 597.903 466.716 635.502 460.773V421.596Z" fill="#EEE6DE"/>
<path d="M491.407 444.876C504.954 438.131 597.94 434.995 635.502 433.938V421.541C605.441 422.27 498.162 425.351 483.523 432.625C468.047 440.337 471.306 472.185 482.668 479.313C478.953 467.099 480.701 450.199 491.407 444.876Z" fill="#EFD5BF"/>
<path d="M639.398 456.562C593.625 463.854 500.274 478.055 487.201 477.289H486.6C482.831 476.815 479.172 471.383 477.497 463.763C475.13 453.061 477.023 440.063 485.253 435.98C498.217 429.526 597.139 426.081 639.398 425.151V418.023C613.908 418.57 498.035 421.487 481.794 429.563C470.013 435.433 467.719 452.004 470.56 464.911C473.018 476.013 478.971 483.451 486.127 484.345H486.91C502.405 485.256 603.657 469.487 639.398 463.817V456.562Z" fill="#29554A"/>
<g opacity="0.58">
<g style="mix-blend-mode:multiply" opacity="0.58">
<path d="M486.363 438.787L633.608 427.266C633.608 427.266 514.603 433.318 486.363 438.787Z" fill="#E8D3C1"/>
</g>
<g style="mix-blend-mode:multiply" opacity="0.58">
<path d="M484.597 442.798L631.824 431.258C631.824 431.258 512.783 437.329 484.597 442.798Z" fill="#E8D3C1"/>
</g>
<g style="mix-blend-mode:multiply" opacity="0.58">
<path d="M480.81 447.191L630.64 434.886C630.64 434.886 508.977 441.722 480.81 447.191Z" fill="#E8D3C1"/>
</g>
<g style="mix-blend-mode:multiply" opacity="0.58">
<path d="M480.628 451.84L630.403 438.021C630.403 438.021 508.813 446.371 480.628 451.84Z" fill="#E8D3C1"/>
</g>
<g style="mix-blend-mode:multiply" opacity="0.58">
<path d="M480.628 456.015L630.403 441.248C630.403 441.248 508.813 450.546 480.628 456.015Z" fill="#E8D3C1"/>
</g>
<g style="mix-blend-mode:multiply" opacity="0.58">
<path d="M480.628 459.916L630.403 443.946C630.403 443.946 508.813 454.465 480.628 459.916Z" fill="#E8D3C1"/>
</g>
<g style="mix-blend-mode:multiply" opacity="0.58">
<path d="M481.83 462.778L630.695 446.991C630.695 446.991 509.942 457.309 481.83 462.778Z" fill="#E8D3C1"/>
</g>
<g style="mix-blend-mode:multiply" opacity="0.58">
<path d="M481.829 466.151L630.403 450.053C630.403 450.053 509.942 460.682 481.829 466.151Z" fill="#E8D3C1"/>
</g>
<g style="mix-blend-mode:multiply" opacity="0.58">
<path d="M483.887 470.18L631.004 452.15C631.004 452.15 512.072 464.729 483.887 470.18Z" fill="#E8D3C1"/>
</g>
<g style="mix-blend-mode:multiply" opacity="0.58">
<path d="M486.363 473.771L631.824 454.739C631.824 454.739 514.603 468.32 486.363 473.771Z" fill="#E8D3C1"/>
</g>
</g>
<path d="M323.042 429.69C323.042 429.69 415.791 436.982 440.08 439.334C461 441.412 466.918 439.972 466.208 448.558C465.498 457.145 453.463 455.34 423.839 452.205C390.865 448.686 328.704 442.725 323.206 441.503C317.707 440.282 319.983 429.052 323.042 429.69Z" fill="#3E8771"/>
<path d="M337.48 464.637C337.589 464.63 337.693 464.59 337.777 464.521C337.862 464.453 337.924 464.36 337.954 464.255C337.973 464.195 337.98 464.132 337.973 464.069C337.967 464.007 337.948 463.946 337.917 463.891C337.886 463.836 337.845 463.789 337.794 463.751C337.744 463.713 337.687 463.686 337.626 463.671C336.042 463.325 330.944 460.025 330.161 456.525C328.991 450.228 328.2 443.866 327.794 437.474C327.558 435.662 327.832 433.82 328.585 432.155C329.337 430.49 330.539 429.068 332.054 428.049C332.171 427.987 332.259 427.882 332.3 427.756C332.34 427.631 332.331 427.494 332.273 427.375C332.242 427.319 332.201 427.27 332.152 427.23C332.102 427.191 332.045 427.162 331.984 427.145C331.922 427.128 331.859 427.123 331.796 427.131C331.733 427.14 331.672 427.161 331.617 427.193C329.946 428.325 328.615 429.894 327.768 431.728C326.921 433.562 326.59 435.593 326.81 437.602C327.24 444.041 328.036 450.45 329.196 456.799C330.07 460.627 335.423 464.218 337.353 464.637H337.48Z" fill="#F9A0A0"/>
<path d="M343.853 465.312C343.958 465.301 344.058 465.259 344.139 465.191C344.221 465.123 344.279 465.031 344.308 464.929C344.327 464.869 344.334 464.806 344.328 464.744C344.322 464.681 344.302 464.621 344.272 464.566C344.241 464.511 344.199 464.463 344.149 464.425C344.099 464.388 344.041 464.36 343.98 464.346C342.396 463.999 337.298 460.7 336.515 457.2C335.363 450.9 334.573 444.539 334.148 438.149C333.91 436.335 334.185 434.49 334.941 432.824C335.698 431.158 336.905 429.738 338.427 428.724C338.54 428.659 338.626 428.554 338.666 428.429C338.706 428.304 338.699 428.169 338.645 428.049C338.615 427.994 338.574 427.945 338.524 427.905C338.475 427.865 338.417 427.836 338.356 427.819C338.295 427.802 338.231 427.798 338.168 427.806C338.105 427.814 338.045 427.835 337.99 427.867C336.314 428.996 334.979 430.563 334.132 432.399C333.284 434.234 332.956 436.267 333.183 438.277C333.595 444.717 334.391 451.128 335.568 457.473C336.424 461.301 341.777 464.875 343.707 465.294L343.853 465.312Z" fill="#F9A0A0"/>
<g style="mix-blend-mode:multiply">
<path d="M492.208 450.053C492.208 450.053 493.574 471.93 493.428 484.162C497.069 483.889 508.322 482.813 508.322 482.813C508.322 482.813 505.063 450.4 492.208 450.053Z" fill="#EFD5BF"/>
</g>
<path d="M492.208 450.053C492.208 450.053 505.318 459.88 506.082 499.184C512.218 492.803 516.442 488.756 516.442 488.756L527.513 495.228C527.513 495.228 520.23 453.645 511.636 447.829C499.036 449.27 492.208 450.053 492.208 450.053Z" fill="#E0BA1B"/>
<path d="M590.11 353.652V409.983C590.11 409.983 524.945 417.731 510.816 413.757C496.687 409.783 503.278 390.513 503.278 381.435C503.278 372.356 503.46 350.261 505.736 344.974C508.012 339.687 518.755 341.948 531.974 343.151C545.192 344.354 590.11 353.652 590.11 353.652Z" fill="#EEE6DE"/>
<path d="M503.278 381.435C503.278 372.32 503.46 350.261 505.736 344.974C508.012 339.687 518.755 341.948 531.974 343.151C545.192 344.354 590.11 353.725 590.11 353.725V363.168C578.021 360.67 546.631 355.876 536.125 354.928C522.906 353.798 513.584 352.394 511.326 357.699C509.068 363.004 508.304 382.93 508.304 391.99C508.304 396.985 506.319 405.079 506.865 412.043C498.053 405.663 503.278 389.511 503.278 381.435Z" fill="#EFD5BF"/>
<g opacity="0.58">
<g style="mix-blend-mode:multiply" opacity="0.58">
<path d="M503.679 345.85L589.546 358.246C589.546 358.246 520.576 345.649 503.679 345.85Z" fill="#E8D3C1"/>
</g>
<g style="mix-blend-mode:multiply" opacity="0.58">
<path d="M501.385 378.172L587.999 381.508C587.999 381.508 518.245 376.349 501.385 378.172Z" fill="#E8D3C1"/>
</g>
<g style="mix-blend-mode:multiply" opacity="0.58">
<path d="M501.385 374.653L587.962 380.232C587.962 380.232 518.245 373.14 501.385 374.653Z" fill="#E8D3C1"/>
</g>
<g style="mix-blend-mode:multiply" opacity="0.58">
<path d="M501.385 372.484L587.962 378.062C587.962 378.062 518.245 370.88 501.385 372.484Z" fill="#E8D3C1"/>
</g>
<g style="mix-blend-mode:multiply" opacity="0.58">
<path d="M501.403 369.622L587.925 376.075C587.925 376.075 518.245 368.255 501.403 369.622Z" fill="#E8D3C1"/>
</g>
<g style="mix-blend-mode:multiply" opacity="0.58">
<path d="M501.494 365.812L587.853 374.106C587.853 374.106 518.427 364.809 501.494 365.812Z" fill="#E8D3C1"/>
</g>
<g style="mix-blend-mode:multiply" opacity="0.58">
<path d="M501.494 363.077L587.853 371.354C587.853 371.354 518.427 362.075 501.494 363.077Z" fill="#E8D3C1"/>
</g>
<g style="mix-blend-mode:multiply" opacity="0.58">
<path d="M501.53 359.704L587.798 368.82C587.798 368.82 518.463 358.884 501.53 359.704Z" fill="#E8D3C1"/>
</g>
<g style="mix-blend-mode:multiply" opacity="0.58">
<path d="M501.53 356.587L587.798 365.702C587.798 365.702 518.463 355.749 501.53 356.587Z" fill="#E8D3C1"/>
</g>
<g style="mix-blend-mode:multiply" opacity="0.58">
<path d="M501.585 353.379L587.743 363.478C587.743 363.478 518.536 352.741 501.585 353.379Z" fill="#E8D3C1"/>
</g>
<g style="mix-blend-mode:multiply" opacity="0.58">
<path d="M501.203 349.824L587.434 359.941C587.434 359.941 518.154 349.186 501.203 349.824Z" fill="#E8D3C1"/>
</g>
<g style="mix-blend-mode:multiply" opacity="0.58">
<path d="M503.898 407.996L589.146 403.421C589.146 403.421 520.74 409.747 503.898 407.996Z" fill="#E8D3C1"/>
</g>
<g style="mix-blend-mode:multiply" opacity="0.58">
<path d="M501.73 380.943L587.652 383.331C587.652 383.331 518.663 383.404 501.73 380.943Z" fill="#E8D3C1"/>
</g>
<g style="mix-blend-mode:multiply" opacity="0.58">
<path d="M501.749 383.841L587.616 385.336C587.616 385.336 518.518 386.758 501.749 383.841Z" fill="#E8D3C1"/>
</g>
<g style="mix-blend-mode:multiply" opacity="0.58">
<path d="M501.858 387.688L587.543 387.287C587.543 387.287 518.627 390.24 501.858 387.688Z" fill="#E8D3C1"/>
</g>
<g style="mix-blend-mode:multiply" opacity="0.58">
<path d="M501.858 390.441L587.58 390.076C587.58 390.076 518.609 392.993 501.858 390.441Z" fill="#E8D3C1"/>
</g>
<g style="mix-blend-mode:multiply" opacity="0.58">
<path d="M501.858 393.813L587.434 392.592C587.434 392.592 518.664 396.22 501.858 393.813Z" fill="#E8D3C1"/>
</g>
<g style="mix-blend-mode:multiply" opacity="0.58">
<path d="M501.858 396.967L587.434 395.746C587.434 395.746 518.664 399.373 501.858 396.967Z" fill="#E8D3C1"/>
</g>
<g style="mix-blend-mode:multiply" opacity="0.58">
<path d="M501.858 400.212L587.434 398.006C587.434 398.006 518.719 402.418 501.858 400.212Z" fill="#E8D3C1"/>
</g>
<g style="mix-blend-mode:multiply" opacity="0.58">
<path d="M501.512 403.694L587.088 401.506C587.088 401.506 518.245 405.973 501.512 403.694Z" fill="#E8D3C1"/>
</g>
<g style="mix-blend-mode:multiply" opacity="0.58">
<path d="M503.224 410.658L589.874 406.629C589.874 406.629 520.066 412.481 503.224 410.658Z" fill="#E8D3C1"/>
</g>
</g>
<path d="M512.128 336.88C512.128 336.88 370.108 358.246 358.51 362.22C346.912 366.194 348.46 396.019 350.444 406.775C352.429 417.531 360.258 420.393 368.652 420.393C377.046 420.393 515.696 418.57 515.696 418.57C515.696 418.57 504.772 415.926 502.714 400.741C500.657 385.555 503.989 355.165 504.644 349.933C505.3 344.701 512.128 336.88 512.128 336.88Z" fill="#CE9393"/>
<path d="M358.51 362.22C363.881 360.397 397.347 354.782 431.668 349.331C451.842 365.903 462.839 392.774 464.66 419.262C424.167 419.773 373.495 420.393 368.579 420.393C360.258 420.393 352.447 417.549 350.371 406.775C348.296 396.001 346.93 366.213 358.51 362.22Z" fill="#BD8583"/>
<path d="M498.908 377.898C499.018 375.583 499.127 373.359 499.2 371.28C499.2 369.895 499.2 368.491 499.309 367.088C499.582 356.149 499.837 344.883 506.119 339.578C507.631 338.355 509.395 337.483 511.283 337.023C513.172 336.563 515.139 336.526 517.043 336.916C529.788 338.739 583.155 348.128 594.68 350.17V357.845C587.142 356.514 528.933 346.269 515.969 344.391C515.116 344.153 514.221 344.116 513.352 344.284C512.483 344.452 511.665 344.819 510.962 345.357C507.32 348.474 507.029 358.465 506.829 367.233L506.719 371.481C506.719 373.596 506.446 377.296 506.428 378.208C506.428 380.159 505.408 407.486 509.942 410.33C514.986 412.627 556.717 410.475 594.607 407.048V414.632C579.877 415.963 545.957 418.788 524.472 418.788C515.641 418.788 508.904 418.314 506.483 417.057C497.27 412.28 498.107 394.798 498.908 377.898Z" fill="#BD8583"/>
<g style="mix-blend-mode:multiply">
<path d="M510.962 387.651C510.962 387.651 512.309 406.301 512.164 418.333C519.228 418.825 526.821 418.825 526.821 418.825C526.821 418.825 523.616 387.998 510.962 387.651Z" fill="#EFD5BF"/>
</g>
<path d="M510.962 387.633C510.962 387.633 524.69 398.954 525.437 437.821C531.482 432.352 535.633 429.089 535.633 429.089L546.558 437.146C546.558 437.146 538.874 394.597 530.426 387.56C523.942 387.21 517.443 387.234 510.962 387.633V387.633Z" fill="#C4413B"/>
<g style="mix-blend-mode:overlay" opacity="0.37">
<path d="M497.488 343.261C497.488 343.261 368.761 363.496 364.1 364.335C359.439 365.173 358.637 369.804 357.672 373.341C356.707 376.877 360.458 375.401 368.233 374.671C376.007 373.942 483.469 360.27 489.277 359.449C495.085 358.629 495.959 356.496 496.924 353.324C497.945 350.438 498.677 347.458 499.109 344.427C498.927 343.534 498.472 343.097 497.488 343.261Z" fill="white"/>
</g>
<path d="M433.816 258.381C433.816 258.381 419.942 270.23 419.25 309.006C413.133 303.883 408.927 300.711 408.927 300.711L398.002 309.188C398.002 309.188 405.704 266.457 414.243 259.092C420.749 258.491 427.284 258.254 433.816 258.381V258.381Z" fill="#778E16"/>
<path d="M74.6719 544.887C74.6719 544.887 65.0583 550.994 61.9266 558.049C58.7949 565.104 55.5903 566.745 50.6561 566.745C45.7218 566.745 16.8446 529.847 16.6079 524.214C16.3712 518.581 23.6543 517.615 32.3393 524.214C41.0243 530.813 49.7275 535.608 59.8145 529.264C70.4477 531.615 74.6719 544.887 74.6719 544.887Z" fill="#F4A56E"/>
<path d="M59.6324 555.442C67.9715 545.434 56.4643 540.001 51.6757 532.144C54.6063 531.867 57.4252 530.879 59.8874 529.264C70.4477 531.615 74.6719 544.887 74.6719 544.887C74.6719 544.887 65.0583 550.994 61.9266 558.049C58.7949 565.104 55.5904 566.745 50.6561 566.745C50.1361 566.684 49.6406 566.489 49.2177 566.18C53.0049 562.734 56.3187 558.76 59.6324 555.442Z" fill="#EA9357"/>
<path d="M62.4912 557.065C62.4912 557.065 58.2489 568.987 41.2248 574.037C35.8571 570.091 31.2592 565.191 27.6601 559.581L29.7722 556.7C29.7722 556.7 23.964 548.952 14.8056 538.251C5.64716 527.55 1.89638 519.328 0.731092 513.568C-0.434193 507.807 7.64997 503.869 11.7649 507.515C15.8798 511.161 40.6421 527.66 44.8481 529.027C49.054 530.394 48.3622 536.428 42.0259 535.954C38.3844 537.777 45.6674 546.528 50.8384 549.718C56.0093 552.908 62.4912 557.065 62.4912 557.065Z" fill="#081C21"/>
<path d="M3.95362 507.205C3.95362 510.851 5.26457 518.234 13.0574 528.37C24.1822 542.955 35.9625 559.672 51.1841 569.589C48.0823 571.519 44.7314 573.016 41.2245 574.037C35.8569 570.091 31.259 565.191 27.6599 559.581L29.772 556.7C29.772 556.7 23.9637 548.952 14.8053 538.251C5.64691 527.55 1.89613 519.328 0.730845 513.567C0.513986 512.301 0.710365 510.998 1.29083 509.852C1.8713 508.706 2.805 507.778 3.95362 507.205V507.205Z" fill="#040F11"/>
<path d="M183.589 540.785C180.867 546.241 177.726 551.477 174.194 556.445C169.824 562.097 156.988 568.678 154.475 570.865C151.963 573.053 162.305 579.652 176.07 579.014C189.835 578.376 200.504 575.259 201.433 573.691C202.361 572.123 199.248 564.576 205.511 545.799C204.255 536.775 183.589 540.785 183.589 540.785Z" fill="#F4A56E"/>
<path d="M194.369 559.088C192.876 554.622 182.88 556.226 177.29 551.979C180.64 546.692 183.59 540.785 183.59 540.785C183.59 540.785 204.255 536.702 205.439 545.799C199.176 564.612 202.307 572.123 201.36 573.691C200.368 574.585 199.165 575.212 197.865 575.514C198.125 569.829 196.921 564.173 194.369 559.088V559.088Z" fill="#EA9357"/>
<path d="M201.579 564.12C203.851 572.561 204.682 581.325 204.037 590.043C197.412 594.054 190.016 596.62 182.333 597.573L180.676 593.179C174.154 597.141 167.015 599.981 159.556 601.583C146.61 604.518 133.883 607.052 123.65 603.26C113.418 599.468 117.806 592.614 133.464 585.504C149.123 578.394 155.313 568.368 161.631 563.136C167.949 557.903 174.996 564.612 172.902 572.342C186.303 574.839 196.317 571.285 201.579 564.12Z" fill="#081C21"/>
<path d="M168.569 591.976C181.032 587.93 192.831 582.064 203.582 574.566C204.175 579.721 204.327 584.917 204.037 590.098C197.412 594.109 190.016 596.674 182.334 597.627L180.677 593.234C174.15 597.176 167.012 599.998 159.556 601.583C146.61 604.518 133.883 607.052 123.651 603.26C117.697 601.073 116.713 597.791 120.009 594.145C122.121 604.573 148.486 598.283 168.569 591.976Z" fill="#040F11"/>
<path d="M395.817 523.248C395.817 523.248 390.737 533.621 372.147 514.297C353.557 494.973 372.512 475.576 372.512 475.576C372.512 475.576 396.254 502.921 395.817 523.248Z" fill="#7FA57F"/>
<path d="M342.961 468.101C342.961 468.101 386.768 486.623 395.763 523.248C424.312 463.27 438.223 408.616 425.696 366.468C413.169 324.319 366.703 319.197 357.053 320.491C347.403 321.785 317.652 323.937 305.071 349.149C292.489 374.361 298.753 460.809 298.753 460.809L342.961 468.101Z" fill="#9CBA9C"/>
<path d="M406.705 439.589C385.967 420.539 384.237 392.847 394.615 368.601C409.181 379.976 417.739 395.946 430.175 407.869C429.283 422.965 426.799 437.924 422.764 452.496C416.61 446.116 412.404 437.766 406.705 430.93V439.589Z" fill="#8AAA8A"/>
<path d="M361.66 425.734C383.072 434.066 402.827 443.217 422.655 452.624C415.821 476.929 406.808 500.566 395.726 523.248C394.166 517.115 391.666 511.26 388.316 505.893C392.34 492.712 395.836 479.477 385.876 470.745C368.287 455.486 346.748 458.531 326.064 465.276L298.753 460.718C298.753 460.718 298.188 453.098 297.751 441.704C317.579 430.256 341.122 417.786 361.66 425.734Z" fill="#8AAA8A"/>
<path d="M326.592 336.388C326.189 333.192 326.945 329.958 328.722 327.273C340.12 322.187 351.718 321.202 357.108 320.473C361.168 319.926 371.783 320.473 383.618 324.538C381.233 325.596 375.68 328.494 373.367 333.653C370.399 340.362 362.607 351.792 351.882 350.79C341.158 349.787 327.903 347.344 326.592 336.388Z" fill="#A5C6A5"/>
<path d="M292.908 476.779C292.908 476.779 184.901 449.853 163.507 445.788C142.113 441.722 75.3821 514.406 55.2445 531.014C70.3568 547.604 74.672 550.065 74.672 550.065C74.672 550.065 132.663 515.044 161.613 488.465C208.825 511.69 264.905 543.155 291.233 543.155C317.561 543.155 328.121 525.308 327.958 523.211C327.794 521.115 292.908 476.779 292.908 476.779Z" fill="#00001E"/>
<path d="M55.2443 531.014C75.3818 514.406 142.113 441.686 163.507 445.787C176.835 448.321 223.81 459.715 257.312 467.955C255.965 468.685 253.525 469.086 249.373 468.758C233.806 467.573 171.263 456.434 163.798 454.793C156.333 453.153 155.732 462.869 147.939 464.638C140.547 466.333 95.1371 511.544 60.5427 536.793C58.995 535.079 57.2107 533.129 55.2443 531.014Z" fill="#00001E"/>
<path d="M354.504 409.819C354.504 409.819 349.825 389.274 333.165 386.685C332.194 391.409 332.624 396.313 334.403 400.795L349.897 423.383L354.504 409.819Z" fill="#F4A56E"/>
<path d="M358.91 439.79C358.91 439.79 326.847 342.732 323.587 337.227C311.935 341 263.63 365.101 263.63 365.101L256.456 374.434L313.391 350.735L349.114 443.709L358.91 439.79Z" fill="white"/>
<path d="M280.654 459.278L349.115 443.782L313.391 350.79L256.456 374.434L280.654 459.278Z" fill="#EE6D4A"/>
<path d="M259.661 336.388L263.63 365.101L252.833 379.375L244.804 339.943L259.661 336.388Z" fill="white"/>
<path d="M244.803 338.685L251.631 373.45L247.48 371.226L242.236 339.305L244.803 338.685Z" fill="#EE6D4A"/>
<path d="M256.456 374.434L247.48 371.226L272.115 452.624L280.654 459.278L256.456 374.434Z" fill="#E05A3B"/>
<path d="M435.783 387.907C435.783 387.907 449.603 428.287 448.783 460.226C447.964 492.165 376.354 448.303 354.104 429.235L342.87 421.578L348.915 401.634C348.915 401.634 411.403 430.802 413.843 431.659C416.283 432.516 407.088 399.209 407.088 399.209C407.088 399.209 425.641 384.899 435.783 387.907Z" fill="#F4A56E"/>
<path d="M432.888 455.176C440.171 444.238 438.35 431.477 432.888 422.362C428.099 417.567 419.123 419.773 413.297 424.094C411.33 414.486 407.106 399.209 407.106 399.209C407.106 399.209 425.641 384.899 435.783 387.907C435.783 387.907 449.603 428.287 448.783 460.226C448.419 474.81 433.161 473.589 414.589 466.06C422.055 464.984 428.773 461.757 432.888 455.176Z" fill="#EA9357"/>
<path d="M444.996 406.501C444.996 406.501 429.501 361.126 419.888 352.813C410.274 344.5 388.316 360.452 390.574 380.942C392.831 401.433 403.647 423.382 403.647 423.382C403.647 423.382 422.583 408.215 444.996 406.501Z" fill="#A5C6A5"/>
<path d="M353.412 405.043L340.211 396.147C335.04 392.665 322.003 390.003 315.23 392.318C310.933 395.545 316.742 395.964 318.544 395.964C323.855 396.84 328.912 398.861 333.365 401.889C325.518 399.1 317.488 396.821 310.951 398.243C307.638 399.61 308.839 403.603 312.226 403.603C315.613 403.603 323.569 404.186 334.257 410.038C328.194 408.653 317.707 405.791 311.771 407.449C309.204 408.926 309.622 411.624 314.593 411.952C319.564 412.281 333.729 416.783 333.729 416.783C320.729 414.96 318.143 416.164 316.414 417.093C314.684 418.023 316.104 420.63 319.928 420.247C324.788 419.615 329.724 420.547 334.021 422.909C339.642 426.098 346.233 427.123 352.556 425.789C358.692 424.276 353.412 405.043 353.412 405.043Z" fill="#F4A56E"/>
<path d="M390.41 509.429C390.41 509.429 391.32 546.254 349.115 556.956C306.91 567.657 260.353 450.874 253.561 439.443C243.602 490.488 224.775 516.229 209.044 552.781C185.119 548.989 178.2 542.572 178.2 542.572C178.2 542.572 210.719 435.998 218.894 404.97C227.069 373.942 257.877 363.405 281.31 387.597C304.743 411.788 347.749 468.375 361.66 477.709C373.677 485.783 383.546 496.672 390.41 509.429V509.429Z" fill="#080866"/>
<path d="M363.481 531.306C366.865 522.154 368.168 512.362 367.296 502.643C366.423 492.923 363.397 483.521 358.437 475.12C359.468 476.032 360.55 476.885 361.678 477.672C373.693 485.759 383.556 496.661 390.41 509.429C390.41 509.429 391.32 546.254 349.115 556.956C347.921 557.265 346.703 557.466 345.473 557.557C353.709 550.573 359.926 541.509 363.481 531.306V531.306Z" fill="#0D2C35"/>
<path d="M178.2 542.481C178.2 542.481 210.719 435.907 218.894 404.879C224.01 385.5 237.957 374.161 253.488 374.252C254.664 375.076 255.692 376.093 256.529 377.26C263.812 387.36 251.176 406.228 239.632 412.371C228.089 418.515 231.566 441.029 227.834 450.837C224.666 459.114 198.847 527.313 190.854 548.478C181.404 545.416 178.2 542.481 178.2 542.481Z" fill="#080866"/>
<path d="M378.156 322.806C370.587 311.307 364.912 298.664 361.35 285.362C350.571 293.893 332.637 302.607 332.637 302.607C332.637 302.607 336.479 320.965 334.166 325.851C331.854 330.737 328.158 336.297 334.53 340.435C340.903 344.573 354.267 347.436 362.497 339.195C370.727 330.955 372.584 325.577 378.156 322.806Z" fill="#F4A56E"/>
<path d="M364.864 323.7C354.704 319.89 344.545 328.658 334.385 325.268C336.206 319.671 332.564 302.607 332.564 302.607C332.564 302.607 350.499 293.893 361.277 285.362C364.84 298.664 370.514 311.307 378.083 322.806C375.715 324.086 373.652 325.865 372.038 328.02C370.189 325.826 367.666 324.307 364.864 323.7Z" fill="#EA9357"/>
<path d="M304.925 268.025C304.925 268.025 301.866 272.345 313.137 293.365C324.407 314.384 325.736 320.819 334.003 321.239C342.269 321.658 359.748 309.261 359.402 297.539C359.056 285.817 356.434 275.772 350.408 268.061C344.381 260.35 339.483 254.698 328.158 256.576C316.833 258.454 307.274 261.17 304.925 268.025Z" fill="#F4A56E"/>
<path d="M304.925 268.024C307.274 261.17 316.887 258.417 328.158 256.539C339.428 254.662 344.363 260.313 350.408 268.024C356.453 275.736 359.038 285.726 359.402 297.503C359.53 302.042 356.999 306.618 353.375 310.647C357.581 302.188 352.72 284.65 344.654 281.624C333.038 275.572 329.633 291.25 321.184 288.442V284.213C319.109 287.33 315.504 289.682 312.627 292.398C301.975 272.236 304.925 268.024 304.925 268.024Z" fill="#EF9A60"/>
<path d="M355.906 282.226C355.441 280.411 355.423 278.511 355.855 276.688C356.286 274.865 357.154 273.174 358.382 271.762C362.552 267.058 367.286 273.439 367.14 280.476C366.995 287.513 366.612 291.232 363.062 291.706C359.511 292.18 356.198 288.844 355.906 282.226Z" fill="#EF9A60"/>
<path d="M363.972 283.374C364.1 277.522 360.859 272.163 357.363 273.184C357.663 272.711 358.004 272.266 358.382 271.853C362.552 267.149 367.286 273.53 367.14 280.567C366.995 287.604 366.612 291.323 363.062 291.797C363.773 289.049 364.08 286.211 363.972 283.374Z" fill="#F4A56E"/>
<path d="M299.172 272.947C299.172 272.947 291.889 285.908 302.813 290.357C313.738 294.805 320.711 272.947 320.711 272.947C319.364 284.213 332 278.963 338.354 267.824C338.901 275.572 346.111 278.562 348.933 277.504C351.755 276.447 355.287 286.711 355.287 286.711L358.11 284.651C358.11 284.651 354.596 274.059 359.33 271.634C364.063 269.21 366.613 276.137 366.613 276.137C366.613 276.137 367.905 244.945 346.784 243.778C344.436 234.846 333.183 229.431 326.483 232.257C319.783 235.083 327.758 238.364 327.758 238.364C307.347 237.653 296.714 248.062 297.242 252.638C297.77 257.214 304.525 254.461 304.525 254.461C304.525 254.461 292.817 261.753 292.125 269.045C291.433 276.338 299.172 272.947 299.172 272.947Z" fill="#722F01"/>
<defs>
<radialGradient id="paint0_radial" cx="0" cy="0" r="1" gradientUnits="userSpaceOnUse" gradientTransform="translate(445.196 185.022) rotate(180) scale(0.273106 0.273464)">
<stop stop-color="white"/>
<stop offset="0.21" stop-color="#E9E9F3"/>
<stop offset="1" stop-color="#9997C6"/>
</radialGradient>
</defs>
</svg>
