<svg width="237" height="151" viewBox="0 0 237 151" fill="none" xmlns="http://www.w3.org/2000/svg">
<path d="M178.936 148.629C187.82 148.39 196.561 146.333 204.617 142.585C212.673 138.837 219.874 133.477 225.774 126.837C231.809 119.95 236.42 111.43 236.923 102.282C237.426 93.1341 233.13 83.4418 225.019 79.2551C213.347 72.975 199.201 79.4644 187.612 85.8283C187.067 78.1456 190.169 70.7141 192.914 63.492C196.165 55.9237 198.12 47.8638 198.698 39.6485C198.887 34.1932 197.951 28.7574 195.946 23.6794C193.941 18.6013 190.912 13.9898 187.046 10.1319C183.142 6.30491 178.4 3.43854 173.195 1.75987C167.989 0.0811928 162.464 -0.363662 157.057 0.460543C144.903 2.55392 134.718 11.6392 128.976 22.5456C123.233 33.4521 121.515 46.0542 121.515 58.4051C119.189 53.0976 115.68 48.3906 111.257 44.6431C106.833 40.8956 101.612 38.2064 95.9899 36.7805C84.6943 34.3104 71.848 38.6646 65.4353 48.2941C59.0226 57.9236 60.4686 72.3469 69.438 79.6947C61.8527 77.3637 53.8483 76.7206 45.9876 77.8106C38.2127 79.2132 30.6684 83.5883 26.9591 90.5802C23.2498 97.5721 24.3395 107.181 30.4797 112.163C24.2269 110.986 17.7933 111.172 11.6189 112.707C7.53232 113.733 3.23625 115.638 1.32921 119.385C0.529953 121.224 0.218079 123.238 0.423615 125.232C0.62915 127.227 1.34518 129.135 2.50276 130.773C4.86397 134.03 7.92976 136.713 11.4722 138.623C25.2406 146.913 61.1392 152.816 178.936 148.629Z" fill="#F4F3FF"/>
</svg>
