<svg width="112" height="71" viewBox="0 0 112 71" fill="none" xmlns="http://www.w3.org/2000/svg">
<path d="M84.4131 70.1337C88.5733 70.0144 92.6648 69.0445 96.4351 67.2839C100.205 65.5232 103.574 63.0092 106.334 59.8971C109.289 56.7448 111.117 52.7036 111.531 48.4045C111.704 46.2632 111.276 44.1161 110.295 42.2043C109.314 40.2925 107.819 38.6918 105.977 37.5818C100.508 34.672 93.8855 37.5818 88.4578 40.659C88.5165 37.0303 89.3676 33.4582 90.9516 30.1922C92.4669 26.6488 93.3805 22.8779 93.655 19.0345C93.7311 16.483 93.2875 13.9426 92.3508 11.5675C91.4142 9.19249 90.0042 7.03236 88.2063 5.21825C86.3759 3.43222 84.1537 2.09731 81.7162 1.31963C79.2788 0.541952 76.6934 0.342951 74.1654 0.73844C71.3378 1.3643 68.6879 2.61915 66.4129 4.4096C64.1379 6.20005 62.2965 8.47997 61.0257 11.0797C58.5299 16.3003 57.3295 22.0446 57.5259 27.8267C56.4426 25.3382 54.8024 23.1309 52.7317 21.3745C50.6609 19.618 48.2146 18.3592 45.5807 17.6947C42.9327 17.0989 40.1681 17.2909 37.6281 18.247C35.0882 19.2031 32.8842 20.8815 31.2884 23.0747C29.8092 25.3414 29.1847 28.0595 29.5263 30.7437C29.868 33.4279 31.1535 35.9034 33.1535 37.7283C29.6069 36.646 25.8673 36.346 22.1933 36.8491C20.3565 37.1148 18.6028 37.7887 17.0613 38.8212C15.5199 39.8537 14.23 41.2186 13.2867 42.8152C12.4005 44.4436 12.0802 46.3197 12.376 48.1494C12.6719 49.9792 13.5671 51.6592 14.9213 52.9262C12.0031 52.3812 9.00188 52.4668 6.11958 53.1774C5.14476 53.33 4.21324 53.6868 3.38618 54.2244C2.55911 54.7619 1.85516 55.4681 1.32052 56.2965C0.941956 57.1575 0.793213 58.1018 0.888702 59.0373C0.984192 59.9728 1.32068 60.8676 1.86541 61.6346C2.96846 63.1609 4.40087 64.4201 6.05672 65.3189C12.4694 69.2126 29.3184 71.9549 84.4131 70.0499" fill="#F4F3FF"/>
</svg>
