<svg width="296" height="135" viewBox="0 0 296 135" fill="none" xmlns="http://www.w3.org/2000/svg">
<path d="M109.73 134.409C226.625 135.539 264.808 119.504 277.529 102.653C290.25 85.8009 297.333 64.5322 295.468 43.5776C293.854 25.5327 283.69 6.60864 266.254 1.71015C252.402 -2.22539 236.81 4.01286 227.736 15.1915C217.866 27.354 214.68 44.4987 202.588 54.6306C205.103 33.8434 186.389 13.0981 165.432 13.4121C144.476 13.7261 126.495 34.9529 129.513 55.6145C121.801 43.7032 106.985 35.874 93.1323 38.8675C79.28 41.861 68.7598 57.7078 73.4331 71.0008C63.263 65.3489 51.5484 63.0984 40.005 64.5789C28.4617 66.0593 17.6962 71.1929 9.28516 79.2277C5.8569 82.3925 3.2652 86.3549 1.74078 90.7622C-1.02548 99.9102 3.58493 110.063 10.8359 116.301C18.0869 122.54 27.6012 125.596 36.8011 127.92C60.6198 133.842 85.2268 135.962 109.709 134.2" fill="#F4F3FF"/>
</svg>
